  0
SECTION
  2
ENTITIES
999
DXF created from EnergyPlus
999
Program Version,EnergyPlus, Version 8.3.0-6d97d074ea, YMD=2018.01.23 10:49
999
Polygon Action,TRIANGULATE3DFACE
999
Color Scheme,Default
999
Text - True North
  0
TEXT
  8
1
  6
Continuous
 62
  3
 10
      -22.96553
 20
      -15.08952
 30
        0.10000
 40
 .25
  1
True North
 41
 0.0
  7
MONOTXT
210
0.0
220
0.0
230
1.0
999
Text - Building Title
  0
TEXT
  8
1
  6
Continuous
 62
  3
 10
      -25.96553
 20
      -19.08952
 30
        0.10000
 40
 .4
  1
Building - Building
 41
 0.0
  7
MONOTXT
210
0.0
220
0.0
230
1.0
999
North Arrow Stem
  0
3DFACE
  8
1
 62
  3
 10
      -21.96553
 20
      -15.08952
 30
        0.10000
 11
      -21.96553
 21
      -15.08952
 31
        0.00000
 12
      -21.96553
 22
      -18.08952
 32
        0.00000
 13
      -21.96553
 23
      -18.08952
 33
        0.10000
999
North Arrow Head 1
  0
3DFACE
  8
1
 62
  3
 10
      -21.96553
 20
      -15.08952
 30
        0.10000
 11
      -21.96553
 21
      -15.08952
 31
        0.00000
 12
      -22.46553
 22
      -15.95555
 32
        0.00000
 13
      -22.46553
 23
      -15.95555
 33
        0.10000
999
North Arrow Head 2
  0
3DFACE
  8
1
 62
  3
 10
      -21.96553
 20
      -15.08952
 30
        0.10000
 11
      -21.96553
 21
      -15.08952
 31
        0.00000
 12
      -21.46553
 22
      -15.95555
 32
        0.00000
 13
      -21.46553
 23
      -15.95555
 33
        0.10000
999
North Arrow Side 1
  0
3DFACE
  8
1
 62
  3
 10
      -22.46553
 20
      -13.58952
 30
        0.10000
 11
      -22.46553
 21
      -13.58952
 31
        0.00000
 12
      -22.46553
 22
      -14.58952
 32
        0.00000
 13
      -22.46553
 23
      -14.58952
 33
        0.10000
999
North Arrow Side 2
  0
3DFACE
  8
1
 62
  3
 10
      -22.46553
 20
      -13.58952
 30
        0.10000
 11
      -22.46553
 21
      -13.58952
 31
        0.00000
 12
      -21.46553
 22
      -14.58952
 32
        0.00000
 13
      -21.46553
 23
      -14.58952
 33
        0.10000
999
North Arrow Side 3
  0
3DFACE
  8
1
 62
  3
 10
      -21.46553
 20
      -13.58952
 30
        0.10000
 11
      -21.46553
 21
      -13.58952
 31
        0.00000
 12
      -21.46553
 22
      -14.58952
 32
        0.00000
 13
      -21.46553
 23
      -14.58952
 33
        0.10000
999
Zone Names
999
Zone=1:UNDERFLOOR_VOID_SPACE
999
Zone=2:ROOFS1
999
Zone=3:ROOFS2
999
Zone=4:ROOFS3
999
Zone=5:ROOFS0
999
Zone=6:ROOFS4
999
Zone=7:ROOFN0
999
Zone=8:ROOFN3
999
Zone=9:ROOFN1
999
Zone=10:ROOFN2
999
Zone=11:SWOFF
999
Zone=12:SEOFF
999
Zone=13:NWOFF
999
Zone=14:NEOFF
999
Zone=15:CENTRAL
999
Zone=16:LARGECONF
999
Building Shading:IW - EASTSHADING1 - SURFACE 1 (1)
  0
3DFACE
  8
Building Shading
 62
195
 10
       22.90268
 20
       34.86790
 30
        4.12000
 11
       17.46489
 21
       14.57380
 31
        4.12000
 12
       16.49897
 22
       14.83262
 32
        4.12000
 13
       21.93676
 23
       35.12672
 33
        4.12000
999
Building Shading:Mir-IW - EASTSHADING1 - SURFACE 1 (1)
  0
3DFACE
  8
Building Shading
 62
195
 10
       21.93676
 20
       35.12672
 30
        4.12000
 11
       16.49897
 21
       14.83262
 31
        4.12000
 12
       17.46489
 22
       14.57380
 32
        4.12000
 13
       22.90268
 23
       34.86790
 33
        4.12000
999
Building Shading:IW - EASTSHADING0 - SURFACE 1 (2)
  0
3DFACE
  8
Building Shading
 62
195
 10
       10.77893
 20
       17.40057
 30
        4.12000
 11
        4.56468
 21
       -5.79131
 31
        4.12000
 12
        3.59876
 22
       -5.53249
 32
        4.12000
 13
        9.81300
 23
       17.65939
 33
        4.12000
999
Building Shading:Mir-IW - EASTSHADING0 - SURFACE 1 (2)
  0
3DFACE
  8
Building Shading
 62
195
 10
        9.81300
 20
       17.65939
 30
        4.12000
 11
        3.59876
 21
       -5.53249
 31
        4.12000
 12
        4.56468
 22
       -5.79131
 32
        4.12000
 13
       10.77893
 23
       17.40057
 33
        4.12000
999
Building Shading:IW - SOUTHSHADING0 - SURFACE 1 (3)
  0
3DFACE
  8
Building Shading
 62
195
 10
       16.75779
 20
       15.79854
 30
        4.12000
 11
       16.49897
 21
       14.83262
 31
        4.12000
 12
       10.52955
 22
       16.43212
 32
        4.12000
 13
       10.78837
 23
       17.39804
 33
        4.12000
999
Building Shading:Mir-IW - SOUTHSHADING0 - SURFACE 1 (3)
  0
3DFACE
  8
Building Shading
 62
195
 10
       10.78837
 20
       17.39804
 30
        4.12000
 11
       10.52955
 21
       16.43212
 31
        4.12000
 12
       16.49897
 22
       14.83262
 32
        4.12000
 13
       16.75779
 23
       15.79854
 33
        4.12000
999
Building Shading:IW - WESTSHADING0 - SURFACE 1 (4)
  0
3DFACE
  8
Building Shading
 62
195
 10
        4.72396
 20
       39.73887
 30
        4.12000
 11
       -6.66667
 21
       -2.77152
 31
        4.12000
 12
       -7.63259
 22
       -2.51270
 32
        4.12000
 13
        3.75803
 23
       39.99769
 33
        4.12000
999
Building Shading:Mir-IW - WESTSHADING0 - SURFACE 1 (4)
  0
3DFACE
  8
Building Shading
 62
195
 10
        3.75803
 20
       39.99769
 30
        4.12000
 11
       -7.63259
 21
       -2.51270
 31
        4.12000
 12
       -6.66667
 22
       -2.77152
 32
        4.12000
 13
        4.72396
 23
       39.73887
 33
        4.12000
999
Building Shading:IW - WESTWALKWAY0 - SURFACE 1 (5)
  0
3DFACE
  8
Building Shading
 62
195
 10
        4.72159
 20
       39.72916
 30
        1.02000
 11
       -6.66903
 21
       -2.78124
 31
        1.02000
 12
       -7.63496
 22
       -2.52242
 32
        1.02000
 13
        3.75567
 23
       39.98797
 33
        1.02000
999
Building Shading:Mir-IW - WESTWALKWAY0 - SURFACE 1 (5)
  0
3DFACE
  8
Building Shading
 62
195
 10
        3.75567
 20
       39.98797
 30
        1.02000
 11
       -7.63496
 21
       -2.52242
 31
        1.02000
 12
       -6.66903
 22
       -2.78124
 32
        1.02000
 13
        4.72159
 23
       39.72916
 33
        1.02000
999
Building Shading:IW - EASTWALKWAY0 - SURFACE 1 (6)
  0
3DFACE
  8
Building Shading
 62
195
 10
       10.77893
 20
       17.40057
 30
        1.02000
 11
        4.56468
 21
       -5.79131
 31
        1.02000
 12
        3.59876
 22
       -5.53249
 32
        1.02000
 13
        9.81300
 23
       17.65939
 33
        1.02000
999
Building Shading:Mir-IW - EASTWALKWAY0 - SURFACE 1 (6)
  0
3DFACE
  8
Building Shading
 62
195
 10
        9.81300
 20
       17.65939
 30
        1.02000
 11
        3.59876
 21
       -5.53249
 31
        1.02000
 12
        4.56468
 22
       -5.79131
 32
        1.02000
 13
       10.77893
 23
       17.40057
 33
        1.02000
999
Building Shading:IW - SOUTHWALKWAY0 - SURFACE 1 (7)
  0
3DFACE
  8
Building Shading
 62
195
 10
       16.75801
 20
       15.79848
 30
        1.02000
 11
       16.49919
 21
       14.83256
 31
        1.02000
 12
       10.52977
 22
       16.43206
 32
        1.02000
 13
       10.78859
 23
       17.39798
 33
        1.02000
999
Building Shading:Mir-IW - SOUTHWALKWAY0 - SURFACE 1 (7)
  0
3DFACE
  8
Building Shading
 62
195
 10
       10.78859
 20
       17.39798
 30
        1.02000
 11
       10.52977
 21
       16.43206
 31
        1.02000
 12
       16.49919
 22
       14.83256
 32
        1.02000
 13
       16.75801
 23
       15.79848
 33
        1.02000
999
Building Shading:IW - EASTWALKWAY1 - SURFACE 1 (8)
  0
3DFACE
  8
Building Shading
 62
195
 10
       22.90032
 20
       34.85818
 30
        1.02000
 11
       17.46253
 21
       14.56408
 31
        1.02000
 12
       16.49660
 22
       14.82290
 32
        1.02000
 13
       21.93439
 23
       35.11700
 33
        1.02000
999
Building Shading:Mir-IW - EASTWALKWAY1 - SURFACE 1 (8)
  0
3DFACE
  8
Building Shading
 62
195
 10
       21.93439
 20
       35.11700
 30
        1.02000
 11
       16.49660
 21
       14.82290
 31
        1.02000
 12
       17.46253
 22
       14.56408
 32
        1.02000
 13
       22.90032
 23
       34.85818
 33
        1.02000
999
Building Shading:IW - NORTHBALCONY - SURFACE 1 (9)
  0
3DFACE
  8
Building Shading
 62
195
 10
       17.31049
 20
       40.34800
 30
        1.02000
 11
       16.87049
 21
       38.70593
 31
        1.02000
 12
       15.90457
 22
       38.96475
 32
        1.02000
 13
       16.34456
 23
       40.60682
 33
        1.02000
999
Building Shading:Mir-IW - NORTHBALCONY - SURFACE 1 (9)
  0
3DFACE
  8
Building Shading
 62
195
 10
       16.34456
 20
       40.60682
 30
        1.02000
 11
       15.90457
 21
       38.96475
 31
        1.02000
 12
       16.87049
 22
       38.70593
 32
        1.02000
 13
       17.31049
 23
       40.34800
 33
        1.02000
999
Building Shading:IW - NORTHBALCONY - SURFACE 2 (10)
  0
3DFACE
  8
Building Shading
 62
195
 10
       15.31806
 20
       37.93498
 30
        1.02000
 11
       15.05833
 21
       36.96565
 31
        1.02000
 12
       13.32932
 22
       37.42894
 32
        1.02000
 13
       13.57859
 23
       38.40003
 33
        1.02000
999
Building Shading:Mir-IW - NORTHBALCONY - SURFACE 2 (10)
  0
3DFACE
  8
Building Shading
 62
195
 10
       13.57859
 20
       38.40003
 30
        1.02000
 11
       13.32932
 21
       37.42894
 31
        1.02000
 12
       15.05833
 22
       36.96565
 32
        1.02000
 13
       15.31806
 23
       37.93498
 33
        1.02000
999
Building Shading:IW - NORTHBALCONY - SURFACE 3 (11)
  0
3DFACE
  8
Building Shading
 62
195
 10
       15.90457
 20
       38.96475
 30
        1.02000
 11
       15.60850
 21
       37.85979
 31
        1.02000
 12
       15.31870
 22
       37.93738
 32
        1.02000
 13
       15.61479
 23
       39.04239
 33
        1.02000
999
Building Shading:Mir-IW - NORTHBALCONY - SURFACE 3 (11)
  0
3DFACE
  8
Building Shading
 62
195
 10
       15.61479
 20
       39.04239
 30
        1.02000
 11
       15.31870
 21
       37.93738
 31
        1.02000
 12
       15.60850
 22
       37.85979
 32
        1.02000
 13
       15.90457
 23
       38.96475
 33
        1.02000
999
Building Shading:IW - NORTHBALCONY - SURFACE 4 (12)
  0
3DFACE
  8
Building Shading
 62
195
 10
       15.61479
 20
       39.04239
 30
        1.02000
 11
       15.31806
 21
       37.93498
 31
        1.02000
 12
       13.28877
 22
       38.47751
 32
        1.02000
 13
       13.58581
 23
       39.58606
 33
        1.02000
999
Building Shading:Mir-IW - NORTHBALCONY - SURFACE 4 (12)
  0
3DFACE
  8
Building Shading
 62
195
 10
       13.58581
 20
       39.58606
 30
        1.02000
 11
       13.28877
 21
       38.47751
 31
        1.02000
 12
       15.31806
 22
       37.93498
 32
        1.02000
 13
       15.61479
 23
       39.04239
 33
        1.02000
999
Building Shading:IW - NORTHBALCONY - SURFACE 5 (13)
  0
3DFACE
  8
Building Shading
 62
195
 10
       16.34456
 20
       40.60682
 30
        1.02000
 11
       15.90457
 21
       38.96475
 31
        1.02000
 12
       12.61988
 22
       39.84487
 32
        1.02000
 13
       13.05987
 23
       41.48695
 33
        1.02000
999
Building Shading:Mir-IW - NORTHBALCONY - SURFACE 5 (13)
  0
3DFACE
  8
Building Shading
 62
195
 10
       13.05987
 20
       41.48695
 30
        1.02000
 11
       12.61988
 21
       39.84487
 31
        1.02000
 12
       15.90457
 22
       38.96475
 32
        1.02000
 13
       16.34456
 23
       40.60682
 33
        1.02000
999
Building Shading:IW - NORTHBALCONY - SURFACE 6 (14)
  0
3DFACE
  8
Building Shading
 62
195
 10
       13.05987
 20
       41.48695
 30
        1.12000
 11
       12.61988
 21
       39.84487
 31
        1.12000
 12
       13.58581
 22
       39.58606
 32
        1.12000
 13
       14.02580
 23
       41.22813
 33
        1.12000
999
Building Shading:Mir-IW - NORTHBALCONY - SURFACE 6 (14)
  0
3DFACE
  8
Building Shading
 62
195
 10
       14.02580
 20
       41.22813
 30
        1.12000
 11
       13.58581
 21
       39.58606
 31
        1.12000
 12
       12.61988
 22
       39.84487
 32
        1.12000
 13
       13.05987
 23
       41.48695
 33
        1.12000
999
Building Shading:IW - NORTHBALCONY - SURFACE 7 (15)
  0
3DFACE
  8
Building Shading
 62
195
 10
       14.02580
 20
       41.22813
 30
        1.12000
 11
       13.28877
 21
       38.47751
 31
        1.12000
 12
       13.57859
 22
       38.40003
 32
        1.12000
 13
       14.28661
 23
       41.15825
 33
        1.12000
999
Building Shading:Mir-IW - NORTHBALCONY - SURFACE 7 (15)
  0
3DFACE
  8
Building Shading
 62
195
 10
       14.28661
 20
       41.15825
 30
        1.12000
 11
       13.57859
 21
       38.40003
 31
        1.12000
 12
       13.28877
 22
       38.47751
 32
        1.12000
 13
       14.02580
 23
       41.22813
 33
        1.12000
999
Building Shading:IW - NORTHBALCONY - SURFACE 8 (16)
  0
3DFACE
  8
Building Shading
 62
195
 10
       13.57937
 20
       38.40303
 30
        1.12000
 11
       13.32932
 21
       37.42894
 31
        1.12000
 12
       15.05833
 22
       36.96565
 32
        1.12000
 13
       15.31870
 23
       37.93738
 33
        1.12000
999
Building Shading:Mir-IW - NORTHBALCONY - SURFACE 8 (16)
  0
3DFACE
  8
Building Shading
 62
195
 10
       15.31870
 20
       37.93738
 30
        1.12000
 11
       15.05833
 21
       36.96565
 31
        1.12000
 12
       13.32932
 22
       37.42894
 32
        1.12000
 13
       13.57937
 23
       38.40303
 33
        1.12000
999
Building Shading:IW - NORTHBALCONY - SURFACE 9 (17)
  0
3DFACE
  8
Building Shading
 62
195
 10
       13.86391
 20
       39.51154
 30
        1.12000
 11
       13.57937
 21
       38.40303
 31
        1.12000
 12
       15.60850
 22
       37.85979
 32
        1.12000
 13
       15.90457
 23
       38.96475
 33
        1.12000
999
Building Shading:Mir-IW - NORTHBALCONY - SURFACE 9 (17)
  0
3DFACE
  8
Building Shading
 62
195
 10
       15.90457
 20
       38.96475
 30
        1.12000
 11
       15.60850
 21
       37.85979
 31
        1.12000
 12
       13.57937
 22
       38.40303
 32
        1.12000
 13
       13.86391
 23
       39.51154
 33
        1.12000
999
Building Shading:IW - NORTHBALCONY - SURFACE 10 (18)
  0
3DFACE
  8
Building Shading
 62
195
 10
       14.28661
 20
       41.15825
 30
        1.12000
 11
       13.86391
 21
       39.51154
 31
        1.12000
 12
       16.87049
 22
       38.70593
 32
        1.12000
 13
       17.31049
 23
       40.34800
 33
        1.12000
999
Building Shading:Mir-IW - NORTHBALCONY - SURFACE 10 (18)
  0
3DFACE
  8
Building Shading
 62
195
 10
       17.31049
 20
       40.34800
 30
        1.12000
 11
       16.87049
 21
       38.70593
 31
        1.12000
 12
       13.86391
 22
       39.51154
 32
        1.12000
 13
       14.28661
 23
       41.15825
 33
        1.12000
999
Building Shading:IW - NORTHBALCONY - SURFACE 11 (19)
  0
3DFACE
  8
Building Shading
 62
195
 10
       15.60850
 20
       37.85979
 30
        1.12000
 11
       15.60850
 21
       37.85979
 31
        1.02000
 12
       15.90457
 22
       38.96475
 32
        1.02000
 13
       15.90457
 23
       38.96475
 33
        1.12000
999
Building Shading:Mir-IW - NORTHBALCONY - SURFACE 11 (19)
  0
3DFACE
  8
Building Shading
 62
195
 10
       15.90457
 20
       38.96475
 30
        1.12000
 11
       15.90457
 21
       38.96475
 31
        1.02000
 12
       15.60850
 22
       37.85979
 32
        1.02000
 13
       15.60850
 23
       37.85979
 33
        1.12000
999
Building Shading:IW - NORTHBALCONY - SURFACE 12 (20)
  0
3DFACE
  8
Building Shading
 62
195
 10
       15.90457
 20
       38.96475
 30
        1.12000
 11
       15.90457
 21
       38.96475
 31
        1.02000
 12
       16.87049
 22
       38.70593
 32
        1.02000
 13
       16.87049
 23
       38.70593
 33
        1.12000
999
Building Shading:Mir-IW - NORTHBALCONY - SURFACE 12 (20)
  0
3DFACE
  8
Building Shading
 62
195
 10
       16.87049
 20
       38.70593
 30
        1.12000
 11
       16.87049
 21
       38.70593
 31
        1.02000
 12
       15.90457
 22
       38.96475
 32
        1.02000
 13
       15.90457
 23
       38.96475
 33
        1.12000
999
Building Shading:IW - NORTHBALCONY - SURFACE 13 (21)
  0
3DFACE
  8
Building Shading
 62
195
 10
       16.87049
 20
       38.70593
 30
        1.12000
 11
       16.87049
 21
       38.70593
 31
        1.02000
 12
       17.31049
 22
       40.34800
 32
        1.02000
 13
       17.31049
 23
       40.34800
 33
        1.12000
999
Building Shading:Mir-IW - NORTHBALCONY - SURFACE 13 (21)
  0
3DFACE
  8
Building Shading
 62
195
 10
       17.31049
 20
       40.34800
 30
        1.12000
 11
       17.31049
 21
       40.34800
 31
        1.02000
 12
       16.87049
 22
       38.70593
 32
        1.02000
 13
       16.87049
 23
       38.70593
 33
        1.12000
999
Building Shading:IW - NORTHBALCONY - SURFACE 14 (22)
  0
3DFACE
  8
Building Shading
 62
195
 10
       17.31049
 20
       40.34800
 30
        1.12000
 11
       17.31049
 21
       40.34800
 31
        1.02000
 12
       13.05987
 22
       41.48695
 32
        1.02000
 13
       13.05987
 23
       41.48695
 33
        1.12000
999
Building Shading:Mir-IW - NORTHBALCONY - SURFACE 14 (22)
  0
3DFACE
  8
Building Shading
 62
195
 10
       13.05987
 20
       41.48695
 30
        1.12000
 11
       13.05987
 21
       41.48695
 31
        1.02000
 12
       17.31049
 22
       40.34800
 32
        1.02000
 13
       17.31049
 23
       40.34800
 33
        1.12000
999
Building Shading:IW - NORTHBALCONY - SURFACE 15 (23)
  0
3DFACE
  8
Building Shading
 62
195
 10
       13.05987
 20
       41.48695
 30
        1.12000
 11
       13.05987
 21
       41.48695
 31
        1.02000
 12
       12.61988
 22
       39.84487
 32
        1.02000
 13
       12.61988
 23
       39.84487
 33
        1.12000
999
Building Shading:Mir-IW - NORTHBALCONY - SURFACE 15 (23)
  0
3DFACE
  8
Building Shading
 62
195
 10
       12.61988
 20
       39.84487
 30
        1.12000
 11
       12.61988
 21
       39.84487
 31
        1.02000
 12
       13.05987
 22
       41.48695
 32
        1.02000
 13
       13.05987
 23
       41.48695
 33
        1.12000
999
Building Shading:IW - NORTHBALCONY - SURFACE 16 (24)
  0
3DFACE
  8
Building Shading
 62
195
 10
       12.61988
 20
       39.84487
 30
        1.12000
 11
       12.61988
 21
       39.84487
 31
        1.02000
 12
       13.58581
 22
       39.58606
 32
        1.02000
 13
       13.58581
 23
       39.58606
 33
        1.12000
999
Building Shading:Mir-IW - NORTHBALCONY - SURFACE 16 (24)
  0
3DFACE
  8
Building Shading
 62
195
 10
       13.58581
 20
       39.58606
 30
        1.12000
 11
       13.58581
 21
       39.58606
 31
        1.02000
 12
       12.61988
 22
       39.84487
 32
        1.02000
 13
       12.61988
 23
       39.84487
 33
        1.12000
999
Building Shading:IW - NORTHBALCONY - SURFACE 17 (25)
  0
3DFACE
  8
Building Shading
 62
195
 10
       13.58581
 20
       39.58606
 30
        1.12000
 11
       13.58581
 21
       39.58606
 31
        1.02000
 12
       13.28877
 22
       38.47751
 32
        1.02000
 13
       13.28877
 23
       38.47751
 33
        1.12000
999
Building Shading:Mir-IW - NORTHBALCONY - SURFACE 17 (25)
  0
3DFACE
  8
Building Shading
 62
195
 10
       13.28877
 20
       38.47751
 30
        1.12000
 11
       13.28877
 21
       38.47751
 31
        1.02000
 12
       13.58581
 22
       39.58606
 32
        1.02000
 13
       13.58581
 23
       39.58606
 33
        1.12000
999
Building Shading:IW - NORTHBALCONY - SURFACE 18 (26)
  0
3DFACE
  8
Building Shading
 62
195
 10
       13.28877
 20
       38.47751
 30
        1.12000
 11
       13.28877
 21
       38.47751
 31
        1.02000
 12
       13.57859
 22
       38.40003
 32
        1.02000
 13
       13.57859
 23
       38.40003
 33
        1.12000
999
Building Shading:Mir-IW - NORTHBALCONY - SURFACE 18 (26)
  0
3DFACE
  8
Building Shading
 62
195
 10
       13.57859
 20
       38.40003
 30
        1.12000
 11
       13.57859
 21
       38.40003
 31
        1.02000
 12
       13.28877
 22
       38.47751
 32
        1.02000
 13
       13.28877
 23
       38.47751
 33
        1.12000
999
Building Shading:IW - NORTHBALCONY - SURFACE 19 (27)
  0
3DFACE
  8
Building Shading
 62
195
 10
       13.57859
 20
       38.40003
 30
        1.12000
 11
       13.57859
 21
       38.40003
 31
        1.02000
 12
       13.32932
 22
       37.42894
 32
        1.02000
 13
       13.32932
 23
       37.42894
 33
        1.12000
999
Building Shading:Mir-IW - NORTHBALCONY - SURFACE 19 (27)
  0
3DFACE
  8
Building Shading
 62
195
 10
       13.32932
 20
       37.42894
 30
        1.12000
 11
       13.32932
 21
       37.42894
 31
        1.02000
 12
       13.57859
 22
       38.40003
 32
        1.02000
 13
       13.57859
 23
       38.40003
 33
        1.12000
999
Building Shading:IW - NORTHBALCONY - SURFACE 20 (28)
  0
3DFACE
  8
Building Shading
 62
195
 10
       13.32932
 20
       37.42894
 30
        1.12000
 11
       13.32932
 21
       37.42894
 31
        1.02000
 12
       15.05833
 22
       36.96565
 32
        1.02000
 13
       15.05833
 23
       36.96565
 33
        1.12000
999
Building Shading:Mir-IW - NORTHBALCONY - SURFACE 20 (28)
  0
3DFACE
  8
Building Shading
 62
195
 10
       15.05833
 20
       36.96565
 30
        1.12000
 11
       15.05833
 21
       36.96565
 31
        1.02000
 12
       13.32932
 22
       37.42894
 32
        1.02000
 13
       13.32932
 23
       37.42894
 33
        1.12000
999
Building Shading:IW - NORTHBALCONY - SURFACE 21 (29)
  0
3DFACE
  8
Building Shading
 62
195
 10
       15.05833
 20
       36.96565
 30
        1.12000
 11
       15.05833
 21
       36.96565
 31
        1.02000
 12
       15.31870
 22
       37.93738
 32
        1.02000
 13
       15.31870
 23
       37.93738
 33
        1.12000
999
Building Shading:Mir-IW - NORTHBALCONY - SURFACE 21 (29)
  0
3DFACE
  8
Building Shading
 62
195
 10
       15.31870
 20
       37.93738
 30
        1.12000
 11
       15.31870
 21
       37.93738
 31
        1.02000
 12
       15.05833
 22
       36.96565
 32
        1.02000
 13
       15.05833
 23
       36.96565
 33
        1.12000
999
Building Shading:IW - NORTHBALCONY - SURFACE 22 (30)
  0
3DFACE
  8
Building Shading
 62
195
 10
       15.31870
 20
       37.93738
 30
        1.12000
 11
       15.31870
 21
       37.93738
 31
        1.02000
 12
       15.60850
 22
       37.85979
 32
        1.02000
 13
       15.60850
 23
       37.85979
 33
        1.12000
999
Building Shading:Mir-IW - NORTHBALCONY - SURFACE 22 (30)
  0
3DFACE
  8
Building Shading
 62
195
 10
       15.60850
 20
       37.85979
 30
        1.12000
 11
       15.60850
 21
       37.85979
 31
        1.02000
 12
       15.31870
 22
       37.93738
 32
        1.02000
 13
       15.31870
 23
       37.93738
 33
        1.12000
999
Building Shading:IW - NORTHWALKWAY1 - SURFACE 1 (31)
  0
3DFACE
  8
Building Shading
 62
195
 10
       13.57859
 20
       38.40003
 30
        1.02000
 11
       13.32096
 21
       37.43635
 31
        1.02000
 12
        3.75700
 22
       39.99383
 32
        1.02000
 13
        4.01582
 23
       40.95976
 33
        1.02000
999
Building Shading:Mir-IW - NORTHWALKWAY1 - SURFACE 1 (31)
  0
3DFACE
  8
Building Shading
 62
195
 10
        4.01582
 20
       40.95976
 30
        1.02000
 11
        3.75700
 21
       39.99383
 31
        1.02000
 12
       13.32096
 22
       37.43635
 32
        1.02000
 13
       13.57859
 23
       38.40003
 33
        1.02000
999
Building Shading:IW - NORTHWALKWAY0 - SURFACE 2 (32)
  0
3DFACE
  8
Building Shading
 62
195
 10
       23.16046
 20
       35.83212
 30
        1.02000
 11
       22.90283
 21
       34.86844
 31
        1.02000
 12
       15.05833
 22
       36.96565
 32
        1.02000
 13
       15.31715
 23
       37.93158
 33
        1.02000
999
Building Shading:Mir-IW - NORTHWALKWAY0 - SURFACE 2 (32)
  0
3DFACE
  8
Building Shading
 62
195
 10
       15.31715
 20
       37.93158
 30
        1.02000
 11
       15.05833
 21
       36.96565
 31
        1.02000
 12
       22.90283
 22
       34.86844
 32
        1.02000
 13
       23.16046
 23
       35.83212
 33
        1.02000
999
Building Shading:IW - MMCHROOF - SURFACE 1 (33)
  0
3DFACE
  8
Building Shading
 62
195
 10
        2.69289
 20
       -8.91323
 30
        1.50000
 11
        2.69289
 21
       -8.91323
 31
      -15.00000
 12
       -9.50675
 22
       -5.64434
 32
      -15.00000
 13
       -9.50675
 23
       -5.64434
 33
        1.50000
999
Building Shading:Mir-IW - MMCHROOF - SURFACE 1 (33)
  0
3DFACE
  8
Building Shading
 62
195
 10
       -9.50675
 20
       -5.64434
 30
        1.50000
 11
       -9.50675
 21
       -5.64434
 31
      -15.00000
 12
        2.69289
 22
       -8.91323
 32
      -15.00000
 13
        2.69289
 23
       -8.91323
 33
        1.50000
999
Building Shading:IW - MMCHROOF - SURFACE 2 (34)
  0
3DFACE
  8
Building Shading
 62
195
 10
        0.23411
 20
      -18.08952
 30
        1.50000
 11
        0.23411
 21
      -18.08952
 31
      -15.00000
 12
        2.69289
 22
       -8.91323
 32
      -15.00000
 13
        2.69289
 23
       -8.91323
 33
        1.50000
999
Building Shading:Mir-IW - MMCHROOF - SURFACE 2 (34)
  0
3DFACE
  8
Building Shading
 62
195
 10
        2.69289
 20
       -8.91323
 30
        1.50000
 11
        2.69289
 21
       -8.91323
 31
      -15.00000
 12
        0.23411
 22
      -18.08952
 32
      -15.00000
 13
        0.23411
 23
      -18.08952
 33
        1.50000
999
Building Shading:IW - MMCHROOF - SURFACE 3 (35)
  0
3DFACE
  8
Building Shading
 62
195
 10
        2.69289
 20
       -8.91323
 30
      -15.00000
 11
        0.23411
 21
      -18.08952
 31
      -15.00000
 12
      -11.96553
 22
      -14.82064
 32
      -15.00000
 13
       -9.50675
 23
       -5.64434
 33
      -15.00000
999
Building Shading:Mir-IW - MMCHROOF - SURFACE 3 (35)
  0
3DFACE
  8
Building Shading
 62
195
 10
       -9.50675
 20
       -5.64434
 30
      -15.00000
 11
      -11.96553
 21
      -14.82064
 31
      -15.00000
 12
        0.23411
 22
      -18.08952
 32
      -15.00000
 13
        2.69289
 23
       -8.91323
 33
      -15.00000
999
Building Shading:IW - MMCHROOF - SURFACE 4 (36)
  0
3DFACE
  8
Building Shading
 62
195
 10
       -9.50675
 20
       -5.64434
 30
        1.50000
 11
       -9.50675
 21
       -5.64434
 31
      -15.00000
 12
      -11.96553
 22
      -14.82064
 32
      -15.00000
 13
      -11.96553
 23
      -14.82064
 33
        1.50000
999
Building Shading:Mir-IW - MMCHROOF - SURFACE 4 (36)
  0
3DFACE
  8
Building Shading
 62
195
 10
      -11.96553
 20
      -14.82064
 30
        1.50000
 11
      -11.96553
 21
      -14.82064
 31
      -15.00000
 12
       -9.50675
 22
       -5.64434
 32
      -15.00000
 13
       -9.50675
 23
       -5.64434
 33
        1.50000
999
Building Shading:IW - MMCHROOF - SURFACE 5 (37)
  0
3DFACE
  8
Building Shading
 62
195
 10
       -5.86571
 20
      -16.45508
 30
        5.62000
 11
        2.69289
 21
       -8.91323
 31
        1.50000
 12
       -9.50675
 22
       -5.64434
 32
        1.50000
 13
       -9.50675
 23
       -5.64434
 33
        1.50000
999
Building Shading:Mir-IW - MMCHROOF - SURFACE 5 (37)
  0
3DFACE
  8
Building Shading
 62
195
 10
       -9.50675
 20
       -5.64434
 30
        1.50000
 11
        2.69289
 21
       -8.91323
 31
        1.50000
 12
       -5.86571
 22
      -16.45508
 32
        5.62000
 13
       -5.86571
 23
      -16.45508
 33
        5.62000
999
Building Shading:IW - MMCHROOF - SURFACE 6 (38)
  0
3DFACE
  8
Building Shading
 62
195
 10
       -5.86571
 20
      -16.45508
 30
        5.62000
 11
       -9.50675
 21
       -5.64434
 31
        1.50000
 12
      -11.96553
 22
      -14.82064
 32
        1.50000
 13
      -11.96553
 23
      -14.82064
 33
        1.50000
999
Building Shading:Mir-IW - MMCHROOF - SURFACE 6 (38)
  0
3DFACE
  8
Building Shading
 62
195
 10
      -11.96553
 20
      -14.82064
 30
        1.50000
 11
       -9.50675
 21
       -5.64434
 31
        1.50000
 12
       -5.86571
 22
      -16.45508
 32
        5.62000
 13
       -5.86571
 23
      -16.45508
 33
        5.62000
999
Building Shading:IW - MMCHROOF - SURFACE 7 (39)
  0
3DFACE
  8
Building Shading
 62
195
 10
       -5.86571
 20
      -16.45508
 30
        5.62000
 11
        0.23411
 21
      -18.08952
 31
        1.50000
 12
        2.69289
 22
       -8.91323
 32
        1.50000
 13
        2.69289
 23
       -8.91323
 33
        1.50000
999
Building Shading:Mir-IW - MMCHROOF - SURFACE 7 (39)
  0
3DFACE
  8
Building Shading
 62
195
 10
        2.69289
 20
       -8.91323
 30
        1.50000
 11
        0.23411
 21
      -18.08952
 31
        1.50000
 12
       -5.86571
 22
      -16.45508
 32
        5.62000
 13
       -5.86571
 23
      -16.45508
 33
        5.62000
999
Building Shading:IW - MMCHROOF - SURFACE 8 (40)
  0
3DFACE
  8
Building Shading
 62
195
 10
      -11.96553
 20
      -14.82064
 30
        1.50000
 11
      -11.96553
 21
      -14.82064
 31
      -15.00000
 12
        0.23411
 22
      -18.08952
 32
      -15.00000
 13
        0.23411
 23
      -18.08952
 33
      -15.00000
  0
3DFACE
  8
Building Shading
 62
195
 10
        0.23411
 20
      -18.08952
 30
      -15.00000
 11
        0.23411
 21
      -18.08952
 31
        1.50000
 12
       -5.86571
 22
      -16.45508
 32
        5.62000
 13
       -5.86571
 23
      -16.45508
 33
        5.62000
  0
3DFACE
  8
Building Shading
 62
195
 10
      -11.96553
 20
      -14.82064
 30
        1.50000
 11
        0.23411
 21
      -18.08952
 31
      -15.00000
 12
       -5.86571
 22
      -16.45508
 32
        5.62000
 13
       -5.86571
 23
      -16.45508
 33
        5.62000
999
Building Shading:Mir-IW - MMCHROOF - SURFACE 8 (40)
  0
3DFACE
  8
Building Shading
 62
195
 10
       -5.86571
 20
      -16.45508
 30
        5.62000
 11
        0.23411
 21
      -18.08952
 31
        1.50000
 12
        0.23411
 22
      -18.08952
 32
      -15.00000
 13
        0.23411
 23
      -18.08952
 33
      -15.00000
  0
3DFACE
  8
Building Shading
 62
195
 10
       -5.86571
 20
      -16.45508
 30
        5.62000
 11
        0.23411
 21
      -18.08952
 31
      -15.00000
 12
      -11.96553
 22
      -14.82064
 32
      -15.00000
 13
      -11.96553
 23
      -14.82064
 33
      -15.00000
  0
3DFACE
  8
Building Shading
 62
195
 10
       -5.86571
 20
      -16.45508
 30
        5.62000
 11
      -11.96553
 21
      -14.82064
 31
      -15.00000
 12
      -11.96553
 22
      -14.82064
 32
        1.50000
 13
      -11.96553
 23
      -14.82064
 33
        1.50000
999
Building Shading:IW - MMCHLOWER - SURFACE 1 (41)
  0
3DFACE
  8
Building Shading
 62
195
 10
       22.08968
 20
       35.69656
 30
        0.00000
 11
       22.08968
 21
       35.69656
 31
      -15.00000
 12
       21.65502
 22
       35.81302
 32
      -15.00000
 13
       21.65502
 23
       35.81302
 33
        0.00000
999
Building Shading:Mir-IW - MMCHLOWER - SURFACE 1 (41)
  0
3DFACE
  8
Building Shading
 62
195
 10
       21.65502
 20
       35.81302
 30
        0.00000
 11
       21.65502
 21
       35.81302
 31
      -15.00000
 12
       22.08968
 22
       35.69656
 32
      -15.00000
 13
       22.08968
 23
       35.69656
 33
        0.00000
999
Building Shading:IW - MMCHLOWER - SURFACE 2 (42)
  0
3DFACE
  8
Building Shading
 62
195
 10
       20.70759
 20
       30.53851
 30
      -15.00000
 11
       16.75801
 21
       15.79848
 31
      -15.00000
 12
        9.81300
 22
       17.65939
 32
      -15.00000
 13
       13.76258
 23
       32.39942
 33
      -15.00000
999
Building Shading:Mir-IW - MMCHLOWER - SURFACE 2 (42)
  0
3DFACE
  8
Building Shading
 62
195
 10
       13.76258
 20
       32.39942
 30
      -15.00000
 11
        9.81300
 21
       17.65939
 31
      -15.00000
 12
       16.75801
 22
       15.79848
 32
      -15.00000
 13
       20.70759
 23
       30.53851
 33
      -15.00000
999
Building Shading:IW - MMCHLOWER - SURFACE 3 (43)
  0
3DFACE
  8
Building Shading
 62
195
 10
       13.76258
 20
       32.39942
 30
      -15.00000
 11
        2.69289
 21
       -8.91323
 31
      -15.00000
 12
       -9.50675
 22
       -5.64434
 32
      -15.00000
 13
        1.56294
 23
       35.66830
 33
      -15.00000
999
Building Shading:Mir-IW - MMCHLOWER - SURFACE 3 (43)
  0
3DFACE
  8
Building Shading
 62
195
 10
        1.56294
 20
       35.66830
 30
      -15.00000
 11
       -9.50675
 21
       -5.64434
 31
      -15.00000
 12
        2.69289
 22
       -8.91323
 32
      -15.00000
 13
       13.76258
 23
       32.39942
 33
      -15.00000
999
Building Shading:IW - MMCHLOWER - SURFACE 4 (44)
  0
3DFACE
  8
Building Shading
 62
195
 10
       22.05618
 20
       37.31021
 30
      -15.00000
 11
       21.65502
 21
       35.81302
 31
      -15.00000
 12
        0.77170
 22
       41.40869
 32
      -15.00000
 13
        1.17287
 23
       42.90588
 33
      -15.00000
999
Building Shading:Mir-IW - MMCHLOWER - SURFACE 4 (44)
  0
3DFACE
  8
Building Shading
 62
195
 10
        1.17287
 20
       42.90588
 30
      -15.00000
 11
        0.77170
 21
       41.40869
 31
      -15.00000
 12
       21.65502
 22
       35.81302
 32
      -15.00000
 13
       22.05618
 23
       37.31021
 33
      -15.00000
999
Building Shading:IW - MMCHLOWER - SURFACE 5 (45)
  0
3DFACE
  8
Building Shading
 62
195
 10
       22.08968
 20
       35.69656
 30
      -15.00000
 11
       20.70759
 21
       30.53851
 31
      -15.00000
 12
       -0.61040
 22
       36.25065
 32
      -15.00000
 13
        0.77170
 23
       41.40869
 33
      -15.00000
999
Building Shading:Mir-IW - MMCHLOWER - SURFACE 5 (45)
  0
3DFACE
  8
Building Shading
 62
195
 10
        0.77170
 20
       41.40869
 30
      -15.00000
 11
       -0.61040
 21
       36.25065
 31
      -15.00000
 12
       20.70759
 22
       30.53851
 32
      -15.00000
 13
       22.08968
 23
       35.69656
 33
      -15.00000
999
Building Shading:IW - MMCHLOWER - SURFACE 6 (46)
  0
3DFACE
  8
Building Shading
 62
195
 10
       21.65502
 20
       35.81302
 30
        0.00000
 11
       21.65502
 21
       35.81302
 31
      -15.00000
 12
       22.05618
 22
       37.31021
 32
      -15.00000
 13
       22.05618
 23
       37.31021
 33
        0.00000
999
Building Shading:Mir-IW - MMCHLOWER - SURFACE 6 (46)
  0
3DFACE
  8
Building Shading
 62
195
 10
       22.05618
 20
       37.31021
 30
        0.00000
 11
       22.05618
 21
       37.31021
 31
      -15.00000
 12
       21.65502
 22
       35.81302
 32
      -15.00000
 13
       21.65502
 23
       35.81302
 33
        0.00000
999
Building Shading:IW - MMCHLOWER - SURFACE 7 (47)
  0
3DFACE
  8
Building Shading
 62
195
 10
       21.65502
 20
       35.81302
 30
        0.00000
 11
       16.32334
 21
       15.91495
 31
        0.00000
 12
       16.75801
 22
       15.79848
 32
        0.00000
 13
       22.08968
 23
       35.69656
 33
        0.00000
999
Building Shading:Mir-IW - MMCHLOWER - SURFACE 7 (47)
  0
3DFACE
  8
Building Shading
 62
195
 10
       22.08968
 20
       35.69656
 30
        0.00000
 11
       16.75801
 21
       15.79848
 31
        0.00000
 12
       16.32334
 22
       15.91495
 32
        0.00000
 13
       21.65502
 23
       35.81302
 33
        0.00000
999
Building Shading:IW - MMCHLOWER - SURFACE 8 (48)
  0
3DFACE
  8
Building Shading
 62
195
 10
       -2.38664
 20
       20.92828
 30
        0.00000
 11
       -9.50675
 21
       -5.64434
 31
        0.00000
 12
        2.69289
 22
       -8.91323
 32
        0.00000
 13
        9.81300
 23
       17.65939
 33
        0.00000
999
Building Shading:Mir-IW - MMCHLOWER - SURFACE 8 (48)
  0
3DFACE
  8
Building Shading
 62
195
 10
        9.81300
 20
       17.65939
 30
        0.00000
 11
        2.69289
 21
       -8.91323
 31
        0.00000
 12
       -9.50675
 22
       -5.64434
 32
        0.00000
 13
       -2.38664
 23
       20.92828
 33
        0.00000
999
Building Shading:IW - MMCHLOWER - SURFACE 9 (49)
  0
3DFACE
  8
Building Shading
 62
195
 10
        1.17287
 20
       42.90588
 30
        0.00000
 11
       -0.61040
 21
       36.25065
 31
        0.00000
 12
        1.56294
 22
       35.66830
 32
        0.00000
 13
        3.34620
 23
       42.32353
 33
        0.00000
999
Building Shading:Mir-IW - MMCHLOWER - SURFACE 9 (49)
  0
3DFACE
  8
Building Shading
 62
195
 10
        3.34620
 20
       42.32353
 30
        0.00000
 11
        1.56294
 21
       35.66830
 31
        0.00000
 12
       -0.61040
 22
       36.25065
 32
        0.00000
 13
        1.17287
 23
       42.90588
 33
        0.00000
999
Building Shading:IW - MMCHLOWER - SURFACE 10 (50)
  0
3DFACE
  8
Building Shading
 62
195
 10
        3.34620
 20
       42.32353
 30
        0.00000
 11
       -2.38664
 21
       20.92828
 31
        0.00000
 12
       16.32334
 22
       15.91495
 32
        0.00000
 13
       22.05618
 23
       37.31021
 33
        0.00000
999
Building Shading:Mir-IW - MMCHLOWER - SURFACE 10 (50)
  0
3DFACE
  8
Building Shading
 62
195
 10
       22.05618
 20
       37.31021
 30
        0.00000
 11
       16.32334
 21
       15.91495
 31
        0.00000
 12
       -2.38664
 22
       20.92828
 32
        0.00000
 13
        3.34620
 23
       42.32353
 33
        0.00000
999
Building Shading:IW - MMCHLOWER - SURFACE 11 (51)
  0
3DFACE
  8
Building Shading
 62
195
 10
       16.75801
 20
       15.79848
 30
        0.00000
 11
       16.75801
 21
       15.79848
 31
      -15.00000
 12
       22.08968
 22
       35.69656
 32
      -15.00000
 13
       22.08968
 23
       35.69656
 33
        0.00000
999
Building Shading:Mir-IW - MMCHLOWER - SURFACE 11 (51)
  0
3DFACE
  8
Building Shading
 62
195
 10
       22.08968
 20
       35.69656
 30
        0.00000
 11
       22.08968
 21
       35.69656
 31
      -15.00000
 12
       16.75801
 22
       15.79848
 32
      -15.00000
 13
       16.75801
 23
       15.79848
 33
        0.00000
999
Building Shading:IW - MMCHLOWER - SURFACE 12 (52)
  0
3DFACE
  8
Building Shading
 62
195
 10
        9.81300
 20
       17.65939
 30
        0.00000
 11
        9.81300
 21
       17.65939
 31
      -15.00000
 12
       16.75801
 22
       15.79848
 32
      -15.00000
 13
       16.75801
 23
       15.79848
 33
        0.00000
999
Building Shading:Mir-IW - MMCHLOWER - SURFACE 12 (52)
  0
3DFACE
  8
Building Shading
 62
195
 10
       16.75801
 20
       15.79848
 30
        0.00000
 11
       16.75801
 21
       15.79848
 31
      -15.00000
 12
        9.81300
 22
       17.65939
 32
      -15.00000
 13
        9.81300
 23
       17.65939
 33
        0.00000
999
Building Shading:IW - MMCHLOWER - SURFACE 13 (53)
  0
3DFACE
  8
Building Shading
 62
195
 10
        2.69289
 20
       -8.91323
 30
        0.00000
 11
        2.69289
 21
       -8.91323
 31
      -15.00000
 12
        9.81300
 22
       17.65939
 32
      -15.00000
 13
        9.81300
 23
       17.65939
 33
        0.00000
999
Building Shading:Mir-IW - MMCHLOWER - SURFACE 13 (53)
  0
3DFACE
  8
Building Shading
 62
195
 10
        9.81300
 20
       17.65939
 30
        0.00000
 11
        9.81300
 21
       17.65939
 31
      -15.00000
 12
        2.69289
 22
       -8.91323
 32
      -15.00000
 13
        2.69289
 23
       -8.91323
 33
        0.00000
999
Building Shading:IW - MMCHLOWER - SURFACE 14 (54)
  0
3DFACE
  8
Building Shading
 62
195
 10
       -9.50675
 20
       -5.64434
 30
        0.00000
 11
       -9.50675
 21
       -5.64434
 31
      -15.00000
 12
        2.69289
 22
       -8.91323
 32
      -15.00000
 13
        2.69289
 23
       -8.91323
 33
        0.00000
999
Building Shading:Mir-IW - MMCHLOWER - SURFACE 14 (54)
  0
3DFACE
  8
Building Shading
 62
195
 10
        2.69289
 20
       -8.91323
 30
        0.00000
 11
        2.69289
 21
       -8.91323
 31
      -15.00000
 12
       -9.50675
 22
       -5.64434
 32
      -15.00000
 13
       -9.50675
 23
       -5.64434
 33
        0.00000
999
Building Shading:IW - MMCHLOWER - SURFACE 15 (55)
  0
3DFACE
  8
Building Shading
 62
195
 10
        1.56294
 20
       35.66830
 30
        0.00000
 11
        1.56294
 21
       35.66830
 31
      -15.00000
 12
       -9.50675
 22
       -5.64434
 32
      -15.00000
 13
       -9.50675
 23
       -5.64434
 33
        0.00000
999
Building Shading:Mir-IW - MMCHLOWER - SURFACE 15 (55)
  0
3DFACE
  8
Building Shading
 62
195
 10
       -9.50675
 20
       -5.64434
 30
        0.00000
 11
       -9.50675
 21
       -5.64434
 31
      -15.00000
 12
        1.56294
 22
       35.66830
 32
      -15.00000
 13
        1.56294
 23
       35.66830
 33
        0.00000
999
Building Shading:IW - MMCHLOWER - SURFACE 16 (56)
  0
3DFACE
  8
Building Shading
 62
195
 10
       -0.61040
 20
       36.25065
 30
        0.00000
 11
       -0.61040
 21
       36.25065
 31
      -15.00000
 12
        1.56294
 22
       35.66830
 32
      -15.00000
 13
        1.56294
 23
       35.66830
 33
        0.00000
999
Building Shading:Mir-IW - MMCHLOWER - SURFACE 16 (56)
  0
3DFACE
  8
Building Shading
 62
195
 10
        1.56294
 20
       35.66830
 30
        0.00000
 11
        1.56294
 21
       35.66830
 31
      -15.00000
 12
       -0.61040
 22
       36.25065
 32
      -15.00000
 13
       -0.61040
 23
       36.25065
 33
        0.00000
999
Building Shading:IW - MMCHLOWER - SURFACE 17 (57)
  0
3DFACE
  8
Building Shading
 62
195
 10
        1.17287
 20
       42.90588
 30
        0.00000
 11
        1.17287
 21
       42.90588
 31
      -15.00000
 12
       -0.61040
 22
       36.25065
 32
      -15.00000
 13
       -0.61040
 23
       36.25065
 33
        0.00000
999
Building Shading:Mir-IW - MMCHLOWER - SURFACE 17 (57)
  0
3DFACE
  8
Building Shading
 62
195
 10
       -0.61040
 20
       36.25065
 30
        0.00000
 11
       -0.61040
 21
       36.25065
 31
      -15.00000
 12
        1.17287
 22
       42.90588
 32
      -15.00000
 13
        1.17287
 23
       42.90588
 33
        0.00000
999
Building Shading:IW - MMCHLOWER - SURFACE 18 (58)
  0
3DFACE
  8
Building Shading
 62
195
 10
       22.05618
 20
       37.31021
 30
        0.00000
 11
       22.05618
 21
       37.31021
 31
      -15.00000
 12
        1.17287
 22
       42.90588
 32
      -15.00000
 13
        1.17287
 23
       42.90588
 33
        0.00000
999
Building Shading:Mir-IW - MMCHLOWER - SURFACE 18 (58)
  0
3DFACE
  8
Building Shading
 62
195
 10
        1.17287
 20
       42.90588
 30
        0.00000
 11
        1.17287
 21
       42.90588
 31
      -15.00000
 12
       22.05618
 22
       37.31021
 32
      -15.00000
 13
       22.05618
 23
       37.31021
 33
        0.00000
999
Building Shading:IW - IWCONNECTION - SURFACE 1 (59)
  0
3DFACE
  8
Building Shading
 62
195
 10
       -0.26495
 20
       -4.49721
 30
        0.00000
 11
       -1.22457
 21
       -7.86309
 31
        0.00000
 12
       -3.71108
 22
       -7.19683
 32
        0.00000
 13
       -2.80533
 23
       -3.81652
 33
        0.00000
999
Building Shading:Mir-IW - IWCONNECTION - SURFACE 1 (59)
  0
3DFACE
  8
Building Shading
 62
195
 10
       -2.80533
 20
       -3.81652
 30
        0.00000
 11
       -3.71108
 21
       -7.19683
 31
        0.00000
 12
       -1.22457
 22
       -7.86309
 32
        0.00000
 13
       -0.26495
 23
       -4.49721
 33
        0.00000
999
Building Shading:IW - IWCONNECTION - SURFACE 2 (60)
  0
3DFACE
  8
Building Shading
 62
195
 10
       -2.80533
 20
       -3.81652
 30
        4.12000
 11
       -3.71108
 21
       -7.19683
 31
        4.12000
 12
       -1.22457
 22
       -7.86309
 32
        4.12000
 13
       -0.26495
 23
       -4.49721
 33
        4.12000
999
Building Shading:Mir-IW - IWCONNECTION - SURFACE 2 (60)
  0
3DFACE
  8
Building Shading
 62
195
 10
       -0.26495
 20
       -4.49721
 30
        4.12000
 11
       -1.22457
 21
       -7.86309
 31
        4.12000
 12
       -3.71108
 22
       -7.19683
 32
        4.12000
 13
       -2.80533
 23
       -3.81652
 33
        4.12000
999
Building Shading:IW - IWCONNECTION - SURFACE 3 (61)
  0
3DFACE
  8
Building Shading
 62
195
 10
       -1.22457
 20
       -7.86309
 30
        4.12000
 11
       -1.22457
 21
       -7.86309
 31
        0.00000
 12
       -0.26495
 22
       -4.49721
 32
        0.00000
 13
       -0.26495
 23
       -4.49721
 33
        4.12000
999
Building Shading:Mir-IW - IWCONNECTION - SURFACE 3 (61)
  0
3DFACE
  8
Building Shading
 62
195
 10
       -0.26495
 20
       -4.49721
 30
        4.12000
 11
       -0.26495
 21
       -4.49721
 31
        0.00000
 12
       -1.22457
 22
       -7.86309
 32
        0.00000
 13
       -1.22457
 23
       -7.86309
 33
        4.12000
999
Building Shading:IW - IWCONNECTION - SURFACE 4 (62)
  0
3DFACE
  8
Building Shading
 62
195
 10
       -3.71108
 20
       -7.19683
 30
        4.12000
 11
       -3.71108
 21
       -7.19683
 31
        0.00000
 12
       -1.22457
 22
       -7.86309
 32
        0.00000
 13
       -1.22457
 23
       -7.86309
 33
        4.12000
999
Building Shading:Mir-IW - IWCONNECTION - SURFACE 4 (62)
  0
3DFACE
  8
Building Shading
 62
195
 10
       -1.22457
 20
       -7.86309
 30
        4.12000
 11
       -1.22457
 21
       -7.86309
 31
        0.00000
 12
       -3.71108
 22
       -7.19683
 32
        0.00000
 13
       -3.71108
 23
       -7.19683
 33
        4.12000
999
Building Shading:IW - IWCONNECTION - SURFACE 5 (63)
  0
3DFACE
  8
Building Shading
 62
195
 10
       -2.80533
 20
       -3.81652
 30
        4.12000
 11
       -2.80533
 21
       -3.81652
 31
        0.00000
 12
       -3.71108
 22
       -7.19683
 32
        0.00000
 13
       -3.71108
 23
       -7.19683
 33
        4.12000
999
Building Shading:Mir-IW - IWCONNECTION - SURFACE 5 (63)
  0
3DFACE
  8
Building Shading
 62
195
 10
       -3.71108
 20
       -7.19683
 30
        4.12000
 11
       -3.71108
 21
       -7.19683
 31
        0.00000
 12
       -2.80533
 22
       -3.81652
 32
        0.00000
 13
       -2.80533
 23
       -3.81652
 33
        4.12000
999
Building Shading:IW - IWCONNECTION - SURFACE 6 (64)
  0
3DFACE
  8
Building Shading
 62
195
 10
       -0.26495
 20
       -4.49721
 30
        4.12000
 11
       -0.26495
 21
       -4.49721
 31
        0.00000
 12
       -2.80533
 22
       -3.81652
 32
        0.00000
 13
       -2.80533
 23
       -3.81652
 33
        4.12000
999
Building Shading:Mir-IW - IWCONNECTION - SURFACE 6 (64)
  0
3DFACE
  8
Building Shading
 62
195
 10
       -2.80533
 20
       -3.81652
 30
        4.12000
 11
       -2.80533
 21
       -3.81652
 31
        0.00000
 12
       -0.26495
 22
       -4.49721
 32
        0.00000
 13
       -0.26495
 23
       -4.49721
 33
        4.12000
999
Building Shading:IW - SOUTHPLATFORM0 - SURFACE 2 (65)
  0
3DFACE
  8
Building Shading
 62
195
 10
        3.59876
 20
       -5.53249
 30
        1.02000
 11
        2.71877
 21
       -8.81664
 31
        1.02000
 12
       -1.10210
 22
       -7.79239
 32
        1.02000
 13
       -0.16989
 23
       -4.52268
 33
        1.02000
999
Building Shading:Mir-IW - SOUTHPLATFORM0 - SURFACE 2 (65)
  0
3DFACE
  8
Building Shading
 62
195
 10
       -0.16989
 20
       -4.52268
 30
        1.02000
 11
       -1.10210
 21
       -7.79239
 31
        1.02000
 12
        2.71877
 22
       -8.81664
 32
        1.02000
 13
        3.59876
 23
       -5.53249
 33
        1.02000
999
Building Shading:IW - SOUTHPLATFORM1 - SURFACE 1 (66)
  0
3DFACE
  8
Building Shading
 62
195
 10
       -2.80533
 20
       -3.81652
 30
        1.02000
 11
       -3.68532
 21
       -7.10066
 31
        1.02000
 12
       -8.51494
 22
       -5.80657
 32
        1.02000
 13
       -7.63496
 23
       -2.52242
 33
        1.02000
999
Building Shading:Mir-IW - SOUTHPLATFORM1 - SURFACE 1 (66)
  0
3DFACE
  8
Building Shading
 62
195
 10
       -7.63496
 20
       -2.52242
 30
        1.02000
 11
       -8.51494
 21
       -5.80657
 31
        1.02000
 12
       -3.68532
 22
       -7.10066
 32
        1.02000
 13
       -2.80533
 23
       -3.81652
 33
        1.02000
999
UNDERFLOOR_VOID_SPACE:UNDERFLOOR_VOID_SPACE_WALL_2_0_0
  0
3DFACE
  8
UNDERFLOOR_VOID_SPACE
 62
 43
 10
        3.59876
 20
       -5.53249
 30
        1.12000
 11
        3.59876
 21
       -5.53249
 31
        0.00000
 12
        9.81300
 22
       17.65939
 32
        0.00000
 13
        9.81300
 23
       17.65939
 33
        1.12000
999
UNDERFLOOR_VOID_SPACE:UNDERFLOOR_VOID_SPACE_WALL_2_0_0_0_0_0_SUBSURFACE
  0
3DFACE
  8
UNDERFLOOR_VOID_SPACE
 62
 45
 10
        3.59953
 20
       -5.52959
 30
        0.34700
 11
        3.59953
 21
       -5.52959
 31
        0.00300
 12
        9.81223
 22
       17.65649
 32
        0.00300
 13
        9.81223
 23
       17.65649
 33
        0.34700
999
UNDERFLOOR_VOID_SPACE:UNDERFLOOR_VOID_SPACE_WALL_3_0_0
  0
3DFACE
  8
UNDERFLOOR_VOID_SPACE
 62
 43
 10
        9.81300
 20
       17.65939
 30
        1.12000
 11
        9.81300
 21
       17.65939
 31
        0.00000
 12
       16.75801
 22
       15.79848
 32
        0.00000
 13
       16.75801
 23
       15.79848
 33
        1.12000
999
UNDERFLOOR_VOID_SPACE:UNDERFLOOR_VOID_SPACE_WALL_3_0_0_0_0_0_SUBSURFACE
  0
3DFACE
  8
UNDERFLOOR_VOID_SPACE
 62
 45
 10
        9.81590
 20
       17.65862
 30
        0.34700
 11
        9.81590
 21
       17.65862
 31
        0.00300
 12
       16.75511
 22
       15.79926
 32
        0.00300
 13
       16.75511
 23
       15.79926
 33
        0.34700
999
UNDERFLOOR_VOID_SPACE:UNDERFLOOR_VOID_SPACE_WALL_4_0_0
  0
3DFACE
  8
UNDERFLOOR_VOID_SPACE
 62
 43
 10
       16.75801
 20
       15.79848
 30
        1.12000
 11
       16.75801
 21
       15.79848
 31
        0.00000
 12
       21.93439
 22
       35.11700
 32
        0.00000
 13
       21.93439
 23
       35.11700
 33
        1.12000
999
UNDERFLOOR_VOID_SPACE:UNDERFLOOR_VOID_SPACE_WALL_4_0_0_0_0_0_SUBSURFACE
  0
3DFACE
  8
UNDERFLOOR_VOID_SPACE
 62
 45
 10
       16.75853
 20
       15.80042
 30
        0.34800
 11
       16.75853
 21
       15.80042
 31
        0.00200
 12
       21.93387
 22
       35.11507
 32
        0.00200
 13
       21.93387
 23
       35.11507
 33
        0.34800
999
UNDERFLOOR_VOID_SPACE:UNDERFLOOR_VOID_SPACE_WALL_5_0_0
  0
3DFACE
  8
UNDERFLOOR_VOID_SPACE
 62
 43
 10
       21.93439
 20
       35.11700
 30
        1.12000
 11
       21.93439
 21
       35.11700
 31
        0.00000
 12
        4.72159
 22
       39.72916
 32
        0.00000
 13
        4.72159
 23
       39.72916
 33
        1.12000
999
UNDERFLOOR_VOID_SPACE:UNDERFLOOR_VOID_SPACE_WALL_5_0_0_0_0_0_SUBSURFACE
  0
3DFACE
  8
UNDERFLOOR_VOID_SPACE
 62
 45
 10
       21.93149
 20
       35.11778
 30
        0.34700
 11
       21.93149
 21
       35.11778
 31
        0.00300
 12
        4.72449
 22
       39.72838
 32
        0.00300
 13
        4.72449
 23
       39.72838
 33
        0.34700
999
UNDERFLOOR_VOID_SPACE:UNDERFLOOR_VOID_SPACE_WALL_6_0_0
  0
3DFACE
  8
UNDERFLOOR_VOID_SPACE
 62
 43
 10
        4.72159
 20
       39.72916
 30
        1.12000
 11
        4.72159
 21
       39.72916
 31
        0.00000
 12
       -6.66903
 22
       -2.78124
 32
        0.00000
 13
       -6.66903
 23
       -2.78124
 33
        1.12000
999
UNDERFLOOR_VOID_SPACE:UNDERFLOOR_VOID_SPACE_WALL_6_0_0_0_0_0_SUBSURFACE
  0
3DFACE
  8
UNDERFLOOR_VOID_SPACE
 62
 45
 10
        4.72082
 20
       39.72626
 30
        0.34700
 11
        4.72082
 21
       39.72626
 31
        0.00300
 12
       -6.66826
 22
       -2.77834
 32
        0.00300
 13
       -6.66826
 23
       -2.77834
 33
        0.34700
999
UNDERFLOOR_VOID_SPACE:UNDERFLOOR_VOID_SPACE_PARTITION_7_0_0
  0
3DFACE
  8
UNDERFLOOR_VOID_SPACE
 62
 43
 10
       -2.80533
 20
       -3.81652
 30
        1.12000
 11
       -2.80533
 21
       -3.81652
 31
        0.00000
 12
       -0.26495
 22
       -4.49721
 32
        0.00000
 13
       -0.26495
 23
       -4.49721
 33
        1.12000
999
UNDERFLOOR_VOID_SPACE:UNDERFLOOR_VOID_SPACE_WALL_7_1_0
  0
3DFACE
  8
UNDERFLOOR_VOID_SPACE
 62
 43
 10
       -0.26495
 20
       -4.49721
 30
        1.12000
 11
       -0.26495
 21
       -4.49721
 31
        0.00000
 12
        3.59876
 22
       -5.53249
 32
        0.00000
 13
        3.59876
 23
       -5.53249
 33
        1.12000
999
UNDERFLOOR_VOID_SPACE:UNDERFLOOR_VOID_SPACE_WALL_7_1_1
  0
3DFACE
  8
UNDERFLOOR_VOID_SPACE
 62
 43
 10
       -6.66903
 20
       -2.78124
 30
        1.12000
 11
       -6.66903
 21
       -2.78124
 31
        0.00000
 12
       -2.80533
 22
       -3.81652
 32
        0.00000
 13
       -2.80533
 23
       -3.81652
 33
        1.12000
999
UNDERFLOOR_VOID_SPACE:UNDERFLOOR_VOID_SPACE_FLOOR_0_0_0
  0
3DFACE
  8
UNDERFLOOR_VOID_SPACE
 62
  8
 10
       21.93439
 20
       35.11700
 30
        0.00000
 11
       16.75801
 21
       15.79848
 31
        0.00000
 12
        9.81300
 22
       17.65939
 32
        0.00000
 13
       14.98938
 23
       36.97791
 33
        0.00000
999
UNDERFLOOR_VOID_SPACE:UNDERFLOOR_VOID_SPACE_FLOOR_0_0_1
  0
3DFACE
  8
UNDERFLOOR_VOID_SPACE
 62
  8
 10
       14.98938
 20
       36.97791
 30
        0.00000
 11
        3.59876
 21
       -5.53249
 31
        0.00000
 12
       -6.66903
 22
       -2.78124
 32
        0.00000
 13
        4.72159
 23
       39.72916
 33
        0.00000
999
UNDERFLOOR_VOID_SPACE:UNDERFLOOR_VOID_SPACE_CEILING_CENTRAL
  0
3DFACE
  8
UNDERFLOOR_VOID_SPACE
 62
 15
 10
        7.26730
 20
       28.69427
 30
        1.12000
 11
        4.67911
 21
       19.03502
 31
        1.12000
 12
       12.55601
 22
       16.92441
 32
        1.12000
 13
       15.14420
 23
       26.58366
 33
        1.12000
999
UNDERFLOOR_VOID_SPACE:UNDERFLOOR_VOID_SPACE_CEILING_NEOFF
  0
3DFACE
  8
UNDERFLOOR_VOID_SPACE
 62
 15
 10
       17.73239
 20
       36.24292
 30
        1.12000
 11
       12.55601
 21
       16.92441
 31
        1.12000
 12
       16.75801
 22
       15.79848
 32
        1.12000
 13
       21.93439
 23
       35.11700
 33
        1.12000
999
UNDERFLOOR_VOID_SPACE:UNDERFLOOR_VOID_SPACE_CEILING_SEOFF
  0
3DFACE
  8
UNDERFLOOR_VOID_SPACE
 62
 15
 10
        4.67911
 20
       19.03502
 30
        1.12000
 11
       -1.53514
 21
       -4.15686
 31
        1.12000
 12
        3.59876
 22
       -5.53249
 32
        1.12000
 13
        9.81300
 23
       17.65939
 33
        1.12000
999
UNDERFLOOR_VOID_SPACE:UNDERFLOOR_VOID_SPACE_CEILING_NWOFF
  0
3DFACE
  8
UNDERFLOOR_VOID_SPACE
 62
 15
 10
        2.13340
 20
       30.06990
 30
        1.12000
 11
       -0.45479
 21
       20.41064
 31
        1.12000
 12
        4.67911
 22
       19.03502
 32
        1.12000
 13
        7.26730
 23
       28.69427
 33
        1.12000
999
UNDERFLOOR_VOID_SPACE:UNDERFLOOR_VOID_SPACE_CEILING_SWOFF
  0
3DFACE
  8
UNDERFLOOR_VOID_SPACE
 62
 15
 10
       -0.45479
 20
       20.41064
 30
        1.12000
 11
       -6.66903
 21
       -2.78124
 31
        1.12000
 12
       -1.53514
 22
       -4.15686
 32
        1.12000
 13
        4.67911
 23
       19.03502
 33
        1.12000
999
UNDERFLOOR_VOID_SPACE:UNDERFLOOR_VOID_SPACE_CEILING_LARGECONF
  0
3DFACE
  8
UNDERFLOOR_VOID_SPACE
 62
 15
 10
        4.72159
 20
       39.72916
 30
        1.12000
 11
        2.13340
 21
       30.06990
 31
        1.12000
 12
       15.14420
 22
       26.58366
 32
        1.12000
 13
       17.73239
 23
       36.24292
 33
        1.12000
999
ROOFS1:ROOFS1_FLOOR_0_1_0
  0
3DFACE
  8
ROOFS1
 62
  8
 10
        6.05754
 20
        3.64381
 30
        4.12000
 11
        4.81521
 21
       -0.99264
 31
        4.12000
 12
       -0.31869
 22
        0.38299
 32
        4.12000
 13
        0.92364
 23
        5.01943
 33
        4.12000
999
ROOFS1:ROOFS1_FLOOR_0_1_0_0_0_1_HOLE
  0
3DFACE
  8
ROOFS1
 62
 45
 10
        6.05495
 20
        3.63415
 30
        4.12000
 11
        4.81521
 21
       -0.99264
 31
        4.12000
 12
       -0.31869
 22
        0.38299
 32
        4.12000
 13
        0.92105
 23
        5.00977
 33
        4.12000
999
ROOFS1:ROOFS1_FLOOR_0_2_0
  0
3DFACE
  8
ROOFS1
 62
  8
 10
        0.92364
 20
        5.01943
 30
        4.12000
 11
       -0.31869
 21
        0.38299
 31
        4.12000
 12
       -5.45258
 22
        1.75861
 32
        4.12000
 13
       -4.21025
 23
        6.39505
 33
        4.12000
999
ROOFS1:ROOFS1_ROOF_1_0_0
  0
3DFACE
  8
ROOFS1
 62
 15
 10
       -2.83187
 20
        2.53684
 30
        5.42000
 11
       -5.45258
 21
        1.75861
 31
        4.12000
 12
        4.81521
 22
       -0.99264
 32
        4.12000
 13
        2.67391
 23
        1.06157
 33
        5.42000
999
ROOFS1:ROOFS1_ROOF_2_0_0
  0
3DFACE
  8
ROOFS1
 62
 15
 10
       -2.59893
 20
        3.40617
 30
        5.42000
 11
       -4.21025
 21
        6.39505
 31
        4.12000
 12
       -5.45258
 22
        1.75861
 32
        4.12000
 13
       -2.83187
 23
        2.53684
 33
        5.42000
999
ROOFS1:ROOFS1_ROOF_3_0_0
  0
3DFACE
  8
ROOFS1
 62
 15
 10
        2.67391
 20
        1.06157
 30
        5.42000
 11
        4.81521
 21
       -0.99264
 31
        4.12000
 12
        6.05754
 22
        3.64381
 32
        4.12000
 13
        2.90685
 23
        1.93090
 33
        5.42000
999
ROOFS1:ROOFS1_ROOF_4_0_0
  0
3DFACE
  8
ROOFS1
 62
 15
 10
        2.90685
 20
        1.93090
 30
        5.42000
 11
        6.05754
 21
        3.64381
 31
        4.12000
 12
       -4.21025
 22
        6.39505
 32
        4.12000
 13
       -2.59893
 23
        3.40617
 33
        5.42000
999
ROOFS1:ROOFS1_ROOF_5_0_0
  0
3DFACE
  8
ROOFS1
 62
 15
 10
       -2.59893
 20
        3.40617
 30
        5.42000
 11
       -2.83187
 21
        2.53684
 31
        5.42000
 12
        2.67391
 22
        1.06157
 32
        5.42000
 13
        2.90685
 23
        1.93090
 33
        5.42000
999
ROOFS2:ROOFS2_FLOOR_0_1_0
  0
3DFACE
  8
ROOFS2
 62
  8
 10
        7.29987
 20
        8.28025
 30
        4.12000
 11
        6.05754
 21
        3.64381
 31
        4.12000
 12
        0.92364
 22
        5.01943
 32
        4.12000
 13
        2.16597
 23
        9.65588
 33
        4.12000
999
ROOFS2:ROOFS2_FLOOR_0_1_0_0_0_1_HOLE
  0
3DFACE
  8
ROOFS2
 62
 45
 10
        7.29620
 20
        8.27813
 30
        4.12000
 11
        6.05542
 21
        3.64748
 31
        4.12000
 12
        0.92442
 22
        5.02233
 32
        4.12000
 13
        2.16520
 23
        9.65298
 33
        4.12000
999
ROOFS2:ROOFS2_FLOOR_0_2_0
  0
3DFACE
  8
ROOFS2
 62
  8
 10
        2.16597
 20
        9.65588
 30
        4.12000
 11
        0.92364
 21
        5.01943
 31
        4.12000
 12
       -4.21025
 22
        6.39505
 32
        4.12000
 13
       -2.96792
 23
       11.03150
 33
        4.12000
999
ROOFS2:ROOFS2_FLOOR_0_2_0_0_0_2_HOLE
  0
3DFACE
  8
ROOFS2
 62
 45
 10
        2.16520
 20
        9.65298
 30
        4.12000
 11
        0.92442
 21
        5.02233
 31
        4.12000
 12
       -4.20658
 22
        6.39718
 32
        4.12000
 13
       -2.96580
 23
       11.02782
 33
        4.12000
999
ROOFS2:ROOFS2_ROOF_1_0_0
  0
3DFACE
  8
ROOFS2
 62
 15
 10
       -1.58953
 20
        7.17328
 30
        5.42000
 11
       -4.21025
 21
        6.39505
 31
        4.12000
 12
        6.05754
 22
        3.64381
 32
        4.12000
 13
        3.91624
 23
        5.69801
 33
        5.42000
999
ROOFS2:ROOFS2_ROOF_2_0_0
  0
3DFACE
  8
ROOFS2
 62
 15
 10
       -1.35660
 20
        8.04261
 30
        5.42000
 11
       -2.96792
 21
       11.03150
 31
        4.12000
 12
       -4.21025
 22
        6.39505
 32
        4.12000
 13
       -1.58953
 23
        7.17328
 33
        5.42000
999
ROOFS2:ROOFS2_ROOF_3_0_0
  0
3DFACE
  8
ROOFS2
 62
 15
 10
        3.91624
 20
        5.69801
 30
        5.42000
 11
        6.05754
 21
        3.64381
 31
        4.12000
 12
        7.29987
 22
        8.28025
 32
        4.12000
 13
        4.14918
 23
        6.56735
 33
        5.42000
999
ROOFS2:ROOFS2_ROOF_4_0_0
  0
3DFACE
  8
ROOFS2
 62
 15
 10
        4.14918
 20
        6.56735
 30
        5.42000
 11
        7.29987
 21
        8.28025
 31
        4.12000
 12
       -2.96792
 22
       11.03150
 32
        4.12000
 13
       -1.35660
 23
        8.04261
 33
        5.42000
999
ROOFS2:ROOFS2_ROOF_5_0_0
  0
3DFACE
  8
ROOFS2
 62
 15
 10
       -1.35660
 20
        8.04261
 30
        5.42000
 11
       -1.58953
 21
        7.17328
 31
        5.42000
 12
        3.91624
 22
        5.69801
 32
        5.42000
 13
        4.14918
 23
        6.56735
 33
        5.42000
999
ROOFS3:ROOFS3_FLOOR_0_1_0
  0
3DFACE
  8
ROOFS3
 62
  8
 10
        8.54220
 20
       12.91670
 30
        4.12000
 11
        7.29987
 21
        8.28025
 31
        4.12000
 12
        2.16597
 22
        9.65588
 32
        4.12000
 13
        3.40831
 23
       14.29232
 33
        4.12000
999
ROOFS3:ROOFS3_FLOOR_0_1_0_0_0_1_HOLE
  0
3DFACE
  8
ROOFS3
 62
 45
 10
        8.53853
 20
       12.91458
 30
        4.12000
 11
        7.29775
 21
        8.28393
 31
        4.12000
 12
        2.16675
 22
        9.65877
 32
        4.12000
 13
        3.40753
 23
       14.28942
 33
        4.12000
999
ROOFS3:ROOFS3_FLOOR_0_2_0
  0
3DFACE
  8
ROOFS3
 62
  8
 10
        3.40831
 20
       14.29232
 30
        4.12000
 11
        2.16597
 21
        9.65588
 31
        4.12000
 12
       -2.96792
 22
       11.03150
 32
        4.12000
 13
       -1.72559
 23
       15.66794
 33
        4.12000
999
ROOFS3:ROOFS3_FLOOR_0_2_0_0_0_2_HOLE
  0
3DFACE
  8
ROOFS3
 62
 45
 10
        3.40753
 20
       14.28942
 30
        4.12000
 11
        2.16675
 21
        9.65877
 31
        4.12000
 12
       -2.96425
 22
       11.03362
 32
        4.12000
 13
       -1.72347
 23
       15.66427
 33
        4.12000
999
ROOFS3:ROOFS3_ROOF_1_0_0
  0
3DFACE
  8
ROOFS3
 62
 15
 10
       -0.34720
 20
       11.80972
 30
        5.42000
 11
       -2.96792
 21
       11.03150
 31
        4.12000
 12
        7.29987
 22
        8.28025
 32
        4.12000
 13
        5.15857
 23
       10.33446
 33
        5.42000
999
ROOFS3:ROOFS3_ROOF_2_0_0
  0
3DFACE
  8
ROOFS3
 62
 15
 10
       -0.11427
 20
       12.67906
 30
        5.42000
 11
       -1.72559
 21
       15.66794
 31
        4.12000
 12
       -2.96792
 22
       11.03150
 32
        4.12000
 13
       -0.34720
 23
       11.80972
 33
        5.42000
999
ROOFS3:ROOFS3_ROOF_3_0_0
  0
3DFACE
  8
ROOFS3
 62
 15
 10
        5.15857
 20
       10.33446
 30
        5.42000
 11
        7.29987
 21
        8.28025
 31
        4.12000
 12
        8.54220
 22
       12.91670
 32
        4.12000
 13
        5.39151
 23
       11.20379
 33
        5.42000
999
ROOFS3:ROOFS3_ROOF_4_0_0
  0
3DFACE
  8
ROOFS3
 62
 15
 10
        5.39151
 20
       11.20379
 30
        5.42000
 11
        8.54220
 21
       12.91670
 31
        4.12000
 12
       -1.72559
 22
       15.66794
 32
        4.12000
 13
       -0.11427
 23
       12.67906
 33
        5.42000
999
ROOFS3:ROOFS3_ROOF_5_0_0
  0
3DFACE
  8
ROOFS3
 62
 15
 10
       -0.11427
 20
       12.67906
 30
        5.42000
 11
       -0.34720
 21
       11.80972
 31
        5.42000
 12
        5.15857
 22
       10.33446
 32
        5.42000
 13
        5.39151
 23
       11.20379
 33
        5.42000
999
ROOFS0:ROOFS0_FLOOR_0_1_0
  0
3DFACE
  8
ROOFS0
 62
  8
 10
        4.81521
 20
       -0.99264
 30
        4.12000
 11
        3.59876
 21
       -5.53249
 31
        4.12000
 12
       -1.53514
 22
       -4.15686
 32
        4.12000
 13
       -0.31869
 23
        0.38299
 33
        4.12000
999
ROOFS0:ROOFS0_FLOOR_0_1_0_0_0_1_HOLE
  0
3DFACE
  8
ROOFS0
 62
 45
 10
        4.81153
 20
       -0.99476
 30
        4.12000
 11
        3.59664
 21
       -5.52881
 31
        4.12000
 12
       -1.53436
 22
       -4.15397
 32
        4.12000
 13
       -0.31947
 23
        0.38009
 33
        4.12000
999
ROOFS0:ROOFS0_FLOOR_0_2_0
  0
3DFACE
  8
ROOFS0
 62
  8
 10
       -0.31869
 20
        0.38299
 30
        4.12000
 11
       -1.53514
 21
       -4.15686
 31
        4.12000
 12
       -6.66903
 22
       -2.78124
 32
        4.12000
 13
       -5.45258
 23
        1.75861
 33
        4.12000
999
ROOFS0:ROOFS0_FLOOR_0_2_0_0_0_2_HOLE
  0
3DFACE
  8
ROOFS0
 62
 45
 10
       -0.31947
 20
        0.38009
 30
        4.12000
 11
       -1.53436
 21
       -4.15397
 31
        4.12000
 12
       -6.66536
 22
       -2.77912
 32
        4.12000
 13
       -5.45046
 23
        1.75494
 33
        4.12000
999
ROOFS0:ROOFS0_ROOF_1_0_0
  0
3DFACE
  8
ROOFS0
 62
 15
 10
       -4.04832
 20
       -2.00301
 30
        5.42000
 11
       -6.66903
 21
       -2.78124
 31
        4.12000
 12
        3.59876
 22
       -5.53249
 32
        4.12000
 13
        1.45746
 23
       -3.47828
 33
        5.42000
999
ROOFS0:ROOFS0_ROOF_2_0_0
  0
3DFACE
  8
ROOFS0
 62
 15
 10
       -3.81538
 20
       -1.13368
 30
        5.42000
 11
       -5.45258
 21
        1.75861
 31
        4.12000
 12
       -6.66903
 22
       -2.78124
 32
        4.12000
 13
       -4.04832
 23
       -2.00301
 33
        5.42000
999
ROOFS0:ROOFS0_ROOF_3_0_0
  0
3DFACE
  8
ROOFS0
 62
 15
 10
        1.45746
 20
       -3.47828
 30
        5.42000
 11
        3.59876
 21
       -5.53249
 31
        4.12000
 12
        4.81521
 22
       -0.99264
 32
        4.12000
 13
        1.69040
 23
       -2.60895
 33
        5.42000
999
ROOFS0:ROOFS0_ROOF_4_0_0
  0
3DFACE
  8
ROOFS0
 62
 15
 10
        1.69040
 20
       -2.60895
 30
        5.42000
 11
        4.81521
 21
       -0.99264
 31
        4.12000
 12
       -5.45258
 22
        1.75861
 32
        4.12000
 13
       -3.81538
 23
       -1.13368
 33
        5.42000
999
ROOFS0:ROOFS0_ROOF_5_0_0
  0
3DFACE
  8
ROOFS0
 62
 15
 10
       -3.81538
 20
       -1.13368
 30
        5.42000
 11
       -4.04832
 21
       -2.00301
 31
        5.42000
 12
        1.45746
 22
       -3.47828
 32
        5.42000
 13
        1.69040
 23
       -2.60895
 33
        5.42000
999
ROOFS4:ROOFS4_FLOOR_0_1_0
  0
3DFACE
  8
ROOFS4
 62
  8
 10
        9.81300
 20
       17.65939
 30
        4.12000
 11
        8.54220
 21
       12.91670
 31
        4.12000
 12
        3.40831
 22
       14.29232
 32
        4.12000
 13
        4.67911
 23
       19.03502
 33
        4.12000
999
ROOFS4:ROOFS4_FLOOR_0_1_0_0_0_1_HOLE
  0
3DFACE
  8
ROOFS4
 62
 45
 10
        9.80933
 20
       17.65727
 30
        4.12000
 11
        8.54008
 21
       12.92037
 31
        4.12000
 12
        3.40908
 22
       14.29522
 32
        4.12000
 13
        4.67833
 23
       19.03212
 33
        4.12000
999
ROOFS4:ROOFS4_FLOOR_0_2_0
  0
3DFACE
  8
ROOFS4
 62
  8
 10
        4.67911
 20
       19.03502
 30
        4.12000
 11
        3.40831
 21
       14.29232
 31
        4.12000
 12
       -1.72559
 22
       15.66794
 32
        4.12000
 13
       -0.45479
 23
       20.41064
 33
        4.12000
999
ROOFS4:ROOFS4_FLOOR_0_2_0_0_0_2_HOLE
  0
3DFACE
  8
ROOFS4
 62
 45
 10
        4.67833
 20
       19.03212
 30
        4.12000
 11
        3.40908
 21
       14.29522
 31
        4.12000
 12
       -1.72192
 22
       15.67006
 32
        4.12000
 13
       -0.45267
 23
       20.40696
 33
        4.12000
999
ROOFS4:ROOFS4_ROOF_1_0_0
  0
3DFACE
  8
ROOFS4
 62
 15
 10
        1.14359
 20
       17.37346
 30
        5.42000
 11
       -0.45479
 21
       20.41064
 31
        4.12000
 12
       -1.72559
 22
       15.66794
 32
        4.12000
 13
        0.91066
 23
       16.50412
 33
        5.42000
999
ROOFS4:ROOFS4_ROOF_2_0_0
  0
3DFACE
  8
ROOFS4
 62
 15
 10
        0.91066
 20
       16.50412
 30
        5.42000
 11
       -1.72559
 21
       15.66794
 31
        4.12000
 12
        8.54220
 22
       12.91670
 32
        4.12000
 13
        6.41643
 23
       15.02886
 33
        5.42000
999
ROOFS4:ROOFS4_ROOF_3_0_0
  0
3DFACE
  8
ROOFS4
 62
 15
 10
        6.41643
 20
       15.02886
 30
        5.42000
 11
        8.54220
 21
       12.91670
 31
        4.12000
 12
        9.81300
 22
       17.65939
 32
        4.12000
 13
        6.64937
 23
       15.89819
 33
        5.42000
999
ROOFS4:ROOFS4_ROOF_4_0_0
  0
3DFACE
  8
ROOFS4
 62
 15
 10
        6.64937
 20
       15.89819
 30
        5.42000
 11
        9.81300
 21
       17.65939
 31
        4.12000
 12
       -0.45479
 22
       20.41064
 32
        4.12000
 13
        1.14359
 23
       17.37346
 33
        5.42000
999
ROOFS4:ROOFS4_ROOF_5_0_0
  0
3DFACE
  8
ROOFS4
 62
 15
 10
        1.14359
 20
       17.37346
 30
        5.42000
 11
        0.91066
 21
       16.50412
 31
        5.42000
 12
        6.41643
 22
       15.02886
 32
        5.42000
 13
        6.64937
 23
       15.89819
 33
        5.42000
999
ROOFN0:ROOFN0_FLOOR_0_1_0
  0
3DFACE
  8
ROOFN0
 62
  8
 10
       13.85010
 20
       21.75403
 30
        4.12000
 11
       12.55601
 21
       16.92441
 31
        4.12000
 12
        4.67911
 22
       19.03502
 32
        4.12000
 13
        5.97320
 23
       23.86464
 33
        4.12000
999
ROOFN0:ROOFN0_FLOOR_0_1_0_0_0_1_HOLE
  0
3DFACE
  8
ROOFN0
 62
 45
 10
       13.84045
 20
       21.75662
 30
        4.12000
 11
       12.54635
 21
       16.92699
 31
        4.12000
 12
        4.67911
 22
       19.03502
 32
        4.12000
 13
        5.97320
 23
       23.86464
 33
        4.12000
999
ROOFN0:ROOFN0_FLOOR_0_2_0
  0
3DFACE
  8
ROOFN0
 62
  8
 10
        5.97320
 20
       23.86464
 30
        4.12000
 11
        4.67911
 21
       19.03502
 31
        4.12000
 12
       -0.45479
 22
       20.41064
 32
        4.12000
 13
        0.83931
 23
       25.24027
 33
        4.12000
999
ROOFN0:ROOFN0_FLOOR_0_2_0_0_0_2_HOLE
  0
3DFACE
  8
ROOFN0
 62
 45
 10
        4.94082
 20
       24.13817
 30
        4.12000
 11
        3.64827
 21
       19.31433
 31
        4.12000
 12
       -0.45111
 22
       20.41276
 32
        4.12000
 13
        0.84143
 23
       25.23659
 33
        4.12000
999
ROOFN0:ROOFN0_FLOOR_0_3_0
  0
3DFACE
  8
ROOFN0
 62
  8
 10
       18.05210
 20
       20.62811
 30
        4.12000
 11
       16.75801
 21
       15.79848
 31
        4.12000
 12
       12.55601
 22
       16.92441
 32
        4.12000
 13
       13.85010
 23
       21.75403
 33
        4.12000
999
ROOFN0:ROOFN0_FLOOR_0_3_0_HOLE
  0
3DFACE
  8
ROOFN0
 62
 45
 10
       18.05210
 20
       20.62811
 30
        4.12000
 11
       16.75801
 21
       15.79848
 31
        4.12000
 12
       12.56567
 22
       16.92182
 32
        4.12000
 13
       13.85976
 23
       21.75145
 33
        4.12000
999
ROOFN0:ROOFN0_ROOF_1_0_0
  0
3DFACE
  8
ROOFN0
 62
 15
 10
        2.40233
 20
       22.26432
 30
        5.42000
 11
        0.83931
 21
       25.24027
 31
        4.12000
 12
       -0.45479
 22
       20.41064
 32
        4.12000
 13
        2.16940
 23
       21.39499
 33
        5.42000
999
ROOFN0:ROOFN0_ROOF_2_0_0
  0
3DFACE
  8
ROOFN0
 62
 15
 10
        2.16940
 20
       21.39499
 30
        5.42000
 11
       -0.45479
 21
       20.41064
 31
        4.12000
 12
       16.75801
 22
       15.79848
 32
        4.12000
 13
       14.53325
 23
       18.08211
 33
        5.42000
999
ROOFN0:ROOFN0_ROOF_2_0_0_0_0_0_WIN
  0
3DFACE
  8
ROOFN0
 62
143
 10
       11.46833
 20
       18.42798
 30
        5.05379
 11
       11.25385
 21
       17.62751
 31
        4.39285
 12
       12.89592
 22
       17.18751
 32
        4.39285
 13
       13.11041
 23
       17.98799
 33
        5.05379
999
ROOFN0:ROOFN0_ROOF_2_0_0_1_0_1_WIN
  0
3DFACE
  8
ROOFN0
 62
143
 10
        9.43989
 20
       18.97150
 30
        5.05379
 11
        9.22540
 21
       18.17103
 31
        4.39285
 12
       10.86747
 22
       17.73103
 32
        4.39285
 13
       11.08196
 23
       18.53151
 33
        5.05379
999
ROOFN0:ROOFN0_ROOF_2_0_0_2_0_2_WIN
  0
3DFACE
  8
ROOFN0
 62
143
 10
        7.41144
 20
       19.51502
 30
        5.05379
 11
        7.19696
 21
       18.71455
 31
        4.39285
 12
        8.83903
 22
       18.27455
 32
        4.39285
 13
        9.05352
 23
       19.07503
 33
        5.05379
999
ROOFN0:ROOFN0_ROOF_2_0_0_3_0_3_WIN
  0
3DFACE
  8
ROOFN0
 62
143
 10
        5.38300
 20
       20.05854
 30
        5.05379
 11
        5.16851
 21
       19.25807
 31
        4.39285
 12
        6.81059
 22
       18.81807
 32
        4.39285
 13
        7.02507
 23
       19.61855
 33
        5.05379
999
ROOFN0:ROOFN0_ROOF_2_0_0_4_0_4_WIN
  0
3DFACE
  8
ROOFN0
 62
143
 10
        3.35455
 20
       20.60206
 30
        5.05379
 11
        3.14007
 21
       19.80159
 31
        4.39285
 12
        4.78214
 22
       19.36159
 32
        4.39285
 13
        4.99663
 23
       20.16207
 33
        5.05379
999
ROOFN0:ROOFN0_ROOF_3_0_0
  0
3DFACE
  8
ROOFN0
 62
 15
 10
       14.53325
 20
       18.08211
 30
        5.42000
 11
       16.75801
 21
       15.79848
 31
        4.12000
 12
       18.05210
 22
       20.62811
 32
        4.12000
 13
       14.76618
 23
       18.95144
 33
        5.42000
999
ROOFN0:ROOFN0_ROOF_4_0_0
  0
3DFACE
  8
ROOFN0
 62
 15
 10
       14.76618
 20
       18.95144
 30
        5.42000
 11
       18.05210
 21
       20.62811
 31
        4.12000
 12
        0.83931
 22
       25.24027
 32
        4.12000
 13
        2.40233
 23
       22.26432
 33
        5.42000
999
ROOFN0:ROOFN0_ROOF_4_0_0_0_0_0_WIN
  0
3DFACE
  8
ROOFN0
 62
143
 10
        5.48153
 20
       21.97173
 30
        5.14930
 11
        5.79301
 21
       23.13421
 31
        4.51588
 12
        4.15094
 22
       23.57420
 32
        4.51588
 13
        3.83945
 23
       22.41172
 33
        5.14930
999
ROOFN0:ROOFN0_ROOF_4_0_0_1_0_1_WIN
  0
3DFACE
  8
ROOFN0
 62
143
 10
        7.50997
 20
       21.42821
 30
        5.14930
 11
        7.82146
 21
       22.59069
 31
        4.51588
 12
        6.17938
 22
       23.03068
 32
        4.51588
 13
        5.86790
 23
       21.86820
 33
        5.14930
999
ROOFN0:ROOFN0_ROOF_4_0_0_2_0_2_WIN
  0
3DFACE
  8
ROOFN0
 62
143
 10
        9.53841
 20
       20.88469
 30
        5.14930
 11
        9.84990
 21
       22.04717
 31
        4.51588
 12
        8.20783
 22
       22.48716
 32
        4.51588
 13
        7.89634
 23
       21.32468
 33
        5.14930
999
ROOFN0:ROOFN0_ROOF_4_0_0_3_0_3_WIN
  0
3DFACE
  8
ROOFN0
 62
143
 10
       11.56686
 20
       20.34117
 30
        5.14930
 11
       11.87835
 21
       21.50365
 31
        4.51588
 12
       10.23627
 22
       21.94364
 32
        4.51588
 13
        9.92479
 23
       20.78116
 33
        5.14930
999
ROOFN0:ROOFN0_ROOF_4_0_0_4_0_4_WIN
  0
3DFACE
  8
ROOFN0
 62
143
 10
       13.59530
 20
       19.79765
 30
        5.14930
 11
       13.90679
 21
       20.96013
 31
        4.51588
 12
       12.26472
 22
       21.40012
 32
        4.51588
 13
       11.95323
 23
       20.23764
 33
        5.14930
999
ROOFN0:ROOFN0_ROOF_5_0_0
  0
3DFACE
  8
ROOFN0
 62
 15
 10
        2.40233
 20
       22.26432
 30
        5.42000
 11
        2.16940
 21
       21.39499
 31
        5.42000
 12
       14.53325
 22
       18.08211
 32
        5.42000
 13
       14.76618
 23
       18.95144
 33
        5.42000
999
ROOFN3:ROOFN3_FLOOR_0_0_0
  0
3DFACE
  8
ROOFN3
 62
  8
 10
       17.73239
 20
       36.24292
 30
        4.12000
 11
       16.43927
 21
       31.41694
 31
        4.12000
 12
        3.42847
 22
       34.90318
 32
        4.12000
 13
        4.72159
 23
       39.72916
 33
        4.12000
999
ROOFN3:ROOFN3_FLOOR_0_0_0_0_0_0_HOLE
  0
3DFACE
  8
ROOFN3
 62
 45
 10
       17.72872
 20
       36.24080
 30
        4.12000
 11
       16.43715
 21
       31.42062
 31
        4.12000
 12
        3.43215
 22
       34.90530
 32
        4.12000
 13
        4.72371
 23
       39.72548
 33
        4.12000
999
ROOFN3:ROOFN3_FLOOR_0_1_0
  0
3DFACE
  8
ROOFN3
 62
  8
 10
       21.93417
 20
       35.11706
 30
        4.12000
 11
       20.64127
 21
       30.29102
 31
        4.12000
 12
       16.43927
 22
       31.41694
 32
        4.12000
 13
       17.73239
 23
       36.24292
 33
        4.12000
999
ROOFN3:ROOFN3_FLOOR_0_1_0_0_0_1_HOLE
  0
3DFACE
  8
ROOFN3
 62
 45
 10
       21.93172
 20
       35.11564
 30
        4.12000
 11
       20.63964
 21
       30.29353
 31
        4.12000
 12
       16.44172
 22
       31.41836
 32
        4.12000
 13
       17.73380
 23
       36.24047
 33
        4.12000
999
ROOFN3:ROOFN3_ROOF_1_0_0
  0
3DFACE
  8
ROOFN3
 62
 15
 10
        6.28462
 20
       36.75321
 30
        5.42000
 11
        4.72159
 21
       39.72916
 31
        4.12000
 12
        3.42750
 22
       34.89953
 32
        4.12000
 13
        6.05168
 23
       35.88388
 33
        5.42000
999
ROOFN3:ROOFN3_ROOF_2_0_0
  0
3DFACE
  8
ROOFN3
 62
 15
 10
        6.05168
 20
       35.88388
 30
        5.42000
 11
        3.42750
 21
       34.89953
 31
        4.12000
 12
       20.64029
 22
       30.28737
 32
        4.12000
 13
       18.41553
 23
       32.57099
 33
        5.42000
999
ROOFN3:ROOFN3_ROOF_3_0_0
  0
3DFACE
  8
ROOFN3
 62
 15
 10
       18.41553
 20
       32.57099
 30
        5.42000
 11
       20.64029
 21
       30.28737
 31
        4.12000
 12
       21.93439
 22
       35.11700
 32
        4.12000
 13
       18.64847
 23
       33.44033
 33
        5.42000
999
ROOFN3:ROOFN3_ROOF_4_0_0
  0
3DFACE
  8
ROOFN3
 62
 15
 10
       18.64847
 20
       33.44033
 30
        5.42000
 11
       21.93439
 21
       35.11700
 31
        4.12000
 12
        4.72159
 22
       39.72916
 32
        4.12000
 13
        6.28462
 23
       36.75321
 33
        5.42000
999
ROOFN3:ROOFN3_ROOF_5_0_0
  0
3DFACE
  8
ROOFN3
 62
 15
 10
        6.28462
 20
       36.75321
 30
        5.42000
 11
        6.05168
 21
       35.88388
 31
        5.42000
 12
       18.41553
 22
       32.57099
 32
        5.42000
 13
       18.64847
 23
       33.44033
 33
        5.42000
999
ROOFN1:ROOFN1_FLOOR_0_1_0
  0
3DFACE
  8
ROOFN1
 62
  8
 10
       15.14420
 20
       26.58366
 30
        4.12000
 11
       13.85010
 21
       21.75403
 31
        4.12000
 12
        5.97320
 22
       23.86464
 32
        4.12000
 13
        7.26730
 23
       28.69427
 33
        4.12000
999
ROOFN1:ROOFN1_FLOOR_0_1_0_0_0_1_HOLE
  0
3DFACE
  8
ROOFN1
 62
 45
 10
       15.14053
 20
       26.58154
 30
        4.12000
 11
       13.84798
 21
       21.75771
 31
        4.12000
 12
        6.99762
 22
       23.59326
 32
        4.12000
 13
        8.29016
 23
       28.41709
 33
        4.12000
999
ROOFN1:ROOFN1_FLOOR_0_2_0
  0
3DFACE
  8
ROOFN1
 62
  8
 10
       19.34620
 20
       25.45774
 30
        4.12000
 11
       18.05210
 21
       20.62811
 31
        4.12000
 12
       13.85010
 22
       21.75403
 32
        4.12000
 13
       15.14420
 23
       26.58366
 33
        4.12000
999
ROOFN1:ROOFN1_FLOOR_0_2_0_0_0_2_HOLE
  0
3DFACE
  8
ROOFN1
 62
 45
 10
       19.34253
 20
       25.45562
 30
        4.12000
 11
       18.04998
 21
       20.63179
 31
        4.12000
 12
       14.82465
 22
       21.49601
 32
        4.12000
 13
       16.11719
 23
       26.31985
 33
        4.12000
999
ROOFN1:ROOFN1_FLOOR_0_3_0
  0
3DFACE
  8
ROOFN1
 62
  8
 10
        7.26730
 20
       28.69427
 30
        4.12000
 11
        5.97320
 21
       23.86464
 31
        4.12000
 12
        0.83931
 22
       25.24027
 32
        4.12000
 13
        2.13340
 23
       30.06990
 33
        4.12000
999
ROOFN1:ROOFN1_FLOOR_0_3_0_0_0_3_HOLE
  0
3DFACE
  8
ROOFN1
 62
 45
 10
        6.23491
 20
       28.96779
 30
        4.12000
 11
        4.94237
 21
       24.14396
 31
        4.12000
 12
        0.84298
 22
       25.24239
 32
        4.12000
 13
        2.13552
 23
       30.06622
 33
        4.12000
999
ROOFN1:ROOFN1_ROOF_1_0_0
  0
3DFACE
  8
ROOFN1
 62
 15
 10
        3.69643
 20
       27.09395
 30
        5.42000
 11
        2.13340
 21
       30.06990
 31
        4.12000
 12
        0.83931
 22
       25.24027
 32
        4.12000
 13
        3.46349
 23
       26.22462
 33
        5.42000
999
ROOFN1:ROOFN1_ROOF_2_0_0
  0
3DFACE
  8
ROOFN1
 62
 15
 10
        3.46349
 20
       26.22462
 30
        5.42000
 11
        0.83931
 21
       25.24027
 31
        4.12000
 12
       18.05210
 22
       20.62811
 32
        4.12000
 13
       15.82734
 23
       22.91174
 33
        5.42000
999
ROOFN1:ROOFN1_ROOF_2_0_0_0_0_0_WIN
  0
3DFACE
  8
ROOFN1
 62
143
 10
       10.73398
 20
       23.80113
 30
        5.05379
 11
       10.51950
 21
       23.00065
 31
        4.39285
 12
       12.16157
 22
       22.56066
 32
        4.39285
 13
       12.37606
 23
       23.36114
 33
        5.05379
999
ROOFN1:ROOFN1_ROOF_2_0_0_1_0_1_WIN
  0
3DFACE
  8
ROOFN1
 62
143
 10
        8.70554
 20
       24.34465
 30
        5.05379
 11
        8.49105
 21
       23.54417
 31
        4.39285
 12
       10.13313
 22
       23.10418
 32
        4.39285
 13
       10.34761
 23
       23.90466
 33
        5.05379
999
ROOFN1:ROOFN1_ROOF_2_0_0_2_0_2_WIN
  0
3DFACE
  8
ROOFN1
 62
143
 10
        6.67709
 20
       24.88817
 30
        5.05379
 11
        6.46261
 21
       24.08769
 31
        4.39285
 12
        8.10468
 22
       23.64770
 32
        4.39285
 13
        8.31917
 23
       24.44818
 33
        5.05379
999
ROOFN1:ROOFN1_ROOF_3_0_0
  0
3DFACE
  8
ROOFN1
 62
 15
 10
       15.82734
 20
       22.91174
 30
        5.42000
 11
       18.05210
 21
       20.62811
 31
        4.12000
 12
       19.34620
 22
       25.45774
 32
        4.12000
 13
       16.06028
 23
       23.78107
 33
        5.42000
999
ROOFN1:ROOFN1_ROOF_4_0_0
  0
3DFACE
  8
ROOFN1
 62
 15
 10
       16.06028
 20
       23.78107
 30
        5.42000
 11
       19.34620
 21
       25.45774
 31
        4.12000
 12
        2.13340
 22
       30.06990
 32
        4.12000
 13
        3.69643
 23
       27.09395
 33
        5.42000
999
ROOFN1:ROOFN1_ROOF_4_0_0_0_0_0_WIN
  0
3DFACE
  8
ROOFN1
 62
143
 10
        8.80407
 20
       26.25784
 30
        5.14930
 11
        9.11555
 21
       27.42032
 31
        4.51588
 12
        7.47348
 22
       27.86031
 32
        4.51588
 13
        7.16199
 23
       26.69783
 33
        5.14930
999
ROOFN1:ROOFN1_ROOF_4_0_0_1_0_1_WIN
  0
3DFACE
  8
ROOFN1
 62
143
 10
       10.83251
 20
       25.71432
 30
        5.14930
 11
       11.14400
 21
       26.87680
 31
        4.51588
 12
        9.50192
 22
       27.31679
 32
        4.51588
 13
        9.19044
 23
       26.15431
 33
        5.14930
999
ROOFN1:ROOFN1_ROOF_4_0_0_2_0_2_WIN
  0
3DFACE
  8
ROOFN1
 62
143
 10
       12.86095
 20
       25.17080
 30
        5.14930
 11
       13.17244
 21
       26.33328
 31
        4.51588
 12
       11.53037
 22
       26.77327
 32
        4.51588
 13
       11.21888
 23
       25.61079
 33
        5.14930
999
ROOFN1:ROOFN1_ROOF_5_0_0
  0
3DFACE
  8
ROOFN1
 62
 15
 10
        3.69643
 20
       27.09395
 30
        5.42000
 11
        3.46349
 21
       26.22462
 31
        5.42000
 12
       15.82734
 22
       22.91174
 32
        5.42000
 13
       16.06028
 23
       23.78107
 33
        5.42000
999
ROOFN2:ROOFN2_FLOOR_0_0_0
  0
3DFACE
  8
ROOFN2
 62
  8
 10
       16.43830
 20
       31.41329
 30
        4.12000
 11
       15.14420
 21
       26.58366
 31
        4.12000
 12
        2.13340
 22
       30.06990
 32
        4.12000
 13
        3.42750
 23
       34.89953
 33
        4.12000
999
ROOFN2:ROOFN2_FLOOR_0_0_0_0_0_0_HOLE
  0
3DFACE
  8
ROOFN2
 62
 45
 10
       16.43462
 20
       31.41117
 30
        4.12000
 11
       15.14208
 21
       26.58734
 31
        4.12000
 12
        2.13708
 22
       30.07202
 32
        4.12000
 13
        3.42962
 23
       34.89585
 33
        4.12000
999
ROOFN2:ROOFN2_FLOOR_0_1_0
  0
3DFACE
  8
ROOFN2
 62
  8
 10
       20.64029
 20
       30.28737
 30
        4.12000
 11
       19.34620
 21
       25.45774
 31
        4.12000
 12
       15.14420
 22
       26.58366
 32
        4.12000
 13
       16.43830
 23
       31.41329
 33
        4.12000
999
ROOFN2:ROOFN2_FLOOR_0_1_0_0_0_1_HOLE
  0
3DFACE
  8
ROOFN2
 62
 45
 10
       20.63662
 20
       30.28525
 30
        4.12000
 11
       19.34408
 21
       25.46142
 31
        4.12000
 12
       15.14787
 22
       26.58579
 32
        4.12000
 13
       16.44042
 23
       31.40962
 33
        4.12000
999
ROOFN2:ROOFN2_ROOF_1_0_0
  0
3DFACE
  8
ROOFN2
 62
 15
 10
        4.99052
 20
       31.92358
 30
        5.42000
 11
        3.42750
 21
       34.89953
 31
        4.12000
 12
        2.13340
 22
       30.06990
 32
        4.12000
 13
        4.75759
 23
       31.05425
 33
        5.42000
999
ROOFN2:ROOFN2_ROOF_2_0_0
  0
3DFACE
  8
ROOFN2
 62
 15
 10
        4.75759
 20
       31.05425
 30
        5.42000
 11
        2.13340
 21
       30.06990
 31
        4.12000
 12
       19.34620
 22
       25.45774
 32
        4.12000
 13
       17.12144
 23
       27.74136
 33
        5.42000
999
ROOFN2:ROOFN2_ROOF_2_0_0_0_0_0_WIN
  0
3DFACE
  8
ROOFN2
 62
143
 10
       12.02808
 20
       28.63076
 30
        5.05379
 11
       11.81359
 21
       27.83028
 31
        4.39285
 12
       13.45567
 22
       27.39029
 32
        4.39285
 13
       13.67015
 23
       28.19077
 33
        5.05379
999
ROOFN2:ROOFN2_ROOF_2_0_0_1_0_1_WIN
  0
3DFACE
  8
ROOFN2
 62
143
 10
        9.99963
 20
       29.17428
 30
        5.05379
 11
        9.78515
 21
       28.37380
 31
        4.39285
 12
       11.42722
 22
       27.93381
 32
        4.39285
 13
       11.64171
 23
       28.73429
 33
        5.05379
999
ROOFN2:ROOFN2_ROOF_2_0_0_2_0_2_WIN
  0
3DFACE
  8
ROOFN2
 62
143
 10
        7.97119
 20
       29.71780
 30
        5.05379
 11
        7.75670
 21
       28.91732
 31
        4.39285
 12
        9.39878
 22
       28.47733
 32
        4.39285
 13
        9.61326
 23
       29.27781
 33
        5.05379
999
ROOFN2:ROOFN2_ROOF_3_0_0
  0
3DFACE
  8
ROOFN2
 62
 15
 10
       17.12144
 20
       27.74136
 30
        5.42000
 11
       19.34620
 21
       25.45774
 31
        4.12000
 12
       20.64029
 22
       30.28737
 32
        4.12000
 13
       17.35438
 23
       28.61070
 33
        5.42000
999
ROOFN2:ROOFN2_ROOF_4_0_0
  0
3DFACE
  8
ROOFN2
 62
 15
 10
       17.35438
 20
       28.61070
 30
        5.42000
 11
       20.64029
 21
       30.28737
 31
        4.12000
 12
        3.42750
 22
       34.89953
 32
        4.12000
 13
        4.99052
 23
       31.92358
 33
        5.42000
999
ROOFN2:ROOFN2_ROOF_4_0_0_0_0_0_WIN
  0
3DFACE
  8
ROOFN2
 62
143
 10
       10.09816
 20
       31.08747
 30
        5.14930
 11
       10.40965
 21
       32.24995
 31
        4.51588
 12
        8.76757
 22
       32.68994
 32
        4.51588
 13
        8.45609
 23
       31.52746
 33
        5.14930
999
ROOFN2:ROOFN2_ROOF_4_0_0_1_0_1_WIN
  0
3DFACE
  8
ROOFN2
 62
143
 10
       12.12661
 20
       30.54395
 30
        5.14930
 11
       12.43809
 21
       31.70643
 31
        4.51588
 12
       10.79602
 22
       32.14642
 32
        4.51588
 13
       10.48453
 23
       30.98394
 33
        5.14930
999
ROOFN2:ROOFN2_ROOF_4_0_0_2_0_2_WIN
  0
3DFACE
  8
ROOFN2
 62
143
 10
       14.15505
 20
       30.00043
 30
        5.14930
 11
       14.46654
 21
       31.16291
 31
        4.51588
 12
       12.82446
 22
       31.60290
 32
        4.51588
 13
       12.51298
 23
       30.44042
 33
        5.14930
999
ROOFN2:ROOFN2_ROOF_5_0_0
  0
3DFACE
  8
ROOFN2
 62
 15
 10
        4.99052
 20
       31.92358
 30
        5.42000
 11
        4.75759
 21
       31.05425
 31
        5.42000
 12
       17.12144
 22
       27.74136
 32
        5.42000
 13
       17.35438
 23
       28.61070
 33
        5.42000
999
SWOFF:SWOFF_PARTITION_EAST
  0
3DFACE
  8
SWOFF
 62
 43
 10
        4.67911
 20
       19.03502
 30
        1.12000
 11
        4.67911
 21
       19.03502
 31
        4.12000
 12
       -1.53514
 22
       -4.15686
 32
        4.12000
 13
       -1.53514
 23
       -4.15686
 33
        1.12000
999
SWOFF:SWOFF_PARTITION_EAST_HOLE
  0
3DFACE
  8
SWOFF
 62
 45
 10
        4.67911
 20
       19.03502
 30
        1.12000
 11
        4.67911
 21
       19.03502
 31
        4.12000
 12
       -1.53255
 22
       -4.14720
 32
        4.12000
 13
       -1.53255
 23
       -4.14720
 33
        1.12000
999
SWOFF:SWOFF_PARTITION_NORTH
  0
3DFACE
  8
SWOFF
 62
 43
 10
        4.67911
 20
       19.03502
 30
        1.12000
 11
        4.67911
 21
       19.03502
 31
        4.12000
 12
       -0.45479
 22
       20.41064
 32
        4.12000
 13
       -0.45479
 23
       20.41064
 33
        1.12000
999
SWOFF:SWOFF_PARTITION_NORTH_HOLE
  0
3DFACE
  8
SWOFF
 62
 45
 10
        4.66945
 20
       19.03760
 30
        1.12000
 11
        4.66945
 21
       19.03760
 31
        4.12000
 12
       -0.45479
 22
       20.41064
 32
        4.12000
 13
       -0.45479
 23
       20.41064
 33
        1.12000
999
SWOFF:SWOFF_WALL_WEST_TOP_MULL
  0
3DFACE
  8
SWOFF
 62
 43
 10
       -0.45479
 20
       20.41064
 30
        4.12000
 11
       -0.45479
 21
       20.41064
 31
        3.92000
 12
       -6.66903
 22
       -2.78124
 32
        3.92000
 13
       -6.66903
 23
       -2.78124
 33
        4.12000
999
SWOFF:SWOFF_WALL_WEST_BOT_MULL
  0
3DFACE
  8
SWOFF
 62
 43
 10
       -0.45479
 20
       20.41064
 30
        1.52000
 11
       -0.45479
 21
       20.41064
 31
        1.12000
 12
       -6.66903
 22
       -2.78124
 32
        1.12000
 13
       -6.66903
 23
       -2.78124
 33
        1.52000
999
SWOFF:SWOFF_WALL_WEST_MID
  0
3DFACE
  8
SWOFF
 62
 43
 10
       -0.45479
 20
       20.41064
 30
        3.92000
 11
       -0.45479
 21
       20.41064
 31
        1.52000
 12
       -6.66903
 22
       -2.78124
 32
        1.52000
 13
       -6.66903
 23
       -2.78124
 33
        3.92000
999
SWOFF:SWOFF_WALL_WEST_WIN_TOP
  0
3DFACE
  8
SWOFF
 62
143
 10
       -0.48067
 20
       20.31405
 30
        3.86800
 11
       -0.48067
 21
       20.31405
 31
        2.84200
 12
       -6.64315
 22
       -2.68465
 32
        2.84200
 13
       -6.64315
 23
       -2.68465
 33
        3.86800
999
SWOFF:SWOFF_WALL_WEST_WIN_BOT
  0
3DFACE
  8
SWOFF
 62
143
 10
       -0.48067
 20
       20.31405
 30
        2.73800
 11
       -0.48067
 21
       20.31405
 31
        2.27200
 12
       -6.64315
 22
       -2.68465
 32
        2.27200
 13
       -6.64315
 23
       -2.68465
 33
        2.73800
999
SWOFF:SWOFF_WALL_SOUTH_MID
  0
3DFACE
  8
SWOFF
 62
 43
 10
       -6.66903
 20
       -2.78124
 30
        3.92000
 11
       -6.66903
 21
       -2.78124
 31
        1.52000
 12
       -2.80533
 22
       -3.81652
 32
        1.52000
 13
       -2.80533
 23
       -3.81652
 33
        3.92000
999
SWOFF:SWOFF_WALL_SOUTH_WIN
  0
3DFACE
  8
SWOFF
 62
143
 10
       -6.57244
 20
       -2.80712
 30
        3.86800
 11
       -6.57244
 21
       -2.80712
 31
        2.27200
 12
       -2.90192
 22
       -3.79063
 32
        2.27200
 13
       -2.90192
 23
       -3.79063
 33
        3.86800
999
SWOFF:SWOFF_WALL_SOUTH_TOP_MULL
  0
3DFACE
  8
SWOFF
 62
 43
 10
       -6.66903
 20
       -2.78124
 30
        4.12000
 11
       -6.66903
 21
       -2.78124
 31
        3.92000
 12
       -2.80533
 22
       -3.81652
 32
        3.92000
 13
       -2.80533
 23
       -3.81652
 33
        4.12000
999
SWOFF:SWOFF_WALL_SOUTH_BOT_MULL
  0
3DFACE
  8
SWOFF
 62
 43
 10
       -6.66903
 20
       -2.78124
 30
        1.52000
 11
       -6.66903
 21
       -2.78124
 31
        1.12000
 12
       -2.80533
 22
       -3.81652
 32
        1.12000
 13
       -2.80533
 23
       -3.81652
 33
        1.52000
999
SWOFF:SWOFF_DOOR
  0
3DFACE
  8
SWOFF
 62
 43
 10
       -2.80533
 20
       -3.81652
 30
        4.12000
 11
       -2.80533
 21
       -3.81652
 31
        1.12000
 12
       -1.53514
 22
       -4.15686
 32
        1.12000
 13
       -1.53514
 23
       -4.15686
 33
        4.12000
999
SWOFF:SWOFF_FLOOR
  0
3DFACE
  8
SWOFF
 62
  8
 10
        4.67911
 20
       19.03502
 30
        1.12000
 11
       -1.53514
 21
       -4.15686
 31
        1.12000
 12
       -6.66903
 22
       -2.78124
 32
        1.12000
 13
       -0.45479
 23
       20.41064
 33
        1.12000
999
SWOFF:OFF-OMER_CEILING_1_0_10028
  0
3DFACE
  8
SWOFF
 62
 15
 10
       -4.21025
 20
        6.39505
 30
        4.12000
 11
       -5.45258
 21
        1.75861
 31
        4.12000
 12
       -0.31869
 22
        0.38299
 32
        4.12000
 13
        0.92364
 23
        5.01943
 33
        4.12000
999
SWOFF:SWOFF_CEILING_1_0_10033
  0
3DFACE
  8
SWOFF
 62
 15
 10
       -2.96792
 20
       11.03150
 30
        4.12000
 11
       -4.21025
 21
        6.39505
 31
        4.12000
 12
        0.92364
 22
        5.01943
 32
        4.12000
 13
        2.16597
 23
        9.65588
 33
        4.12000
999
SWOFF:SWOFF_CEILING_1_0_0_0_0_0_HOLE_10035
  0
3DFACE
  8
SWOFF
 62
 45
 10
       -2.96580
 20
       11.02782
 30
        4.12000
 11
       -4.20658
 21
        6.39718
 31
        4.12000
 12
        0.92442
 22
        5.02233
 32
        4.12000
 13
        2.16520
 23
        9.65298
 33
        4.12000
999
SWOFF:OFF-VIVIAN_CEILING_1_0_10039
  0
3DFACE
  8
SWOFF
 62
 15
 10
       -1.72559
 20
       15.66794
 30
        4.12000
 11
       -2.96792
 21
       11.03150
 31
        4.12000
 12
        2.16597
 22
        9.65588
 32
        4.12000
 13
        3.40831
 23
       14.29232
 33
        4.12000
999
SWOFF:OFF-VIVIAN_CEILING_1_0_0_0_0_0_HOLE_10041
  0
3DFACE
  8
SWOFF
 62
 45
 10
       -1.72347
 20
       15.66427
 30
        4.12000
 11
       -2.96425
 21
       11.03362
 31
        4.12000
 12
        2.16675
 22
        9.65877
 32
        4.12000
 13
        3.40753
 23
       14.28942
 33
        4.12000
999
SWOFF:SMALLCONF_CEILING_1_0_10045
  0
3DFACE
  8
SWOFF
 62
 15
 10
       -5.45258
 20
        1.75861
 30
        4.12000
 11
       -6.66903
 21
       -2.78124
 31
        4.12000
 12
       -1.53514
 22
       -4.15686
 32
        4.12000
 13
       -0.31869
 23
        0.38299
 33
        4.12000
999
SWOFF:SMALLCONF_CEILING_1_0_0_0_0_0_HOLE_10047
  0
3DFACE
  8
SWOFF
 62
 45
 10
       -5.45046
 20
        1.75494
 30
        4.12000
 11
       -6.66536
 21
       -2.77912
 31
        4.12000
 12
       -1.53436
 22
       -4.15397
 32
        4.12000
 13
       -0.31947
 23
        0.38009
 33
        4.12000
999
SWOFF:OFF-JAMES_CEILING_1_0_10051
  0
3DFACE
  8
SWOFF
 62
 15
 10
       -0.45479
 20
       20.41064
 30
        4.12000
 11
       -1.72559
 21
       15.66794
 31
        4.12000
 12
        3.40831
 22
       14.29232
 32
        4.12000
 13
        4.67911
 23
       19.03502
 33
        4.12000
999
SWOFF:OFF-JAMES_CEILING_1_0_0_0_0_0_HOLE_10053
  0
3DFACE
  8
SWOFF
 62
 45
 10
       -0.45267
 20
       20.40696
 30
        4.12000
 11
       -1.72192
 21
       15.67006
 31
        4.12000
 12
        3.40908
 22
       14.29522
 32
        4.12000
 13
        4.67833
 23
       19.03212
 33
        4.12000
999
SEOFF:SEOFF_PARTITION_WEST
  0
3DFACE
  8
SEOFF
 62
 43
 10
       -1.53514
 20
       -4.15686
 30
        1.12000
 11
       -1.53514
 21
       -4.15686
 31
        4.12000
 12
        4.67911
 22
       19.03502
 32
        4.12000
 13
        4.67911
 23
       19.03502
 33
        1.12000
999
SEOFF:SEOFF_PARTITION_WEST_HOLE
  0
3DFACE
  8
SEOFF
 62
 45
 10
       -1.53255
 20
       -4.14720
 30
        1.12000
 11
       -1.53255
 21
       -4.14720
 31
        4.12000
 12
        4.67911
 22
       19.03502
 32
        4.12000
 13
        4.67911
 23
       19.03502
 33
        1.12000
999
SEOFF:SEOFF_PARTITION_NORTH
  0
3DFACE
  8
SEOFF
 62
 43
 10
        9.81300
 20
       17.65939
 30
        1.12000
 11
        9.81300
 21
       17.65939
 31
        4.12000
 12
        4.67911
 22
       19.03502
 32
        4.12000
 13
        4.67911
 23
       19.03502
 33
        1.12000
999
SEOFF:SEOFF_PARTITION_NORTH_HOLE
  0
3DFACE
  8
SEOFF
 62
 45
 10
        9.80334
 20
       17.66198
 30
        1.12000
 11
        9.80334
 21
       17.66198
 31
        4.12000
 12
        4.67911
 22
       19.03502
 32
        4.12000
 13
        4.67911
 23
       19.03502
 33
        1.12000
999
SEOFF:SEOFF_WALL_EAST_MID
  0
3DFACE
  8
SEOFF
 62
 43
 10
        3.59876
 20
       -5.53249
 30
        3.92000
 11
        3.59876
 21
       -5.53249
 31
        1.52000
 12
        9.81300
 22
       17.65939
 32
        1.52000
 13
        9.81300
 23
       17.65939
 33
        3.92000
999
SEOFF:SEOFF_WALL_EAST_WIN_BOT
  0
3DFACE
  8
SEOFF
 62
143
 10
        3.62464
 20
       -5.43589
 30
        2.73800
 11
        3.62464
 21
       -5.43589
 31
        2.27200
 12
        9.78712
 22
       17.56280
 32
        2.27200
 13
        9.78712
 23
       17.56280
 33
        2.73800
999
SEOFF:SEOFF_WALL_EAST_WIN_TOP
  0
3DFACE
  8
SEOFF
 62
143
 10
        3.62464
 20
       -5.43589
 30
        3.86800
 11
        3.62464
 21
       -5.43589
 31
        2.84200
 12
        9.78712
 22
       17.56280
 32
        2.84200
 13
        9.78712
 23
       17.56280
 33
        3.86800
999
SEOFF:SEOFF_WALL_EAST_TOP_MULL
  0
3DFACE
  8
SEOFF
 62
 43
 10
        3.59876
 20
       -5.53249
 30
        4.12000
 11
        3.59876
 21
       -5.53249
 31
        3.92000
 12
        9.81300
 22
       17.65939
 32
        3.92000
 13
        9.81300
 23
       17.65939
 33
        4.12000
999
SEOFF:SEOFF_WALL_EAST_BOT_MULL
  0
3DFACE
  8
SEOFF
 62
 43
 10
        3.59876
 20
       -5.53249
 30
        1.52000
 11
        3.59876
 21
       -5.53249
 31
        1.12000
 12
        9.81300
 22
       17.65939
 32
        1.12000
 13
        9.81300
 23
       17.65939
 33
        1.52000
999
SEOFF:SEOFF_WALL_SOUTH_MID
  0
3DFACE
  8
SEOFF
 62
 43
 10
       -0.26495
 20
       -4.49721
 30
        3.92000
 11
       -0.26495
 21
       -4.49721
 31
        1.52000
 12
        3.59876
 22
       -5.53249
 32
        1.52000
 13
        3.59876
 23
       -5.53249
 33
        3.92000
999
SEOFF:SEOFF_WALL_SOUTH_WIN
  0
3DFACE
  8
SEOFF
 62
143
 10
       -0.16835
 20
       -4.52309
 30
        3.86800
 11
       -0.16835
 21
       -4.52309
 31
        2.27200
 12
        3.50216
 22
       -5.50660
 32
        2.27200
 13
        3.50216
 23
       -5.50660
 33
        3.86800
999
SEOFF:SEOFF_WALL_SOUTH_TOP_MULL
  0
3DFACE
  8
SEOFF
 62
 43
 10
       -0.26495
 20
       -4.49721
 30
        4.12000
 11
       -0.26495
 21
       -4.49721
 31
        3.92000
 12
        3.59876
 22
       -5.53249
 32
        3.92000
 13
        3.59876
 23
       -5.53249
 33
        4.12000
999
SEOFF:SEOFF_WALL_SOUTH_BOT_MULL
  0
3DFACE
  8
SEOFF
 62
 43
 10
       -0.26495
 20
       -4.49721
 30
        1.52000
 11
       -0.26495
 21
       -4.49721
 31
        1.12000
 12
        3.59876
 22
       -5.53249
 32
        1.12000
 13
        3.59876
 23
       -5.53249
 33
        1.52000
999
SEOFF:SEOFF_DOOR
  0
3DFACE
  8
SEOFF
 62
 43
 10
       -1.53514
 20
       -4.15686
 30
        4.12000
 11
       -1.53514
 21
       -4.15686
 31
        1.12000
 12
       -0.26495
 22
       -4.49721
 32
        1.12000
 13
       -0.26495
 23
       -4.49721
 33
        4.12000
999
SEOFF:SEOFF_FLOOR
  0
3DFACE
  8
SEOFF
 62
  8
 10
        9.81300
 20
       17.65939
 30
        1.12000
 11
        3.59876
 21
       -5.53249
 31
        1.12000
 12
       -1.53514
 22
       -4.15686
 32
        1.12000
 13
        4.67911
 23
       19.03502
 33
        1.12000
999
SEOFF:OFF-ZHIANG_CEILING_1_0_10026
  0
3DFACE
  8
SEOFF
 62
 15
 10
        0.92364
 20
        5.01943
 30
        4.12000
 11
       -0.31869
 21
        0.38299
 31
        4.12000
 12
        4.81521
 22
       -0.99264
 32
        4.12000
 13
        6.05754
 23
        3.64381
 33
        4.12000
999
SEOFF:OFF-ZHIANG_CEILING_1_0_0_0_0_0_HOLE_10028
  0
3DFACE
  8
SEOFF
 62
 45
 10
        0.92105
 20
        5.00977
 30
        4.12000
 11
       -0.31869
 21
        0.38299
 31
        4.12000
 12
        4.81521
 22
       -0.99264
 32
        4.12000
 13
        6.05495
 23
        3.63415
 33
        4.12000
999
SEOFF:OFF-WEILI_CEILING_1_0_10031
  0
3DFACE
  8
SEOFF
 62
 15
 10
        2.16597
 20
        9.65588
 30
        4.12000
 11
        0.92364
 21
        5.01943
 31
        4.12000
 12
        6.05754
 22
        3.64381
 32
        4.12000
 13
        7.29987
 23
        8.28025
 33
        4.12000
999
SEOFF:OFF-WEILI_CEILING_1_0_0_0_0_0_HOLE_10033
  0
3DFACE
  8
SEOFF
 62
 45
 10
        2.16520
 20
        9.65298
 30
        4.12000
 11
        0.92442
 21
        5.02233
 31
        4.12000
 12
        6.05542
 22
        3.64748
 32
        4.12000
 13
        7.29620
 23
        8.27813
 33
        4.12000
999
SEOFF:OFF-BAPP_CEILING_1_0_10037
  0
3DFACE
  8
SEOFF
 62
 15
 10
        3.40831
 20
       14.29232
 30
        4.12000
 11
        2.16597
 21
        9.65588
 31
        4.12000
 12
        7.29987
 22
        8.28025
 32
        4.12000
 13
        8.54220
 23
       12.91670
 33
        4.12000
999
SEOFF:OFF-BAPP_CEILING_1_0_0_0_0_0_HOLE_10039
  0
3DFACE
  8
SEOFF
 62
 45
 10
        3.40753
 20
       14.28942
 30
        4.12000
 11
        2.16675
 21
        9.65877
 31
        4.12000
 12
        7.29775
 22
        8.28393
 32
        4.12000
 13
        8.53853
 23
       12.91458
 33
        4.12000
999
SEOFF:OFF-NINA_CEILING_1_0_10043
  0
3DFACE
  8
SEOFF
 62
 15
 10
       -0.31869
 20
        0.38299
 30
        4.12000
 11
       -1.53514
 21
       -4.15686
 31
        4.12000
 12
        3.59876
 22
       -5.53249
 32
        4.12000
 13
        4.81521
 23
       -0.99264
 33
        4.12000
999
SEOFF:OFF-NINA_CEILING_1_0_0_0_0_0_HOLE_10045
  0
3DFACE
  8
SEOFF
 62
 45
 10
       -0.31947
 20
        0.38009
 30
        4.12000
 11
       -1.53436
 21
       -4.15397
 31
        4.12000
 12
        3.59664
 22
       -5.52881
 32
        4.12000
 13
        4.81153
 23
       -0.99476
 33
        4.12000
999
SEOFF:OFF-YUJIE_CEILING_1_0_10049
  0
3DFACE
  8
SEOFF
 62
 15
 10
        4.67911
 20
       19.03502
 30
        4.12000
 11
        3.40831
 21
       14.29232
 31
        4.12000
 12
        8.54220
 22
       12.91670
 32
        4.12000
 13
        9.81300
 23
       17.65939
 33
        4.12000
999
SEOFF:OFF-YUJIE_CEILING_1_0_0_0_0_0_HOLE_10051
  0
3DFACE
  8
SEOFF
 62
 45
 10
        4.67833
 20
       19.03212
 30
        4.12000
 11
        3.40908
 21
       14.29522
 31
        4.12000
 12
        8.54008
 22
       12.92037
 32
        4.12000
 13
        9.80933
 23
       17.65727
 33
        4.12000
999
NWOFF:NWOFF_PARTITION_SOUTH
  0
3DFACE
  8
NWOFF
 62
 43
 10
       -0.45479
 20
       20.41064
 30
        1.12000
 11
       -0.45479
 21
       20.41064
 31
        4.12000
 12
        4.67911
 22
       19.03502
 32
        4.12000
 13
        4.67911
 23
       19.03502
 33
        1.12000
999
NWOFF:NWOFF_PARTITION_SOUTH_HOLE
  0
3DFACE
  8
NWOFF
 62
 45
 10
       -0.45479
 20
       20.41064
 30
        1.12000
 11
       -0.45479
 21
       20.41064
 31
        4.12000
 12
        4.66945
 22
       19.03760
 32
        4.12000
 13
        4.66945
 23
       19.03760
 33
        1.12000
999
NWOFF:NWOFF_PARTITION_EAST
  0
3DFACE
  8
NWOFF
 62
 43
 10
        4.67911
 20
       19.03502
 30
        1.12000
 11
        4.67911
 21
       19.03502
 31
        4.12000
 12
        7.26730
 22
       28.69427
 32
        4.12000
 13
        7.26730
 23
       28.69427
 33
        1.12000
999
NWOFF:NWOFF_PARTITION_EAST_HOLE
  0
3DFACE
  8
NWOFF
 62
 45
 10
        4.67911
 20
       19.03502
 30
        1.12000
 11
        4.67911
 21
       19.03502
 31
        4.12000
 12
        7.26471
 22
       28.68461
 32
        4.12000
 13
        7.26471
 23
       28.68461
 33
        1.12000
999
NWOFF:NWOFF_PARTITION_NORTH
  0
3DFACE
  8
NWOFF
 62
 43
 10
        7.26730
 20
       28.69427
 30
        1.12000
 11
        7.26730
 21
       28.69427
 31
        4.12000
 12
        2.13340
 22
       30.06990
 32
        4.12000
 13
        2.13340
 23
       30.06990
 33
        1.12000
999
NWOFF:NWOFF_PARTITION_NORTH_HOLE
  0
3DFACE
  8
NWOFF
 62
 45
 10
        7.25764
 20
       28.69686
 30
        1.12000
 11
        7.25764
 21
       28.69686
 31
        4.12000
 12
        2.13340
 22
       30.06990
 32
        4.12000
 13
        2.13340
 23
       30.06990
 33
        1.12000
999
NWOFF:NWOFF_WALL_MID
  0
3DFACE
  8
NWOFF
 62
 43
 10
        2.13340
 20
       30.06990
 30
        3.92000
 11
        2.13340
 21
       30.06990
 31
        1.52000
 12
       -0.45479
 22
       20.41064
 32
        1.52000
 13
       -0.45479
 23
       20.41064
 33
        3.92000
999
NWOFF:NWOFF_WALL_MID_WIN_TOP
  0
3DFACE
  8
NWOFF
 62
143
 10
        2.10752
 20
       29.97330
 30
        3.86800
 11
        2.10752
 21
       29.97330
 31
        2.84200
 12
       -0.42891
 22
       20.50723
 32
        2.84200
 13
       -0.42891
 23
       20.50723
 33
        3.86800
999
NWOFF:NWOFF_WALL_MID_WIN_BOT
  0
3DFACE
  8
NWOFF
 62
143
 10
        2.10752
 20
       29.97330
 30
        2.73800
 11
        2.10752
 21
       29.97330
 31
        2.27200
 12
       -0.42891
 22
       20.50723
 32
        2.27200
 13
       -0.42891
 23
       20.50723
 33
        2.73800
999
NWOFF:NWOFF_WALL_TOP_MULL
  0
3DFACE
  8
NWOFF
 62
 43
 10
        2.13340
 20
       30.06990
 30
        4.12000
 11
        2.13340
 21
       30.06990
 31
        3.92000
 12
       -0.45479
 22
       20.41064
 32
        3.92000
 13
       -0.45479
 23
       20.41064
 33
        4.12000
999
NWOFF:NWOFF_WALL_BOT_MULL
  0
3DFACE
  8
NWOFF
 62
 43
 10
        2.13340
 20
       30.06990
 30
        1.52000
 11
        2.13340
 21
       30.06990
 31
        1.12000
 12
       -0.45479
 22
       20.41064
 32
        1.12000
 13
       -0.45479
 23
       20.41064
 33
        1.52000
999
NWOFF:NWOFF_FLOOR
  0
3DFACE
  8
NWOFF
 62
  8
 10
        7.26730
 20
       28.69427
 30
        1.12000
 11
        4.67911
 21
       19.03502
 31
        1.12000
 12
       -0.45479
 22
       20.41064
 32
        1.12000
 13
        2.13340
 23
       30.06990
 33
        1.12000
999
NWOFF:NWOFF_SOUTH_CEILING_1_0_10057
  0
3DFACE
  8
NWOFF
 62
 15
 10
        4.67911
 20
       19.03502
 30
        4.12000
 11
        5.97320
 21
       23.86464
 31
        4.12000
 12
        0.83931
 22
       25.24027
 32
        4.12000
 13
       -0.45479
 23
       20.41064
 33
        4.12000
999
NWOFF:OFF-ERICA_CEILING_1_0_0_0_0_0_HOLE_10059
  0
3DFACE
  8
NWOFF
 62
 45
 10
        0.84143
 20
       25.23659
 30
        4.12000
 11
       -0.45111
 21
       20.41276
 31
        4.12000
 12
        3.64827
 22
       19.31433
 32
        4.12000
 13
        4.94082
 23
       24.13817
 33
        4.12000
999
NWOFF:OFF-VOLKER_CEILING_1_0_10069
  0
3DFACE
  8
NWOFF
 62
 15
 10
        2.13340
 20
       30.06990
 30
        4.12000
 11
        0.83931
 21
       25.24027
 31
        4.12000
 12
        5.97320
 22
       23.86464
 32
        4.12000
 13
        7.26730
 23
       28.69427
 33
        4.12000
999
NWOFF:OFF-VOLKER_CEILING_1_0_0_0_0_0_HOLE_10071
  0
3DFACE
  8
NWOFF
 62
 45
 10
        2.13552
 20
       30.06622
 30
        4.12000
 11
        0.84298
 21
       25.24239
 31
        4.12000
 12
        4.94237
 22
       24.14396
 32
        4.12000
 13
        6.23491
 23
       28.96779
 33
        4.12000
999
NEOFF:NEOFF_PARTITION_WEST_NORTH
  0
3DFACE
  8
NEOFF
 62
 43
 10
       17.73239
 20
       36.24292
 30
        1.12000
 11
       17.73239
 21
       36.24292
 31
        4.12000
 12
       15.14420
 22
       26.58366
 32
        4.12000
 13
       15.14420
 23
       26.58366
 33
        1.12000
999
NEOFF:NEOFF_PARTITION_WEST_NORTH_HOLE
  0
3DFACE
  8
NEOFF
 62
 45
 10
       17.72980
 20
       36.23326
 30
        1.12000
 11
       17.72980
 21
       36.23326
 31
        4.12000
 12
       15.14420
 22
       26.58366
 32
        4.12000
 13
       15.14420
 23
       26.58366
 33
        1.12000
999
NEOFF:NEOFF_PARTITION_WEST_SOUTH
  0
3DFACE
  8
NEOFF
 62
 43
 10
       15.14130
 20
       26.58444
 30
        1.12000
 11
       15.14130
 21
       26.58444
 31
        4.12000
 12
       12.55311
 22
       16.92518
 32
        4.12000
 13
       12.55311
 23
       16.92518
 33
        1.12000
999
NEOFF:NEOFF_PARTITION_WEST_SOUTH_HOLE
  0
3DFACE
  8
NEOFF
 62
 45
 10
       15.13871
 20
       26.57478
 30
        1.12000
 11
       15.13871
 21
       26.57478
 31
        4.12000
 12
       12.55311
 22
       16.92518
 32
        4.12000
 13
       12.55311
 23
       16.92518
 33
        1.12000
999
NEOFF:NEOFF_WALL_EAST_BOT_MULL
  0
3DFACE
  8
NEOFF
 62
 43
 10
       16.75801
 20
       15.79848
 30
        1.52000
 11
       16.75801
 21
       15.79848
 31
        1.12000
 12
       21.93698
 22
       35.12666
 32
        1.12000
 13
       21.93698
 23
       35.12666
 33
        1.52000
999
NEOFF:NEOFF_WALL_EAST_MID
  0
3DFACE
  8
NEOFF
 62
 43
 10
       16.75801
 20
       15.79848
 30
        3.92000
 11
       16.75801
 21
       15.79848
 31
        1.52000
 12
       21.93698
 22
       35.12666
 32
        1.52000
 13
       21.93698
 23
       35.12666
 33
        3.92000
999
NEOFF:NEOFF_WALL_EAST_WIN_TOP
  0
3DFACE
  8
NEOFF
 62
143
 10
       16.78389
 20
       15.89508
 30
        3.86800
 11
       16.78389
 21
       15.89508
 31
        2.84200
 12
       21.91110
 22
       35.03007
 32
        2.84200
 13
       21.91110
 23
       35.03007
 33
        3.86800
999
NEOFF:NEOFF_WALL_EAST_WIN_BOT
  0
3DFACE
  8
NEOFF
 62
143
 10
       16.78389
 20
       15.89508
 30
        2.73800
 11
       16.78389
 21
       15.89508
 31
        2.27200
 12
       21.91110
 22
       35.03007
 32
        2.27200
 13
       21.91110
 23
       35.03007
 33
        2.73800
999
NEOFF:NEOFF_WALL_EAST_TOP_MULL
  0
3DFACE
  8
NEOFF
 62
 43
 10
       16.75801
 20
       15.79848
 30
        4.12000
 11
       16.75801
 21
       15.79848
 31
        3.92000
 12
       21.93698
 22
       35.12666
 32
        3.92000
 13
       21.93698
 23
       35.12666
 33
        4.12000
999
NEOFF:NEOFF_WALL_NORTH_MID
  0
3DFACE
  8
NEOFF
 62
 43
 10
       21.93698
 20
       35.12666
 30
        3.92000
 11
       21.93698
 21
       35.12666
 31
        1.52000
 12
       17.73475
 22
       36.25173
 32
        1.52000
 13
       17.73475
 23
       36.25173
 33
        3.92000
999
NEOFF:NEOFF_WALL_NORTH_WIN
  0
3DFACE
  8
NEOFF
 62
143
 10
       21.84039
 20
       35.15254
 30
        3.86800
 11
       21.84039
 21
       35.15254
 31
        2.27200
 12
       17.83134
 22
       36.22585
 32
        2.27200
 13
       17.83134
 23
       36.22585
 33
        3.86800
999
NEOFF:NEOFF_WALL_NORTH_TOP_MULL
  0
3DFACE
  8
NEOFF
 62
 43
 10
       21.93698
 20
       35.12666
 30
        4.12000
 11
       21.93698
 21
       35.12666
 31
        3.92000
 12
       17.73475
 22
       36.25173
 32
        3.92000
 13
       17.73475
 23
       36.25173
 33
        4.12000
999
NEOFF:NEOFF_WALL_NORTH_BOT_MULL
  0
3DFACE
  8
NEOFF
 62
 43
 10
       21.93698
 20
       35.12666
 30
        1.52000
 11
       21.93698
 21
       35.12666
 31
        1.12000
 12
       17.73475
 22
       36.25173
 32
        1.12000
 13
       17.73475
 23
       36.25173
 33
        1.52000
999
NEOFF:NEOFF_WALL_SOUTH_MID
  0
3DFACE
  8
NEOFF
 62
 43
 10
       12.55601
 20
       16.92441
 30
        3.92000
 11
       12.55601
 21
       16.92441
 31
        1.52000
 12
       16.75801
 22
       15.79848
 32
        1.52000
 13
       16.75801
 23
       15.79848
 33
        3.92000
999
NEOFF:NEOFF_WALL_SOUTH_WIN_BOT
  0
3DFACE
  8
NEOFF
 62
143
 10
       12.65260
 20
       16.89852
 30
        2.73800
 11
       12.65260
 21
       16.89852
 31
        2.27200
 12
       16.66142
 22
       15.82437
 32
        2.27200
 13
       16.66142
 23
       15.82437
 33
        2.73800
999
NEOFF:NEOFF_WALL_SOUTH_WIN_TOP
  0
3DFACE
  8
NEOFF
 62
143
 10
       12.65260
 20
       16.89852
 30
        3.86800
 11
       12.65260
 21
       16.89852
 31
        2.84200
 12
       16.66142
 22
       15.82437
 32
        2.84200
 13
       16.66142
 23
       15.82437
 33
        3.86800
999
NEOFF:NEOFF_WALL_SOUTH_TOP_MULL
  0
3DFACE
  8
NEOFF
 62
 43
 10
       12.55601
 20
       16.92441
 30
        4.12000
 11
       12.55601
 21
       16.92441
 31
        3.92000
 12
       16.75801
 22
       15.79848
 32
        3.92000
 13
       16.75801
 23
       15.79848
 33
        4.12000
999
NEOFF:NEOFF_WALL_SOUTH_BOT_MULL
  0
3DFACE
  8
NEOFF
 62
 43
 10
       12.55601
 20
       16.92441
 30
        1.52000
 11
       12.55601
 21
       16.92441
 31
        1.12000
 12
       16.75801
 22
       15.79848
 32
        1.12000
 13
       16.75801
 23
       15.79848
 33
        1.52000
999
NEOFF:NEOFF_FLOOR
  0
3DFACE
  8
NEOFF
 62
  8
 10
       21.93439
 20
       35.11700
 30
        1.12000
 11
       16.75801
 21
       15.79848
 31
        1.12000
 12
       12.55601
 22
       16.92441
 32
        1.12000
 13
       17.73239
 23
       36.24292
 33
        1.12000
999
NEOFF:NEOFF_SOUTH_CEILING_1_0_10055
  0
3DFACE
  8
NEOFF
 62
 15
 10
       13.85010
 20
       21.75403
 30
        4.12000
 11
       12.55601
 21
       16.92441
 31
        4.12000
 12
       16.75801
 22
       15.79848
 32
        4.12000
 13
       18.05210
 23
       20.62811
 33
        4.12000
999
NEOFF:NEOFF_SOUTH_CEILING_1_0_10055_HOLE
  0
3DFACE
  8
NEOFF
 62
 45
 10
       13.85976
 20
       21.75145
 30
        4.12000
 11
       12.56567
 21
       16.92182
 31
        4.12000
 12
       16.75801
 22
       15.79848
 32
        4.12000
 13
       18.05210
 23
       20.62811
 33
        4.12000
999
NEOFF:NEOFF_NORTH_CEILING_1_0_10061
  0
3DFACE
  8
NEOFF
 62
 15
 10
       17.73239
 20
       36.24292
 30
        4.12000
 11
       16.43927
 21
       31.41694
 31
        4.12000
 12
       20.64127
 22
       30.29102
 32
        4.12000
 13
       21.93417
 23
       35.11706
 33
        4.12000
999
NEOFF:OFF-ANNIE_CEILING_1_0_0_0_0_0_HOLE_10063
  0
3DFACE
  8
NEOFF
 62
 45
 10
       17.73380
 20
       36.24047
 30
        4.12000
 11
       16.44172
 21
       31.41836
 31
        4.12000
 12
       20.63964
 22
       30.29353
 32
        4.12000
 13
       21.93172
 23
       35.11564
 33
        4.12000
999
NEOFF:BAS_CEILING_1_0_10067
  0
3DFACE
  8
NEOFF
 62
 15
 10
       15.14420
 20
       26.58366
 30
        4.12000
 11
       13.85010
 21
       21.75403
 31
        4.12000
 12
       18.05210
 22
       20.62811
 32
        4.12000
 13
       19.34620
 23
       25.45774
 33
        4.12000
999
NEOFF:BAS_CEILING_1_0_0_0_0_0_HOLE_10069
  0
3DFACE
  8
NEOFF
 62
 45
 10
       16.11719
 20
       26.31985
 30
        4.12000
 11
       14.82465
 21
       21.49601
 31
        4.12000
 12
       18.04998
 22
       20.63179
 32
        4.12000
 13
       19.34253
 23
       25.45562
 33
        4.12000
999
NEOFF:OFF-SUREKHA_CEILING_1_0_10073
  0
3DFACE
  8
NEOFF
 62
 15
 10
       16.43830
 20
       31.41329
 30
        4.12000
 11
       15.14420
 21
       26.58366
 31
        4.12000
 12
       19.34620
 22
       25.45774
 32
        4.12000
 13
       20.64029
 23
       30.28737
 33
        4.12000
999
NEOFF:OFF-SUREKHA_CEILING_1_0_0_0_0_0_HOLE_10075
  0
3DFACE
  8
NEOFF
 62
 45
 10
       16.44042
 20
       31.40962
 30
        4.12000
 11
       15.14787
 21
       26.58579
 31
        4.12000
 12
       19.34408
 22
       25.46142
 32
        4.12000
 13
       20.63662
 23
       30.28525
 33
        4.12000
999
CENTRAL:CENTRAL_PARTITION_WEST
  0
3DFACE
  8
CENTRAL
 62
 43
 10
        7.26730
 20
       28.69427
 30
        1.12000
 11
        7.26730
 21
       28.69427
 31
        4.12000
 12
        4.67911
 22
       19.03502
 32
        4.12000
 13
        4.67911
 23
       19.03502
 33
        1.12000
999
CENTRAL:CENTRAL_PARTITION_WEST_HOLE
  0
3DFACE
  8
CENTRAL
 62
 45
 10
        7.26471
 20
       28.68461
 30
        1.12000
 11
        7.26471
 21
       28.68461
 31
        4.12000
 12
        4.67911
 22
       19.03502
 32
        4.12000
 13
        4.67911
 23
       19.03502
 33
        1.12000
999
CENTRAL:CENTRAL_PARTITION_SOUTH
  0
3DFACE
  8
CENTRAL
 62
 43
 10
        4.67911
 20
       19.03502
 30
        1.12000
 11
        4.67911
 21
       19.03502
 31
        4.12000
 12
        9.81300
 22
       17.65939
 32
        4.12000
 13
        9.81300
 23
       17.65939
 33
        1.12000
999
CENTRAL:CENTRAL_PARTITION_SOUTH_HOLE
  0
3DFACE
  8
CENTRAL
 62
 45
 10
        4.67911
 20
       19.03502
 30
        1.12000
 11
        4.67911
 21
       19.03502
 31
        4.12000
 12
        9.80334
 22
       17.66198
 32
        4.12000
 13
        9.80334
 23
       17.66198
 33
        1.12000
999
CENTRAL:CENTRAL_PARTITION_NORTH
  0
3DFACE
  8
CENTRAL
 62
 43
 10
        7.26730
 20
       28.69427
 30
        1.12000
 11
        7.26730
 21
       28.69427
 31
        4.12000
 12
       15.14130
 22
       26.58444
 32
        4.12000
 13
       15.14130
 23
       26.58444
 33
        1.12000
999
CENTRAL:CENTRAL_PARTITION_NORTH_HOLE
  0
3DFACE
  8
CENTRAL
 62
 45
 10
        7.26730
 20
       28.69427
 30
        1.12000
 11
        7.26730
 21
       28.69427
 31
        4.12000
 12
       15.13164
 22
       26.58703
 32
        4.12000
 13
       15.13164
 23
       26.58703
 33
        1.12000
999
CENTRAL:CENTRAL_PARTITION_EAST
  0
3DFACE
  8
CENTRAL
 62
 43
 10
       12.55311
 20
       16.92518
 30
        1.12000
 11
       12.55311
 21
       16.92518
 31
        4.12000
 12
       15.14130
 22
       26.58444
 32
        4.12000
 13
       15.14130
 23
       26.58444
 33
        1.12000
999
CENTRAL:CENTRAL_PARTITION_EAST_HOLE
  0
3DFACE
  8
CENTRAL
 62
 45
 10
       12.55311
 20
       16.92518
 30
        1.12000
 11
       12.55311
 21
       16.92518
 31
        4.12000
 12
       15.13871
 22
       26.57478
 32
        4.12000
 13
       15.13871
 23
       26.57478
 33
        1.12000
999
CENTRAL:CENTRAL_WALL_SOUTH_BOT_MULL
  0
3DFACE
  8
CENTRAL
 62
 43
 10
        9.81300
 20
       17.65939
 30
        1.52000
 11
        9.81300
 21
       17.65939
 31
        1.12000
 12
       12.55601
 22
       16.92441
 32
        1.12000
 13
       12.55601
 23
       16.92441
 33
        1.52000
999
CENTRAL:CENTRAL_WALL_SOUTH_TOP_MULL
  0
3DFACE
  8
CENTRAL
 62
 43
 10
        9.81300
 20
       17.65939
 30
        4.12000
 11
        9.81300
 21
       17.65939
 31
        3.92000
 12
       12.55601
 22
       16.92441
 32
        3.92000
 13
       12.55601
 23
       16.92441
 33
        4.12000
999
CENTRAL:CENTRAL_WALL_SOUTH_MID
  0
3DFACE
  8
CENTRAL
 62
 43
 10
        9.81300
 20
       17.65939
 30
        3.92000
 11
        9.81300
 21
       17.65939
 31
        1.52000
 12
       12.55601
 22
       16.92441
 32
        1.52000
 13
       12.55601
 23
       16.92441
 33
        3.92000
999
CENTRAL:CENTRAL_WALL_SOUTH_WIN_TOP
  0
3DFACE
  8
CENTRAL
 62
143
 10
        9.90960
 20
       17.63351
 30
        3.86800
 11
        9.90960
 21
       17.63351
 31
        2.84200
 12
       12.45942
 22
       16.95029
 32
        2.84200
 13
       12.45942
 23
       16.95029
 33
        3.86800
999
CENTRAL:CENTRAL_WALL_SOUTH_WIN_BOT
  0
3DFACE
  8
CENTRAL
 62
143
 10
        9.90960
 20
       17.63351
 30
        2.73800
 11
        9.90960
 21
       17.63351
 31
        2.27200
 12
       12.45942
 22
       16.95029
 32
        2.27200
 13
       12.45942
 23
       16.95029
 33
        2.73800
999
CENTRAL:CENTRAL_FLOOR
  0
3DFACE
  8
CENTRAL
 62
  8
 10
       15.14420
 20
       26.58366
 30
        1.12000
 11
       12.55601
 21
       16.92441
 31
        1.12000
 12
        4.67911
 22
       19.03502
 32
        1.12000
 13
        7.26730
 23
       28.69427
 33
        1.12000
999
CENTRAL:CENTRAL_SOUTH_CEILING_1_0_10055
  0
3DFACE
  8
CENTRAL
 62
 15
 10
        5.97320
 20
       23.86464
 30
        4.12000
 11
        4.67911
 21
       19.03502
 31
        4.12000
 12
       12.55601
 22
       16.92441
 32
        4.12000
 13
       13.85010
 23
       21.75403
 33
        4.12000
999
CENTRAL:STAIRNCOM_CEILING_1_0_0_0_0_0_HOLE_10057
  0
3DFACE
  8
CENTRAL
 62
 45
 10
       12.54635
 20
       16.92699
 30
        4.12000
 11
       13.84045
 21
       21.75662
 31
        4.12000
 12
        5.97320
 22
       23.86464
 32
        4.12000
 13
        4.67911
 23
       19.03502
 33
        4.12000
999
CENTRAL:CENTRAL_NORTH_CEILING_1_0_10065
  0
3DFACE
  8
CENTRAL
 62
 15
 10
        7.26730
 20
       28.69427
 30
        4.12000
 11
        5.97320
 21
       23.86464
 31
        4.12000
 12
       13.85010
 22
       21.75403
 32
        4.12000
 13
       15.14420
 23
       26.58366
 33
        4.12000
999
CENTRAL:KITCHEN_CEILING_1_0_0_0_0_0_HOLE_10067
  0
3DFACE
  8
CENTRAL
 62
 45
 10
        8.29016
 20
       28.41709
 30
        4.12000
 11
        6.99762
 21
       23.59326
 31
        4.12000
 12
       13.84798
 22
       21.75771
 32
        4.12000
 13
       15.14053
 23
       26.58154
 33
        4.12000
999
LARGECONF:LARGECONF_PARTITION_SOUTH_WEST
  0
3DFACE
  8
LARGECONF
 62
 43
 10
        2.13340
 20
       30.06990
 30
        1.12000
 11
        2.13340
 21
       30.06990
 31
        4.12000
 12
        7.26730
 22
       28.69427
 32
        4.12000
 13
        7.26730
 23
       28.69427
 33
        1.12000
999
LARGECONF:LARGECONF_PARTITION_SOUTH_WEST_HOLE
  0
3DFACE
  8
LARGECONF
 62
 45
 10
        2.13340
 20
       30.06990
 30
        1.12000
 11
        2.13340
 21
       30.06990
 31
        4.12000
 12
        7.25764
 22
       28.69686
 32
        4.12000
 13
        7.25764
 23
       28.69686
 33
        1.12000
999
LARGECONF:LARGECONF_PARTITION_EAST
  0
3DFACE
  8
LARGECONF
 62
 43
 10
       15.14420
 20
       26.58366
 30
        1.12000
 11
       15.14420
 21
       26.58366
 31
        4.12000
 12
       17.73239
 22
       36.24292
 32
        4.12000
 13
       17.73239
 23
       36.24292
 33
        1.12000
999
LARGECONF:LARGECONF_PARTITION_EAST_HOLE
  0
3DFACE
  8
LARGECONF
 62
 45
 10
       15.14420
 20
       26.58366
 30
        1.12000
 11
       15.14420
 21
       26.58366
 31
        4.12000
 12
       17.72980
 22
       36.23326
 32
        4.12000
 13
       17.72980
 23
       36.23326
 33
        1.12000
999
LARGECONF:LARGECONF_PARTITION_SOUTH_EAST
  0
3DFACE
  8
LARGECONF
 62
 43
 10
       15.14130
 20
       26.58444
 30
        1.12000
 11
       15.14130
 21
       26.58444
 31
        4.12000
 12
        7.26730
 22
       28.69427
 32
        4.12000
 13
        7.26730
 23
       28.69427
 33
        1.12000
999
LARGECONF:LARGECONF_PARTITION_SOUTH_EAST_HOLE
  0
3DFACE
  8
LARGECONF
 62
 45
 10
       15.13164
 20
       26.58703
 30
        1.12000
 11
       15.13164
 21
       26.58703
 31
        4.12000
 12
        7.26730
 22
       28.69427
 32
        4.12000
 13
        7.26730
 23
       28.69427
 33
        1.12000
999
LARGECONF:LARGECONF_WALL_NORTH_MID
  0
3DFACE
  8
LARGECONF
 62
 43
 10
       17.73435
 20
       36.25022
 30
        3.92000
 11
       17.73435
 21
       36.25022
 31
        1.52000
 12
        4.72316
 22
       39.73501
 32
        1.52000
 13
        4.72316
 23
       39.73501
 33
        3.92000
999
LARGECONF:LARGECONF_WALL_NORTH_WIN
  0
3DFACE
  8
LARGECONF
 62
143
 10
       17.63734
 20
       36.27458
 30
        3.86800
 11
       17.63734
 21
       36.27458
 31
        2.27200
 12
        4.81948
 22
       39.70813
 32
        2.27200
 13
        4.81948
 23
       39.70813
 33
        3.86800
999
LARGECONF:LARGECONF_WALL_NORTH_TOP_MULL
  0
3DFACE
  8
LARGECONF
 62
 43
 10
       17.73435
 20
       36.25022
 30
        4.12000
 11
       17.73435
 21
       36.25022
 31
        3.92000
 12
        4.72316
 22
       39.73501
 32
        3.92000
 13
        4.72316
 23
       39.73501
 33
        4.12000
999
LARGECONF:LARGECONF_WALL_NORTH_BOT_MULL
  0
3DFACE
  8
LARGECONF
 62
 43
 10
       17.73435
 20
       36.25022
 30
        1.52000
 11
       17.73435
 21
       36.25022
 31
        1.12000
 12
        4.72316
 22
       39.73501
 32
        1.12000
 13
        4.72316
 23
       39.73501
 33
        1.52000
999
LARGECONF:LARGECONF_WALL_WEST_MID
  0
3DFACE
  8
LARGECONF
 62
 43
 10
        4.72287
 20
       39.73393
 30
        3.92000
 11
        4.72287
 21
       39.73393
 31
        1.52000
 12
        2.13340
 22
       30.06990
 32
        1.52000
 13
        2.13340
 23
       30.06990
 33
        3.92000
999
LARGECONF:LARGECONF_WALL_WEST_WIN_BOT
  0
3DFACE
  8
LARGECONF
 62
143
 10
        4.69699
 20
       39.63733
 30
        2.73800
 11
        4.69699
 21
       39.63733
 31
        2.27200
 12
        2.15928
 22
       30.16649
 32
        2.27200
 13
        2.15928
 23
       30.16649
 33
        2.73800
999
LARGECONF:LARGECONF_WALL_WEST_WIN_TOP
  0
3DFACE
  8
LARGECONF
 62
143
 10
        4.69699
 20
       39.63733
 30
        3.86800
 11
        4.69699
 21
       39.63733
 31
        2.84200
 12
        2.15928
 22
       30.16649
 32
        2.84200
 13
        2.15928
 23
       30.16649
 33
        3.86800
999
LARGECONF:LARGECONF_WALL_WEST_TOP_MULL
  0
3DFACE
  8
LARGECONF
 62
 43
 10
        4.72287
 20
       39.73393
 30
        4.12000
 11
        4.72287
 21
       39.73393
 31
        3.92000
 12
        2.13340
 22
       30.06990
 32
        3.92000
 13
        2.13340
 23
       30.06990
 33
        4.12000
999
LARGECONF:LARGECONF_WALL_WEST_BOT_MULL
  0
3DFACE
  8
LARGECONF
 62
 43
 10
        4.72287
 20
       39.73393
 30
        1.52000
 11
        4.72287
 21
       39.73393
 31
        1.12000
 12
        2.13340
 22
       30.06990
 32
        1.12000
 13
        2.13340
 23
       30.06990
 33
        1.52000
999
LARGECONF:LARGECONF_FLOOR
  0
3DFACE
  8
LARGECONF
 62
  8
 10
       17.73239
 20
       36.24292
 30
        1.12000
 11
       15.14420
 21
       26.58366
 31
        1.12000
 12
        2.13340
 22
       30.06990
 32
        1.12000
 13
        4.72159
 23
       39.72916
 33
        1.12000
999
LARGECONF:LARGECONF_NORTH_CEILING_1_0_10059
  0
3DFACE
  8
LARGECONF
 62
 15
 10
        4.72159
 20
       39.72916
 30
        4.12000
 11
        3.42847
 21
       34.90318
 31
        4.12000
 12
       16.43927
 22
       31.41694
 32
        4.12000
 13
       17.73239
 23
       36.24292
 33
        4.12000
999
LARGECONF:LARGECONF1_CEILING_1_0_0_0_0_0_HOLE_10061
  0
3DFACE
  8
LARGECONF
 62
 45
 10
        4.72371
 20
       39.72548
 30
        4.12000
 11
        3.43215
 21
       34.90530
 31
        4.12000
 12
       16.43715
 22
       31.42062
 32
        4.12000
 13
       17.72872
 23
       36.24080
 33
        4.12000
999
LARGECONF:LARGECONF_SOUTH_CEILING_1_0_10071
  0
3DFACE
  8
LARGECONF
 62
 15
 10
        3.42750
 20
       34.89953
 30
        4.12000
 11
        2.13340
 21
       30.06990
 31
        4.12000
 12
       15.14420
 22
       26.58366
 32
        4.12000
 13
       16.43830
 23
       31.41329
 33
        4.12000
999
LARGECONF:LARGECONF0_CEILING_1_0_0_0_0_0_HOLE_10073
  0
3DFACE
  8
LARGECONF
 62
 45
 10
        3.42962
 20
       34.89585
 30
        4.12000
 11
        2.13708
 21
       30.07202
 31
        4.12000
 12
       15.14208
 22
       26.58734
 32
        4.12000
 13
       16.43462
 23
       31.41117
 33
        4.12000
  0
ENDSEC
  0
EOF
