<?xml version="1.0"?>
<svg width="250mm" height="200mm" viewBox="0 0   4900    1960"
     xmlns="http://www.w3.org/2000/svg"
     xmlns:xlink="http://www.w3.org/1999/xlink"
     xmlns:ev="http://www.w3.org/2001/xml-events">
<g font-family="Verdana" font-size="8" >
  <line x1="   300" y1="  1870" x2="   300" y2="  1950" style = "stroke:silver  ;"/>
  <line x1="  2050" y1="  1750" x2="  2700" y2="    30" style = "stroke:silver  ;"/>
  <line x1="  2050" y1="  1590" x2="  1900" y2="    30" style = "stroke:silver  ;"/>
  <line x1="   550" y1="  1870" x2="  1050" y2="  1950" style = "stroke:silver  ;"/>
  <line x1="  2050" y1="  1350" x2="   800" y2="  1550" style = "stroke:silver  ;"/>
  <line x1="  2050" y1="  1390" x2="   800" y2="  1710" style = "stroke:silver  ;"/>
  <rect x="   200" y="  1860" width="   200" height="    20" style = "fill:snow; stroke: Black;"/>     1
  <text x="   202" y="  1873">OutdoorAir:NodeList</text>
  <rect x="   200" y="  1940" width="   200" height="    20" style = "fill:snow; stroke: Black;"/>     2
  <text x="   202" y="  1953">OutdoorAir:NodeList</text>
  <rect x="  1700" y="  1540" width="   200" height="    20" style = "fill:wheat; stroke: Black;"/>    13
  <text x="  1702" y="  1553">CHW LOOP DEMAND SIDE SPLITTER</text>
  <rect x="  2200" y="  1580" width="   200" height="    20" style = "fill:wheat; stroke: Black;"/>    14
  <text x="  2202" y="  1593">CHW LOOP DEMAND SIDE MIXER</text>
  <rect x="   450" y="  1500" width="   200" height="    20" style = "fill:wheat; stroke: Black;"/>    15
  <text x="   452" y="  1513">CHW LOOP SUPPLY SIDE SPLITTER</text>
  <rect x="   950" y="  1540" width="   200" height="    20" style = "fill:wheat; stroke: Black;"/>    16
  <text x="   952" y="  1553">CHW LOOP SUPPLY SIDE MIXER</text>
  <rect x="  1700" y="  1700" width="   200" height="    20" style = "fill:wheat; stroke: Black;"/>    17
  <text x="  1702" y="  1713">HW LOOP DEMAND SIDE SPLITTER</text>
  <rect x="  2200" y="  1780" width="   200" height="    20" style = "fill:wheat; stroke: Black;"/>    18
  <text x="  2202" y="  1793">HW LOOP DEMAND SIDE MIXER</text>
  <rect x="   450" y="  1660" width="   200" height="    20" style = "fill:wheat; stroke: Black;"/>    19
  <text x="   452" y="  1673">HW LOOP SUPPLY SIDE SPLITTER</text>
  <rect x="   950" y="  1700" width="   200" height="    20" style = "fill:wheat; stroke: Black;"/>    20
  <text x="   952" y="  1713">HW LOOP SUPPLY SIDE MIXER</text>
  <rect x="  1700" y="  1340" width="   200" height="    20" style = "fill:wheat; stroke: Black;"/>    21
  <text x="  1702" y="  1353">CONDENSER DEMAND SPLITTER</text>
  <rect x="  2200" y="  1420" width="   200" height="    20" style = "fill:wheat; stroke: Black;"/>    22
  <text x="  2202" y="  1433">CONDENSER DEMAND MIXER</text>
  <rect x="   450" y="  1300" width="   200" height="    20" style = "fill:wheat; stroke: Black;"/>    23
  <text x="   452" y="  1313">CONDENSER SUPPLY SPLITTER</text>
  <rect x="   950" y="  1340" width="   200" height="    20" style = "fill:wheat; stroke: Black;"/>    24
  <text x="   952" y="  1353">CONDENSER SUPPLY MIXER</text>
  <rect x="  4200" y="   420" width="   200" height="    20" style = "fill:chartreuse; stroke: Black;"/>    25
  <text x="  4202" y="   433">1ST%FLOOR:1ST%BREAK%ROOM</text>
  <rect x="  3000" y="    60" width="   200" height="    20" style = "fill:wheat; stroke: Black;"/>    56
  <text x="  3002" y="    73">AIR LOOP ZONE SPLITTER</text>
  <rect x="  3400" y="   380" width="   200" height="    20" style = "fill:lightgreen; stroke: Black;"/>    57
  <text x="  3402" y="   393">2ND AIR LOOP SUPPLY PLENUM</text>
  <rect x="  3400" y="   420" width="   200" height="    20" style = "fill:lightgreen; stroke: Black;"/>    58
  <text x="  3402" y="   433">1ST AIR LOOP SUPPLY PLENUM</text>
  <rect x="  3400" y="    60" width="   200" height="    20" style = "fill:wheat; stroke: Black;"/>    59
  <text  x="  3402" y="    68">1ST%FLOOR:1ST%RESTROOM SINGLE DUCT
  <tspan x="  3402" y="    76">VAV</tspan></text>
  <rect x="  3400" y="   100" width="   200" height="    20" style = "fill:wheat; stroke: Black;"/>    60
  <text  x="  3402" y="   108">1ST%FLOOR:1ST%CORRIDOR SINGLE DUCT
  <tspan x="  3402" y="   116">VAV</tspan></text>
  <rect x="  3400" y="   140" width="   200" height="    20" style = "fill:wheat; stroke: Black;"/>    61
  <text  x="  3402" y="   148">1ST%FLOOR:1ST%EDCTN%STRG SINGLE
  <tspan x="  3402" y="   156">DUCT VAV</tspan></text>
  <rect x="  3400" y="   180" width="   200" height="    20" style = "fill:wheat; stroke: Black;"/>    62
  <text  x="  3402" y="   188">2ND%FLOOR%NORTH:2ND%RESTROOMS
  <tspan x="  3402" y="   196">SINGLE DUCT VAV</tspan></text>
  <rect x="  3400" y="   220" width="   200" height="    20" style = "fill:wheat; stroke: Black;"/>    63
  <text  x="  3402" y="   228">2ND%FLOOR%NORTH:2ND%CORRIDOR SINGLE
  <tspan x="  3402" y="   236">DUCT VAV</tspan></text>
  <rect x="  3400" y="   260" width="   200" height="    20" style = "fill:wheat; stroke: Black;"/>    64
  <text  x="  3402" y="   268">2ND%FLOOR%NORTH:2ND%SECURE%FILES
  <tspan x="  3402" y="   276">SINGLE DUCT VAV</tspan></text>
  <rect x="  3400" y="   300" width="   200" height="    20" style = "fill:wheat; stroke: Black;"/>    65
  <text  x="  3402" y="   308">2ND%FLOOR%NORTH:2ND%CONFERENCE%03
  <tspan x="  3402" y="   316">SINGLE DUCT VAV</tspan></text>
  <rect x="  3400" y="   340" width="   200" height="    20" style = "fill:wheat; stroke: Black;"/>    66
  <text  x="  3402" y="   348">2ND%FLOOR%NORTH:2ND%WORK%ROOM
  <tspan x="  3402" y="   356">SINGLE DUCT VAV</tspan></text>
  <rect x="  3800" y="   420" width="   200" height="    20" style = "fill:wheat; stroke: Black;"/>    67
  <text  x="  3802" y="   428">1ST%FLOOR:1ST%BREAK%ROOM SINGLE
  <tspan x="  3802" y="   436">DUCT VAV</tspan></text>
  <rect x="  3800" y="   460" width="   200" height="    20" style = "fill:wheat; stroke: Black;"/>    68
  <text  x="  3802" y="   468">1ST%FLOOR:1ST%CONFERENCE SINGLE
  <tspan x="  3802" y="   476">DUCT VAV</tspan></text>
  <rect x="  3800" y="   500" width="   200" height="    20" style = "fill:wheat; stroke: Black;"/>    69
  <text  x="  3802" y="   508">1ST%FLOOR:1ST%CLASSROOM SINGLE DUCT
  <tspan x="  3802" y="   516">VAV</tspan></text>
  <rect x="  3800" y="   540" width="   200" height="    20" style = "fill:wheat; stroke: Black;"/>    70
  <text  x="  3802" y="   548">1ST%FLOOR:1ST%VOLUNTEER%AREA SINGLE
  <tspan x="  3802" y="   556">DUCT VAV</tspan></text>
  <rect x="  3800" y="  1220" width="   200" height="    20" style = "fill:wheat; stroke: Black;"/>    71
  <text  x="  3802" y="  1228">2ND%FLOOR%SOUTH:2ND%CONFERENCE%01
  <tspan x="  3802" y="  1236">SINGLE DUCT VAV</tspan></text>
  <rect x="  3800" y="  1180" width="   200" height="    20" style = "fill:wheat; stroke: Black;"/>    72
  <text  x="  3802" y="  1188">2ND%FLOOR%SOUTH:2ND%CONFERENCE%02
  <tspan x="  3802" y="  1196">SINGLE DUCT VAV</tspan></text>
  <rect x="  3800" y="   780" width="   200" height="    20" style = "fill:wheat; stroke: Black;"/>    73
  <text  x="  3802" y="   788">1ST%FLOOR:1ST%RESEARCH%OPEN%SE
  <tspan x="  3802" y="   796">SINGLE DUCT VAV</tspan></text>
  <rect x="  3800" y="   740" width="   200" height="    20" style = "fill:wheat; stroke: Black;"/>    74
  <text  x="  3802" y="   748">1ST%FLOOR:1ST%RESEARCH%OPEN%SM
  <tspan x="  3802" y="   756">SINGLE DUCT VAV</tspan></text>
  <rect x="  3800" y="   700" width="   200" height="    20" style = "fill:wheat; stroke: Black;"/>    75
  <text  x="  3802" y="   708">1ST%FLOOR:1ST%RESEARCH%OPEN%SW
  <tspan x="  3802" y="   716">SINGLE DUCT VAV</tspan></text>
  <rect x="  3800" y="   660" width="   200" height="    20" style = "fill:wheat; stroke: Black;"/>    76
  <text  x="  3802" y="   668">1ST%FLOOR:1ST%RESEARCH%OPEN%NE
  <tspan x="  3802" y="   676">SINGLE DUCT VAV</tspan></text>
  <rect x="  3800" y="   620" width="   200" height="    20" style = "fill:wheat; stroke: Black;"/>    77
  <text  x="  3802" y="   628">1ST%FLOOR:1ST%RESEARCH%OPEN%NM
  <tspan x="  3802" y="   636">SINGLE DUCT VAV</tspan></text>
  <rect x="  3800" y="   580" width="   200" height="    20" style = "fill:wheat; stroke: Black;"/>    78
  <text  x="  3802" y="   588">1ST%FLOOR:1ST%RESEARCH%OPEN%NW
  <tspan x="  3802" y="   596">SINGLE DUCT VAV</tspan></text>
  <rect x="  3800" y="   900" width="   200" height="    20" style = "fill:wheat; stroke: Black;"/>    79
  <text  x="  3802" y="   908">2ND%FLOOR%SOUTH:2ND%OPEN%OFFICE%NE
  <tspan x="  3802" y="   916">SINGLE DUCT VAV</tspan></text>
  <rect x="  3800" y="   940" width="   200" height="    20" style = "fill:wheat; stroke: Black;"/>    80
  <text  x="  3802" y="   948">2ND%FLOOR%SOUTH:2ND%OPEN%OFFICE%NME
  <tspan x="  3802" y="   956">SINGLE DUCT VAV</tspan></text>
  <rect x="  3800" y="   980" width="   200" height="    20" style = "fill:wheat; stroke: Black;"/>    81
  <text  x="  3802" y="   988">2ND%FLOOR%SOUTH:2ND%OPEN%OFFICE%NMW
  <tspan x="  3802" y="   996">SINGLE DUCT VAV</tspan></text>
  <rect x="  3800" y="  1020" width="   200" height="    20" style = "fill:wheat; stroke: Black;"/>    82
  <text  x="  3802" y="  1028">2ND%FLOOR%SOUTH:2ND%OPEN%OFFICE%NW
  <tspan x="  3802" y="  1036">SINGLE DUCT VAV</tspan></text>
  <rect x="  3800" y="  1060" width="   200" height="    20" style = "fill:wheat; stroke: Black;"/>    83
  <text  x="  3802" y="  1068">2ND%FLOOR%SOUTH:2ND%OPEN%OFFICE%SE
  <tspan x="  3802" y="  1076">SINGLE DUCT VAV</tspan></text>
  <rect x="  3800" y="  1100" width="   200" height="    20" style = "fill:wheat; stroke: Black;"/>    84
  <text  x="  3802" y="  1108">2ND%FLOOR%SOUTH:2ND%OPEN%OFFICE%SME
  <tspan x="  3802" y="  1116">SINGLE DUCT VAV</tspan></text>
  <rect x="  3800" y="  1140" width="   200" height="    20" style = "fill:wheat; stroke: Black;"/>    85
  <text  x="  3802" y="  1148">2ND%FLOOR%SOUTH:2ND%OPEN%OFFICE%SM
  <tspan x="  3802" y="  1156">SINGLE DUCT VAV</tspan></text>
  <rect x="  3800" y="   860" width="   200" height="    20" style = "fill:wheat; stroke: Black;"/>    86
  <text  x="  3802" y="   868">2ND%FLOOR%SOUTH:2ND%OPEN%OFFICE%SMW
  <tspan x="  3802" y="   876">SINGLE DUCT VAV</tspan></text>
  <rect x="  3800" y="   380" width="   200" height="    20" style = "fill:wheat; stroke: Black;"/>    87
  <text  x="  3802" y="   388">2ND%FLOOR%SOUTH:2ND%OPEN%OFFICE%SW
  <tspan x="  3802" y="   396">SINGLE DUCT VAV</tspan></text>
  <rect x="  3800" y="   820" width="   200" height="    20" style = "fill:wheat; stroke: Black;"/>    88
  <text  x="  3802" y="   828">2ND%FLOOR%SOUTH:2ND%OPEN%OFFICE%SME1
  <tspan x="  3802" y="   836"> SINGLE DUCT VAV</tspan></text>
  <rect x="  1950" y="  1780" width="   200" height="    20" style = "fill:salmon; stroke: Black;"/>    89
  <text  x="  1952" y="  1788">1ST%FLOOR:1ST%VESTIBULE WATER
  <tspan x="  1952" y="  1796">CONVECTOR 1</tspan></text>
  <rect x="  4600" y="   780" width="   200" height="    20" style = "fill:wheat; stroke: Black;"/>    90
  <text x="  4602" y="   793">AIR LOOP ZONE MIXER</text>
  <rect x="  1400" y="    20" width="   200" height="    20" style = "fill:lawngreen; stroke: Black;"/>    91
  <text x="  1402" y="    33">AIR LOOP AHU OUTDOOR AIR MIXER</text>
  <rect x="   600" y="    20" width="   200" height="    20" style = "fill:wheat; stroke: Black;"/>    92
  <text x="   602" y="    33">RETURN AIR BYPASS SPLITTER</text>
  <rect x="  2200" y="    60" width="   200" height="    20" style = "fill:wheat; stroke: Black;"/>    93
  <text x="  2202" y="    73">RETURN AIR BYPASS MIXER</text>
  <rect x="  1950" y="  1740" width="   200" height="    20" style = "fill:salmon; stroke: Black;"/>    94
  <text x="  1952" y="  1753">AIR LOOP AHU HEATING COIL</text>
  <rect x="  2600" y="    20" width="   200" height="    20" style = "fill:salmon; stroke: Black;"/>    95
  <text x="  2602" y="    33">AIR LOOP AHU HEATING COIL</text>
  <rect x="  1950" y="  1580" width="   200" height="    20" style = "fill:skyblue; stroke: Black;"/>    96
  <text x="  1952" y="  1593">AIR LOOP AHU COOLING COIL</text>
  <rect x="  1800" y="    20" width="   200" height="    20" style = "fill:skyblue; stroke: Black;"/>    97
  <text x="  1802" y="    33">AIR LOOP AHU COOLING COIL</text>
  <rect x="   450" y="  1940" width="   200" height="    20" style = "fill:silver; stroke: Black;"/>   100
  <text x="   452" y="  1953">DESICCANT REGEN FAN</text>
  <rect x="  2600" y="    60" width="   200" height="    20" style = "fill:silver; stroke: Black;"/>   101
  <text x="  2602" y="    73">AIR LOOP AHU SUPPLY FAN</text>
  <rect x="   200" y="    20" width="   200" height="    20" style = "fill:wheat; stroke: Black;"/>   102
  <text x="   202" y="    33">VAV INLET DUCT</text>
  <rect x="  1000" y="    60" width="   200" height="    20" style = "fill:wheat; stroke: Black;"/>   103
  <text x="  1002" y="    73">VAV BYPASS DUCT</text>
  <rect x="   450" y="  1860" width="   200" height="    20" style = "fill:tan; stroke: Black;"/>   105
  <text x="   452" y="  1873">DESICCANT 1</text>
  <rect x="   950" y="  1940" width="   200" height="    20" style = "fill:tan; stroke: Black;"/>   106
  <text x="   952" y="  1953">DESICCANT 1</text>
  <rect x="   700" y="  1940" width="   200" height="    20" style = "fill:salmon; stroke: Black;"/>   107
  <text x="   702" y="  1953">DESICCANT REGEN COIL</text>
  <rect x="   700" y="  1860" width="   200" height="    20" style = "fill:paleturquoise; stroke: Black;"/>   108
  <text x="   702" y="  1873">OA HEAT RECOVERY 1</text>
  <rect x="  1450" y="  1540" width="   200" height="    20" style = "fill:wheat; stroke: Black;"/>   110
  <text  x="  1452" y="  1548">CHW LOOP DEMAND SIDE INLET BRANCH
  <tspan x="  1452" y="  1556">PIPE</tspan></text>
  <rect x="  1950" y="  1540" width="   200" height="    20" style = "fill:wheat; stroke: Black;"/>   111
  <text x="  1952" y="  1553">CHW LOOP DEMAND SIDE BYPASS PIPE</text>
  <rect x="  2450" y="  1580" width="   200" height="    20" style = "fill:wheat; stroke: Black;"/>   112
  <text  x="  2452" y="  1588">CHW LOOP DEMAND SIDE OUTLET BRANCH
  <tspan x="  2452" y="  1596">PIPE</tspan></text>
  <rect x="   700" y="  1500" width="   200" height="    20" style = "fill:wheat; stroke: Black;"/>   113
  <text x="   702" y="  1513">CHW LOOP SUPPLY SIDE BYPASS PIPE</text>
  <rect x="  1200" y="  1540" width="   200" height="    20" style = "fill:wheat; stroke: Black;"/>   114
  <text  x="  1202" y="  1548">CHW LOOP SUPPLY SIDE OUTLET BRANCH
  <tspan x="  1202" y="  1556">PIPE</tspan></text>
  <rect x="  1450" y="  1700" width="   200" height="    20" style = "fill:wheat; stroke: Black;"/>   115
  <text  x="  1452" y="  1708">HW LOOP DEMAND SIDE INLET BRANCH
  <tspan x="  1452" y="  1716">PIPE</tspan></text>
  <rect x="  1950" y="  1700" width="   200" height="    20" style = "fill:wheat; stroke: Black;"/>   116
  <text x="  1952" y="  1713">HW LOOP DEMAND SIDE BYPASS PIPE</text>
  <rect x="  2450" y="  1780" width="   200" height="    20" style = "fill:wheat; stroke: Black;"/>   117
  <text  x="  2452" y="  1788">HW LOOP DEMAND SIDE OUTLET BRANCH
  <tspan x="  2452" y="  1796">PIPE</tspan></text>
  <rect x="   700" y="  1660" width="   200" height="    20" style = "fill:wheat; stroke: Black;"/>   118
  <text x="   702" y="  1673">HW LOOP SUPPLY SIDE BYPASS PIPE</text>
  <rect x="  1200" y="  1700" width="   200" height="    20" style = "fill:wheat; stroke: Black;"/>   119
  <text  x="  1202" y="  1708">HW LOOP SUPPLY SIDE OUTLET BRANCH
  <tspan x="  1202" y="  1716">PIPE</tspan></text>
  <rect x="   700" y="  1340" width="   200" height="    20" style = "fill:wheat; stroke: Black;"/>   120
  <text x="   702" y="  1353">CONDENSER SUPPLY SIDE BYPASS</text>
  <rect x="  1200" y="  1340" width="   200" height="    20" style = "fill:wheat; stroke: Black;"/>   121
  <text x="  1202" y="  1353">CONDENSER SUPPLY OUTLET</text>
  <rect x="  1450" y="  1340" width="   200" height="    20" style = "fill:wheat; stroke: Black;"/>   122
  <text x="  1452" y="  1353">CONDENSER DEMAND INLET PIPE</text>
  <rect x="  1950" y="  1420" width="   200" height="    20" style = "fill:wheat; stroke: Black;"/>   123
  <text x="  1952" y="  1433">CONDENSER DEMAND SIDE BYPASS</text>
  <rect x="  2450" y="  1420" width="   200" height="    20" style = "fill:wheat; stroke: Black;"/>   124
  <text x="  2452" y="  1433">CONDENSER DEMAND OUTLET PIPE</text>
  <rect x="  1950" y="  1340" width="   200" height="    20" style = "fill:powderblue; stroke: Black;"/>   125
  <text x="  1952" y="  1353">GSHPCLG</text>
  <rect x="   700" y="  1540" width="   200" height="    20" style = "fill:powderblue; stroke: Black;"/>   126
  <text x="   702" y="  1553">GSHPCLG</text>
  <rect x="  1950" y="  1380" width="   200" height="    20" style = "fill:indianred; stroke: Black;"/>   127
  <text x="  1952" y="  1393">GSHPHEATING</text>
  <rect x="   700" y="  1700" width="   200" height="    20" style = "fill:indianred; stroke: Black;"/>   128
  <text x="   702" y="  1713">GSHPHEATING</text>
  <rect x="   700" y="  1300" width="   200" height="    20" style = "fill:paleturquoise; stroke: Black;"/>   129
  <text x="   702" y="  1313">VERTICAL GROUND HEAT EXCHANGER</text>
  <rect x="   200" y="  1300" width="   200" height="    20" style = "fill:springgreen; stroke: Black;"/>   130
  <text x="   202" y="  1313">COND CIRC PUMP</text>
  <rect x="   200" y="  1500" width="   200" height="    20" style = "fill:springgreen; stroke: Black;"/>   131
  <text x="   202" y="  1513">CHW LOOP PUMP</text>
  <rect x="   200" y="  1660" width="   200" height="    20" style = "fill:springgreen; stroke: Black;"/>   132
  <text x="   202" y="  1673">HW LOOP PUMP</text>
  <rect x="  4200" y="   460" width="   200" height="    20" style = "fill:chartreuse; stroke: Black;"/>   133
  <text x="  4202" y="   473">1ST%FLOOR:1ST%CONFERENCE</text>
  <rect x="  4200" y="   500" width="   200" height="    20" style = "fill:chartreuse; stroke: Black;"/>   134
  <text x="  4202" y="   513">1ST%FLOOR:1ST%CLASSROOM</text>
  <rect x="  4200" y="   540" width="   200" height="    20" style = "fill:chartreuse; stroke: Black;"/>   135
  <text x="  4202" y="   553">1ST%FLOOR:1ST%VOLUNTEER%AREA</text>
  <rect x="  3800" y="    60" width="   200" height="    20" style = "fill:chartreuse; stroke: Black;"/>   136
  <text x="  3802" y="    73">1ST%FLOOR:1ST%RESTROOM</text>
  <rect x="  3800" y="   100" width="   200" height="    20" style = "fill:chartreuse; stroke: Black;"/>   137
  <text x="  3802" y="   113">1ST%FLOOR:1ST%CORRIDOR</text>
  <rect x="  3800" y="   140" width="   200" height="    20" style = "fill:chartreuse; stroke: Black;"/>   138
  <text x="  3802" y="   153">1ST%FLOOR:1ST%EDCTN%STRG</text>
  <rect x="  4200" y="  1220" width="   200" height="    20" style = "fill:chartreuse; stroke: Black;"/>   139
  <text x="  4202" y="  1233">2ND%FLOOR%SOUTH:2ND%CONFERENCE%01</text>
  <rect x="  4200" y="  1180" width="   200" height="    20" style = "fill:chartreuse; stroke: Black;"/>   140
  <text x="  4202" y="  1193">2ND%FLOOR%SOUTH:2ND%CONFERENCE%02</text>
  <rect x="  3800" y="   180" width="   200" height="    20" style = "fill:chartreuse; stroke: Black;"/>   141
  <text x="  3802" y="   193">2ND%FLOOR%NORTH:2ND%RESTROOMS</text>
  <rect x="  3800" y="   220" width="   200" height="    20" style = "fill:chartreuse; stroke: Black;"/>   142
  <text x="  3802" y="   233">2ND%FLOOR%NORTH:2ND%CORRIDOR</text>
  <rect x="  3800" y="   260" width="   200" height="    20" style = "fill:chartreuse; stroke: Black;"/>   143
  <text x="  3802" y="   273">2ND%FLOOR%NORTH:2ND%SECURE%FILES</text>
  <rect x="  3800" y="   300" width="   200" height="    20" style = "fill:chartreuse; stroke: Black;"/>   144
  <text x="  3802" y="   313">2ND%FLOOR%NORTH:2ND%CONFERENCE%03</text>
  <rect x="  3800" y="   340" width="   200" height="    20" style = "fill:chartreuse; stroke: Black;"/>   145
  <text x="  3802" y="   353">2ND%FLOOR%NORTH:2ND%WORK%ROOM</text>
  <rect x="  4200" y="   780" width="   200" height="    20" style = "fill:chartreuse; stroke: Black;"/>   146
  <text x="  4202" y="   793">1ST%FLOOR:1ST%RESEARCH%OPEN%SE</text>
  <rect x="  4200" y="   740" width="   200" height="    20" style = "fill:chartreuse; stroke: Black;"/>   147
  <text x="  4202" y="   753">1ST%FLOOR:1ST%RESEARCH%OPEN%SM</text>
  <rect x="  4200" y="   700" width="   200" height="    20" style = "fill:chartreuse; stroke: Black;"/>   148
  <text x="  4202" y="   713">1ST%FLOOR:1ST%RESEARCH%OPEN%SW</text>
  <rect x="  4200" y="   660" width="   200" height="    20" style = "fill:chartreuse; stroke: Black;"/>   149
  <text x="  4202" y="   673">1ST%FLOOR:1ST%RESEARCH%OPEN%NE</text>
  <rect x="  4200" y="   620" width="   200" height="    20" style = "fill:chartreuse; stroke: Black;"/>   150
  <text x="  4202" y="   633">1ST%FLOOR:1ST%RESEARCH%OPEN%NM</text>
  <rect x="  4200" y="   580" width="   200" height="    20" style = "fill:chartreuse; stroke: Black;"/>   151
  <text x="  4202" y="   593">1ST%FLOOR:1ST%RESEARCH%OPEN%NW</text>
  <rect x="  4200" y="   900" width="   200" height="    20" style = "fill:chartreuse; stroke: Black;"/>   152
  <text x="  4202" y="   913">2ND%FLOOR%SOUTH:2ND%OPEN%OFFICE%NE</text>
  <rect x="  4200" y="   940" width="   200" height="    20" style = "fill:chartreuse; stroke: Black;"/>   153
  <text x="  4202" y="   953">2ND%FLOOR%SOUTH:2ND%OPEN%OFFICE%NME</text>
  <rect x="  4200" y="   980" width="   200" height="    20" style = "fill:chartreuse; stroke: Black;"/>   154
  <text x="  4202" y="   993">2ND%FLOOR%SOUTH:2ND%OPEN%OFFICE%NMW</text>
  <rect x="  4200" y="  1020" width="   200" height="    20" style = "fill:chartreuse; stroke: Black;"/>   155
  <text x="  4202" y="  1033">2ND%FLOOR%SOUTH:2ND%OPEN%OFFICE%NW</text>
  <rect x="  4200" y="  1060" width="   200" height="    20" style = "fill:chartreuse; stroke: Black;"/>   156
  <text x="  4202" y="  1073">2ND%FLOOR%SOUTH:2ND%OPEN%OFFICE%SE</text>
  <rect x="  4200" y="  1100" width="   200" height="    20" style = "fill:chartreuse; stroke: Black;"/>   157
  <text x="  4202" y="  1113">2ND%FLOOR%SOUTH:2ND%OPEN%OFFICE%SME</text>
  <rect x="  4200" y="  1140" width="   200" height="    20" style = "fill:chartreuse; stroke: Black;"/>   158
  <text x="  4202" y="  1153">2ND%FLOOR%SOUTH:2ND%OPEN%OFFICE%SM</text>
  <rect x="  4200" y="   860" width="   200" height="    20" style = "fill:chartreuse; stroke: Black;"/>   159
  <text x="  4202" y="   873">2ND%FLOOR%SOUTH:2ND%OPEN%OFFICE%SMW</text>
  <rect x="  4200" y="   380" width="   200" height="    20" style = "fill:chartreuse; stroke: Black;"/>   160
  <text x="  4202" y="   393">2ND%FLOOR%SOUTH:2ND%OPEN%OFFICE%SW</text>
  <rect x="  4200" y="   820" width="   200" height="    20" style = "fill:chartreuse; stroke: Black;"/>   161
  <text x="  4202" y="   833">2ND%FLOOR%SOUTH:2ND%OPEN%OFFICE%SME1</text>
  <line x1="   400" y1="  1870" x2="   450" y2="  1870" style = "stroke: Black;"/>
  <line x1="   400" y1="  1950" x2="   450" y2="  1950" style = "stroke: Black;"/>
  <line x1="  1900" y1="  1550" x2="  1950" y2="  1550" style = "stroke: Black;"/>
  <line x1="  1900" y1="  1550" x2="  1950" y2="  1590" style = "stroke: Black;"/>
  <line x1="  2400" y1="  1590" x2="  2450" y2="  1590" style = "stroke: Black;"/>
  <line x1="   650" y1="  1510" x2="   700" y2="  1510" style = "stroke: Black;"/>
  <line x1="   650" y1="  1510" x2="   700" y2="  1550" style = "stroke: Black;"/>
  <line x1="  1150" y1="  1550" x2="  1200" y2="  1550" style = "stroke: Black;"/>
  <line x1="  1900" y1="  1710" x2="  1950" y2="  1710" style = "stroke: Black;"/>
  <line x1="  1900" y1="  1710" x2="  1950" y2="  1750" style = "stroke: Black;"/>
  <line x1="  1900" y1="  1710" x2="  1950" y2="  1790" style = "stroke: Black;"/>
  <line x1="  2400" y1="  1790" x2="  2450" y2="  1790" style = "stroke: Black;"/>
  <line x1="   650" y1="  1670" x2="   700" y2="  1670" style = "stroke: Black;"/>
  <line x1="   650" y1="  1670" x2="   700" y2="  1710" style = "stroke: Black;"/>
  <line x1="  1150" y1="  1710" x2="  1200" y2="  1710" style = "stroke: Black;"/>
  <line x1="  1900" y1="  1350" x2="  1950" y2="  1350" style = "stroke: Black;"/>
  <line x1="  1900" y1="  1350" x2="  1950" y2="  1390" style = "stroke: Black;"/>
  <line x1="  1900" y1="  1350" x2="  1950" y2="  1430" style = "stroke: Black;"/>
  <line x1="  2400" y1="  1430" x2="  2450" y2="  1430" style = "stroke: Black;"/>
  <line x1="   650" y1="  1310" x2="   700" y2="  1310" style = "stroke: Black;"/>
  <line x1="   650" y1="  1310" x2="   700" y2="  1350" style = "stroke: Black;"/>
  <line x1="  1150" y1="  1350" x2="  1200" y2="  1350" style = "stroke: Black;"/>
  <line x1="  3200" y1="    70" x2="  3400" y2="    70" style = "stroke: Black;"/>
  <line x1="  3200" y1="    70" x2="  3400" y2="   110" style = "stroke: Black;"/>
  <line x1="  3200" y1="    70" x2="  3400" y2="   150" style = "stroke: Black;"/>
  <line x1="  3200" y1="    70" x2="  3400" y2="   190" style = "stroke: Black;"/>
  <line x1="  3200" y1="    70" x2="  3400" y2="   230" style = "stroke: Black;"/>
  <line x1="  3200" y1="    70" x2="  3400" y2="   270" style = "stroke: Black;"/>
  <line x1="  3200" y1="    70" x2="  3400" y2="   310" style = "stroke: Black;"/>
  <line x1="  3200" y1="    70" x2="  3400" y2="   350" style = "stroke: Black;"/>
  <line x1="  3200" y1="    70" x2="  3400" y2="   390" style = "stroke: Black;"/>
  <line x1="  3200" y1="    70" x2="  3400" y2="   430" style = "stroke: Black;"/>
  <line x1="  3600" y1="   390" x2="  3800" y2="   390" style = "stroke: Black;"/>
  <line x1="  3600" y1="   390" x2="  3800" y2="  1230" style = "stroke: Black;"/>
  <line x1="  3600" y1="   390" x2="  3800" y2="  1190" style = "stroke: Black;"/>
  <line x1="  3600" y1="   390" x2="  3800" y2="  1150" style = "stroke: Black;"/>
  <line x1="  3600" y1="   390" x2="  3800" y2="  1110" style = "stroke: Black;"/>
  <line x1="  3600" y1="   390" x2="  3800" y2="  1070" style = "stroke: Black;"/>
  <line x1="  3600" y1="   390" x2="  3800" y2="  1030" style = "stroke: Black;"/>
  <line x1="  3600" y1="   390" x2="  3800" y2="   990" style = "stroke: Black;"/>
  <line x1="  3600" y1="   390" x2="  3800" y2="   950" style = "stroke: Black;"/>
  <line x1="  3600" y1="   390" x2="  3800" y2="   910" style = "stroke: Black;"/>
  <line x1="  3600" y1="   390" x2="  3800" y2="   870" style = "stroke: Black;"/>
  <line x1="  3600" y1="   390" x2="  3800" y2="   830" style = "stroke: Black;"/>
  <line x1="  3600" y1="   430" x2="  3800" y2="   430" style = "stroke: Black;"/>
  <line x1="  3600" y1="   430" x2="  3800" y2="   470" style = "stroke: Black;"/>
  <line x1="  3600" y1="   430" x2="  3800" y2="   510" style = "stroke: Black;"/>
  <line x1="  3600" y1="   430" x2="  3800" y2="   550" style = "stroke: Black;"/>
  <line x1="  3600" y1="   430" x2="  3800" y2="   590" style = "stroke: Black;"/>
  <line x1="  3600" y1="   430" x2="  3800" y2="   630" style = "stroke: Black;"/>
  <line x1="  3600" y1="   430" x2="  3800" y2="   670" style = "stroke: Black;"/>
  <line x1="  3600" y1="   430" x2="  3800" y2="   710" style = "stroke: Black;"/>
  <line x1="  3600" y1="   430" x2="  3800" y2="   750" style = "stroke: Black;"/>
  <line x1="  3600" y1="   430" x2="  3800" y2="   790" style = "stroke: Black;"/>
  <line x1="  3600" y1="    70" x2="  3800" y2="    70" style = "stroke: Black;"/>
  <line x1="  3600" y1="   110" x2="  3800" y2="   110" style = "stroke: Black;"/>
  <line x1="  3600" y1="   150" x2="  3800" y2="   150" style = "stroke: Black;"/>
  <line x1="  3600" y1="   190" x2="  3800" y2="   190" style = "stroke: Black;"/>
  <line x1="  3600" y1="   230" x2="  3800" y2="   230" style = "stroke: Black;"/>
  <line x1="  3600" y1="   270" x2="  3800" y2="   270" style = "stroke: Black;"/>
  <line x1="  3600" y1="   310" x2="  3800" y2="   310" style = "stroke: Black;"/>
  <line x1="  3600" y1="   350" x2="  3800" y2="   350" style = "stroke: Black;"/>
  <line x1="  4000" y1="   430" x2="  4200" y2="   430" style = "stroke: Black;"/>
  <line x1="  4000" y1="   470" x2="  4200" y2="   470" style = "stroke: Black;"/>
  <line x1="  4000" y1="   510" x2="  4200" y2="   510" style = "stroke: Black;"/>
  <line x1="  4000" y1="   550" x2="  4200" y2="   550" style = "stroke: Black;"/>
  <line x1="  4000" y1="  1230" x2="  4200" y2="  1230" style = "stroke: Black;"/>
  <line x1="  4000" y1="  1190" x2="  4200" y2="  1190" style = "stroke: Black;"/>
  <line x1="  4000" y1="   790" x2="  4200" y2="   790" style = "stroke: Black;"/>
  <line x1="  4000" y1="   750" x2="  4200" y2="   750" style = "stroke: Black;"/>
  <line x1="  4000" y1="   710" x2="  4200" y2="   710" style = "stroke: Black;"/>
  <line x1="  4000" y1="   670" x2="  4200" y2="   670" style = "stroke: Black;"/>
  <line x1="  4000" y1="   630" x2="  4200" y2="   630" style = "stroke: Black;"/>
  <line x1="  4000" y1="   590" x2="  4200" y2="   590" style = "stroke: Black;"/>
  <line x1="  4000" y1="   910" x2="  4200" y2="   910" style = "stroke: Black;"/>
  <line x1="  4000" y1="   950" x2="  4200" y2="   950" style = "stroke: Black;"/>
  <line x1="  4000" y1="   990" x2="  4200" y2="   990" style = "stroke: Black;"/>
  <line x1="  4000" y1="  1030" x2="  4200" y2="  1030" style = "stroke: Black;"/>
  <line x1="  4000" y1="  1070" x2="  4200" y2="  1070" style = "stroke: Black;"/>
  <line x1="  4000" y1="  1110" x2="  4200" y2="  1110" style = "stroke: Black;"/>
  <line x1="  4000" y1="  1150" x2="  4200" y2="  1150" style = "stroke: Black;"/>
  <line x1="  4000" y1="   870" x2="  4200" y2="   870" style = "stroke: Black;"/>
  <line x1="  4000" y1="   390" x2="  4200" y2="   390" style = "stroke: Black;"/>
  <line x1="  4000" y1="   830" x2="  4200" y2="   830" style = "stroke: Black;"/>
  <line x1="  2150" y1="  1790" x2="  2200" y2="  1790" style = "stroke: Black;"/>
  <line x1="  1600" y1="    30" x2="  1800" y2="    30" style = "stroke: Black;"/>
  <line x1="   800" y1="    30" x2="   800" y2="    30" style = "stroke: Black;"/>
  <line x1="   800" y1="    30" x2="   800" y2="    30" style = "stroke: Black;"/>
  <line x1="   800" y1="    30" x2="  1400" y2="    30" style = "stroke: Black;"/>
  <line x1="   800" y1="    30" x2="  1000" y2="    70" style = "stroke: Black;"/>
  <line x1="  2400" y1="    70" x2="  2600" y2="    70" style = "stroke: Black;"/>
  <line x1="  2150" y1="  1750" x2="  2200" y2="  1790" style = "stroke: Black;"/>
  <line x1="  2800" y1="    30" x2="  2200" y2="    70" style = "stroke: Black;"/>
  <line x1="  2150" y1="  1590" x2="  2200" y2="  1590" style = "stroke: Black;"/>
  <line x1="  2000" y1="    30" x2="  2000" y2="    30" style = "stroke: Black;"/>
  <line x1="  2000" y1="    30" x2="  2000" y2="    30" style = "stroke: Black;"/>
  <line x1="  2000" y1="    30" x2="  2600" y2="    30" style = "stroke: Black;"/>
  <line x1="   650" y1="  1950" x2="   700" y2="  1950" style = "stroke: Black;"/>
  <line x1="  2800" y1="    70" x2="  3000" y2="    70" style = "stroke: Black;"/>
  <line x1="   400" y1="    30" x2="   600" y2="    30" style = "stroke: Black;"/>
  <line x1="  1200" y1="    70" x2="  1200" y2="    70" style = "stroke: Black;"/>
  <line x1="  1200" y1="    70" x2="  1200" y2="    70" style = "stroke: Black;"/>
  <line x1="  1200" y1="    70" x2="  2200" y2="    70" style = "stroke: Black;"/>
  <line x1="   650" y1="  1870" x2="   700" y2="  1870" style = "stroke: Black;"/>
  <line x1="   900" y1="  1950" x2="   950" y2="  1950" style = "stroke: Black;"/>
  <line x1="   900" y1="  1870" x2="  1400" y2="    30" style = "stroke: Black;"/>
  <line x1="  1650" y1="  1550" x2="  1700" y2="  1550" style = "stroke: Black;"/>
  <line x1="  2150" y1="  1550" x2="  2200" y2="  1590" style = "stroke: Black;"/>
  <line x1="   900" y1="  1510" x2="   950" y2="  1550" style = "stroke: Black;"/>
  <line x1="  1400" y1="  1550" x2="  1450" y2="  1550" style = "stroke: Black;"/>
  <line x1="  1650" y1="  1710" x2="  1700" y2="  1710" style = "stroke: Black;"/>
  <line x1="  2150" y1="  1710" x2="  2200" y2="  1790" style = "stroke: Black;"/>
  <line x1="   900" y1="  1670" x2="   950" y2="  1710" style = "stroke: Black;"/>
  <line x1="  1400" y1="  1710" x2="  1450" y2="  1710" style = "stroke: Black;"/>
  <line x1="   900" y1="  1350" x2="   950" y2="  1350" style = "stroke: Black;"/>
  <line x1="  1400" y1="  1350" x2="  1450" y2="  1350" style = "stroke: Black;"/>
  <line x1="  1650" y1="  1350" x2="  1700" y2="  1350" style = "stroke: Black;"/>
  <line x1="  2150" y1="  1430" x2="  2200" y2="  1430" style = "stroke: Black;"/>
  <line x1="  2150" y1="  1350" x2="  2200" y2="  1430" style = "stroke: Black;"/>
  <line x1="   900" y1="  1550" x2="   950" y2="  1550" style = "stroke: Black;"/>
  <line x1="  2150" y1="  1390" x2="  2200" y2="  1430" style = "stroke: Black;"/>
  <line x1="   900" y1="  1710" x2="   950" y2="  1710" style = "stroke: Black;"/>
  <line x1="   900" y1="  1310" x2="   950" y2="  1350" style = "stroke: Black;"/>
  <line x1="   400" y1="  1310" x2="   450" y2="  1310" style = "stroke: Black;"/>
  <line x1="   400" y1="  1510" x2="   450" y2="  1510" style = "stroke: Black;"/>
  <line x1="   400" y1="  1670" x2="   450" y2="  1670" style = "stroke: Black;"/>
  <line x1="  4400" y1="   430" x2="  4600" y2="   790" style = "stroke: Black;"/>
  <line x1="  4400" y1="   470" x2="  4600" y2="   790" style = "stroke: Black;"/>
  <line x1="  4400" y1="   510" x2="  4600" y2="   790" style = "stroke: Black;"/>
  <line x1="  4400" y1="   550" x2="  4600" y2="   790" style = "stroke: Black;"/>
  <line x1="  4000" y1="    70" x2="  4200" y2="    90" style = "stroke: Black;"/>
  <line x1="  4200" y1="    90" x2="  4400" y2="    90" style = "stroke: Black;"/>
  <line x1="  4400" y1="    90" x2="  4600" y2="   790" style = "stroke: Black;"/>
  <line x1="  4000" y1="   110" x2="  4200" y2="   130" style = "stroke: Black;"/>
  <line x1="  4200" y1="   130" x2="  4400" y2="   130" style = "stroke: Black;"/>
  <line x1="  4400" y1="   130" x2="  4600" y2="   790" style = "stroke: Black;"/>
  <line x1="  4000" y1="   150" x2="  4200" y2="   170" style = "stroke: Black;"/>
  <line x1="  4200" y1="   170" x2="  4400" y2="   170" style = "stroke: Black;"/>
  <line x1="  4400" y1="   170" x2="  4600" y2="   790" style = "stroke: Black;"/>
  <line x1="  4400" y1="  1230" x2="  4600" y2="   790" style = "stroke: Black;"/>
  <line x1="  4400" y1="  1190" x2="  4600" y2="   790" style = "stroke: Black;"/>
  <line x1="  4000" y1="   190" x2="  4200" y2="   210" style = "stroke: Black;"/>
  <line x1="  4200" y1="   210" x2="  4400" y2="   210" style = "stroke: Black;"/>
  <line x1="  4400" y1="   210" x2="  4600" y2="   790" style = "stroke: Black;"/>
  <line x1="  4000" y1="   230" x2="  4200" y2="   250" style = "stroke: Black;"/>
  <line x1="  4200" y1="   250" x2="  4400" y2="   250" style = "stroke: Black;"/>
  <line x1="  4400" y1="   250" x2="  4600" y2="   790" style = "stroke: Black;"/>
  <line x1="  4000" y1="   270" x2="  4200" y2="   290" style = "stroke: Black;"/>
  <line x1="  4200" y1="   290" x2="  4400" y2="   290" style = "stroke: Black;"/>
  <line x1="  4400" y1="   290" x2="  4600" y2="   790" style = "stroke: Black;"/>
  <line x1="  4000" y1="   310" x2="  4200" y2="   330" style = "stroke: Black;"/>
  <line x1="  4200" y1="   330" x2="  4400" y2="   330" style = "stroke: Black;"/>
  <line x1="  4400" y1="   330" x2="  4600" y2="   790" style = "stroke: Black;"/>
  <line x1="  4000" y1="   350" x2="  4200" y2="   370" style = "stroke: Black;"/>
  <line x1="  4200" y1="   370" x2="  4400" y2="   370" style = "stroke: Black;"/>
  <line x1="  4400" y1="   370" x2="  4600" y2="   790" style = "stroke: Black;"/>
  <line x1="  4400" y1="   790" x2="  4600" y2="   790" style = "stroke: Black;"/>
  <line x1="  4400" y1="   750" x2="  4600" y2="   790" style = "stroke: Black;"/>
  <line x1="  4400" y1="   710" x2="  4600" y2="   790" style = "stroke: Black;"/>
  <line x1="  4400" y1="   670" x2="  4600" y2="   790" style = "stroke: Black;"/>
  <line x1="  4400" y1="   630" x2="  4600" y2="   790" style = "stroke: Black;"/>
  <line x1="  4400" y1="   590" x2="  4600" y2="   790" style = "stroke: Black;"/>
  <line x1="  4400" y1="   910" x2="  4600" y2="   790" style = "stroke: Black;"/>
  <line x1="  4400" y1="   950" x2="  4600" y2="   790" style = "stroke: Black;"/>
  <line x1="  4400" y1="   990" x2="  4600" y2="   790" style = "stroke: Black;"/>
  <line x1="  4400" y1="  1030" x2="  4600" y2="   790" style = "stroke: Black;"/>
  <line x1="  4400" y1="  1070" x2="  4600" y2="   790" style = "stroke: Black;"/>
  <line x1="  4400" y1="  1110" x2="  4600" y2="   790" style = "stroke: Black;"/>
  <line x1="  4400" y1="  1150" x2="  4600" y2="   790" style = "stroke: Black;"/>
  <line x1="  4400" y1="   870" x2="  4600" y2="   790" style = "stroke: Black;"/>
  <line x1="  4400" y1="   390" x2="  4600" y2="   790" style = "stroke: Black;"/>
  <line x1="  4400" y1="   830" x2="  4600" y2="   790" style = "stroke: Black;"/>
  <line x1="   200" y1="    30" x2="   175" y2="    30" style = "stroke: Black;"/>
  <line x1="   175" y1="    30" x2="   175" y2="     0" style = "stroke: Black;"/>
  <line x1="   175" y1="     0" x2="  4825" y2="     0" style = "stroke: Black;"/>
  <line x1="  4825" y1="     0" x2="  4825" y2="   790" style = "stroke: Black;"/>
  <line x1="  4825" y1="   790" x2="  4800" y2="   790" style = "stroke: Black;"/>
  <line x1="   200" y1="  1310" x2="   175" y2="  1310" style = "stroke: Black;"/>
  <line x1="   175" y1="  1310" x2="   175" y2="  1280" style = "stroke: Black;"/>
  <line x1="   175" y1="  1280" x2="  2675" y2="  1280" style = "stroke: Black;"/>
  <line x1="  2675" y1="  1280" x2="  2675" y2="  1430" style = "stroke: Black;"/>
  <line x1="  2675" y1="  1430" x2="  2650" y2="  1430" style = "stroke: Black;"/>
  <line x1="   200" y1="  1510" x2="   175" y2="  1510" style = "stroke: Black;"/>
  <line x1="   175" y1="  1510" x2="   175" y2="  1480" style = "stroke: Black;"/>
  <line x1="   175" y1="  1480" x2="  2675" y2="  1480" style = "stroke: Black;"/>
  <line x1="  2675" y1="  1480" x2="  2675" y2="  1590" style = "stroke: Black;"/>
  <line x1="  2675" y1="  1590" x2="  2650" y2="  1590" style = "stroke: Black;"/>
  <line x1="   200" y1="  1670" x2="   175" y2="  1670" style = "stroke: Black;"/>
  <line x1="   175" y1="  1670" x2="   175" y2="  1640" style = "stroke: Black;"/>
  <line x1="   175" y1="  1640" x2="  2675" y2="  1640" style = "stroke: Black;"/>
  <line x1="  2675" y1="  1640" x2="  2675" y2="  1790" style = "stroke: Black;"/>
  <line x1="  2675" y1="  1790" x2="  2650" y2="  1790" style = "stroke: Black;"/>
  <text x="   200" y="  2000">Unused Non-Parent Objects:</text>
  <text x="   220" y="  2020">CHW LOOP SETPOINT MANAGER</text>
  <text x="   220" y="  2040">HW LOOP SETPOINT MANAGER</text>
  <text x="   220" y="  2060">CONDENSER LOOP SETPOINT MANAGER</text>
  <text x="   220" y="  2080">AIR LOOP SUPPLY SIDE OUTLET SETPOINT MANAGER</text>
  <text x="   220" y="  2100">MIXED AIR TEMP MANAGER</text>
  <text x="   220" y="  2120">COOLING COIL OUTLET AIR SETPOINT MANAGER</text>
  <text x="   220" y="  2140">HEATING COIL OUTLET AIR SETPOINT MANAGER</text>
  <text x="   220" y="  2160">1ST%FLOOR:1ST%RESEARCH%OPEN%SM ZONE DEHUMIDIFYING HUMIDISTAT MANAGER</text>
  <text x="   220" y="  2180">DESICCANT SET POINT MANAGER</text>
  <text x="   220" y="  2200">CHILLED WATER CONDENSER LOOP</text>
  <text x="   220" y="  2220">1ST%FLOOR:1ST%VESTIBULE</text>
  <text x="   220" y="  2240">AIR LOOP AHU COOLING COIL CONTROLLER</text>
  <text x="   220" y="  2260">AIR LOOP AHU HEATING COIL CONTROLLER</text>
  <text x="   220" y="  2280">AIR LOOP AHU  OUTDOOR AIR CONTROLLER</text>
  <text x="   200" y="  2320">
The following are not supported: objects related to controls, AirTerminal:SingleDuct:Uncontrolled, or ZoneHVAC:IdealLoadsAirSystem</text>
</g>
</svg>
